<?xml version="1.0" encoding="UTF-8" standalone="no"?>
<svg
   id="Layer_2"
   data-name="Layer 2"
   viewBox="0 0 925.76 315.52"
   version="1.1"
   sodipodi:docname="SMAIL Colored.svg"
   inkscape:version="1.4.2 (f4327f4, 2025-05-13)"
   xmlns:inkscape="http://www.inkscape.org/namespaces/inkscape"
   xmlns:sodipodi="http://sodipodi.sourceforge.net/DTD/sodipodi-0.dtd"
   xmlns="http://www.w3.org/2000/svg"
   xmlns:svg="http://www.w3.org/2000/svg">
  <sodipodi:namedview
     id="namedview74"
     pagecolor="#ffffff"
     bordercolor="#000000"
     borderopacity="0.25"
     inkscape:showpageshadow="2"
     inkscape:pageopacity="0.0"
     inkscape:pagecheckerboard="0"
     inkscape:deskcolor="#d1d1d1"
     inkscape:zoom="0.70892905"
     inkscape:cx="703.17332"
     inkscape:cy="164.33238"
     inkscape:window-width="1920"
     inkscape:window-height="986"
     inkscape:window-x="-11"
     inkscape:window-y="-11"
     inkscape:window-maximized="1"
     inkscape:current-layer="Layer_2" />
  <defs
     id="defs1">
    <rect
       x="577.48731"
       y="325.12666"
       width="67.824877"
       height="73.773534"
       id="rect75" />
    <rect
       x="267.6025"
       y="129.62866"
       width="569.18759"
       height="220.57384"
       id="rect74" />
    <style
       id="style1">
      .cls-1 {
        fill: #932727;
      }

      .cls-2 {
        fill: #c33;
      }
    </style>
  </defs>
  <g
     id="Layer_1-2"
     data-name="Layer 1">
    <g
       id="g74">
      <g
         id="g32">
        <path
           class="cls-2"
           d="M273.78,96.35c-.79-1.02-1.69-2-2.67-2.9-1.75-1.6-3.66-2.86-5.69-3.81-5.59-2.6-11.59-1.9-14.42-1.51-8.45,1.15-23.35,4.01-42.21,8.9-3.27.7-6.58,1.42-9.84,2.12,9.81,2.69,19.61,5.4,29.42,8.1h.03c15.14,5.35,27.87,17.14,33.81,33.39,3.91,10.62,4.37,21.66,1.94,31.88-.27,1.23-2.04,1.23-2.27-.03-.23-1.26-.56-2.54-1.02-3.82-.82-2.21-1.94-4.21-3.29-5.96-3.78-4.9-9.44-7.04-12.12-7.99-8.02-2.89-22.56-7.2-41.58-11.56-6.13-1.67-12.26-3.34-18.4-5.03-3.42,6.36-8.07,11.98-13.6,16.55h0c-11.73,8.36-23.42,16.73-35.13,25.1v4.25h-7.01v5.26h-7.01v5.26h-10.52v5.26h-3.51v5.26h-7.01v5.26h-7.01v10.51h-3.5v10.52h-3.51v-10.52h-3.51v-10.51h-3.5v-26.3h3.5v-10.51h3.51v-5.26h3.51v-5.26h3.5v-5.26h7.01v-5.26h7.01v-5.25h7.01v-5.26h7.02v-5.26h7.01v-5.26h6.93v-2.14c10.14-6.61,18.69-12.63,25.27-17.53,3.26-2.44,6.03-4.61,8.29-6.42t.04-.03c.43-.4.87-.75,1.28-1.09,2.18-1.81,6.75-5.76,8.63-11.66.65-2.13,1.02-4.41,1.02-6.74,0-3.87-.73-7.57-2.41-10.75-.03,0-.03-.02-.03-.02-1.25-1.46-2.46-2.73-3.59-3.83-1.17-1.18-2.23-2.13-3.15-2.92-.04-.04-.08-.06-.13-.1-.31-.23-.64-.46-.96-.69l-.2,1.74c-2.99,2.11-5.99,4.21-9,6.33-.33.19-.64.38-.97.59-8.02,5.69-16.01,11.42-24.01,17.14v1.33h-7.01v5.26h-7.01v5.26h-7.02v5.26h-3.5v5.26h-7.01v5.25h-7.01v5.26h-3.51v5.26h-3.5v10.52h-3.51v-5.26h-3.51v-10.52h-3.5v-31.55h3.5v-10.51h3.51v-5.26h3.51v-5.26h7.01v-5.26h7.01v-5.26h7.01v-5.26h7.01v-5.25h7.01v-5.26h7.02v-5.26h3.5v1.4c.05-.04.09-.09.15-.1,3.92-2.86,8.13-6.04,12.6-9.5,11.85-8.4,23.72-16.84,35.57-25.24,5.2-3.07,16.25-8.52,30.51-8.1,7.85.23,14.05,2.15,16.74,3.1,10.56,3.68,19.29,10.2,25.68,18.41.82,1.06-.4,2.48-1.58,1.85-1.02-.56-2.13-1.05-3.26-1.44-7.21-2.5-14.84-1.12-20.57,3.06-11.79,8.33-23.58,16.65-35.34,24.98-4.7,3.32-9.37,6.64-14.07,9.93,10.27-2.18,20.56-4.38,30.82-6.56h0s0,.01.03.01c15.87-2.25,32.61,2.36,45.38,14.05,8.34,7.61,13.83,17.2,16.42,27.4.31,1.23-1.25,2.04-2.03,1.02Z"
           id="path1" />
        <path
           class="cls-2"
           d="M172,68.32c-.42.32-.86.63-1.29.94l.2-1.74c.32.23.65.46.96.69.05.04.09.06.13.1Z"
           id="path2" />
        <path
           class="cls-2"
           d="M181.18,85.86c0,2.34-.37,4.61-1.02,6.74-1.88,5.9-6.45,9.84-8.63,11.66-.41.33-.84.69-1.28,1.09t-.04.03c-1.37.27-2.72.56-4.07.86l4.57-36.95.2-1.74c.32.23.65.46.96.69.05.04.09.06.13.1.92.79,1.98,1.75,3.15,2.92,1.12,1.1,2.34,2.37,3.59,3.83,0,0,0,.02.03.02,1.69,3.18,2.41,6.88,2.41,10.75Z"
           id="path3" />
        <path
           class="cls-1"
           d="M181.18,85.86c0,2.34-.37,4.61-1.02,6.74-1.88,5.9-6.45,9.84-8.63,11.66-.41.33-.84.69-1.28,1.09t-.04.03c-2.26,1.81-5.03,3.98-8.29,6.42-8.39-6.01-16.8-12-25.19-17.99v-.47c7.99-5.72,15.99-11.44,24.01-17.14.33-.2.64-.4.97-.59,3.01-2.12,6.01-4.23,9-6.33l1.29-.94c.52.45,1.2,1.04,1.96,1.77.56.53.97.94,1.19,1.16,1.12,1.1,2.34,2.37,3.59,3.83,0,0,0,.02.03.02,1.69,3.18,2.41,6.88,2.41,10.75Z"
           id="path4" />
        <path
           class="cls-1"
           d="M192.12,283.7c0,11.3-3.37,21.81-9.16,30.61-.2.33-.51.49-.82.52-.13.01-.24.01-.36,0-.57-.13-1.09-.64-.94-1.35.22-1.26.33-2.57.33-3.91,0-7.64-3.81-14.39-9.64-18.43-11.61-8.29-23.21-16.57-34.81-24.85-.03-.01-.05-.04-.08-.05v-.37s.05-.04.08-.05c11.71-8.38,23.41-16.73,35.11-25.09h0s.01-.01.01-.01c4.6,3.92,13.38,12.55,17.67,26.16,2.38,7.47,2.59,13.97,2.59,16.82Z"
           id="path5" />
        <path
           class="cls-1"
           d="M178.62,234.04c.09-.1.18-.22.27-.32-.09.1-.17.22-.26.32h-.01Z"
           id="path6" />
        <path
           class="cls-1"
           d="M180.23,232.07s.03-.03.04-.04c-.01.01-.01.03-.03.05-.13.14-.26.31-.4.47.14-.17.27-.32.38-.49Z"
           id="path7" />
        <path
           class="cls-1"
           d="M181.18,171.87c0,2.36-.37,4.62-1.03,6.74-1.85,5.9-6.44,9.85-8.63,11.68-2.49,2.08-5.84,4.71-9.91,7.74-8.3-5.91-16.59-11.84-24.87-17.74v-.5c11.71-8.38,23.39-16.74,35.13-25.09,1.79,1.51,4.19,3.74,6.72,6.68.01,0,.01.01.01.01,1.65,3.12,2.59,6.68,2.59,10.47Z"
           id="path8" />
        <path
           class="cls-1"
           d="M186.62,221.87c.13-.26.26-.52.38-.79-.11.27-.24.54-.37.8-.03.01-.04.04-.04.05.01-.03.01-.04.03-.06Z"
           id="path9" />
        <path
           class="cls-1"
           d="M189.53,180.86c.06.2.13.4.17.56-.11-.4-.26-.79-.38-1.17.09.19.17.41.22.61Z"
           id="path10" />
        <path
           class="cls-1"
           d="M190.38,183.82c.23.92.43,1.85.63,2.78-.19-.93-.41-1.86-.64-2.78-.03-.11-.06-.22-.09-.33.04.1.06.22.1.33Z"
           id="path11" />
        <path
           class="cls-1"
           d="M191.39,206.65c.04-.2.08-.41.1-.63-.03.2-.05.42-.09.63-.01.09-.03.19-.05.28.01-.1.03-.19.04-.28Z"
           id="path12" />
        <path
           class="cls-1"
           d="M191.58,205.4c.05-.33.09-.65.13-.98-.03.33-.06.65-.11.98-.03.2-.06.41-.1.63.04-.22.06-.42.09-.63Z"
           id="path13" />
        <path
           class="cls-1"
           d="M191.98,201.47c.01-.08.03-.15.03-.23-.01.08-.01.15-.01.23-.01.2-.03.42-.05.63.01-.2.03-.42.04-.63Z"
           id="path14" />
        <path
           class="cls-1"
           d="M192.08,199.93c-.01.2-.03.41-.03.6-.01.15-.03.32-.04.47.01-.17.01-.32.03-.47.01-.19.03-.4.04-.6Z"
           id="path15" />
        <path
           class="cls-2"
           d="M136.73,215.6v.14s-.05-.04-.08-.05v-.09h.08Z"
           id="path16" />
        <path
           class="cls-2"
           d="M178.5,161.22c.4.46.75.94,1.12,1.42-.34-.43-.69-.83-1.03-1.24,0,0,0-.01-.01-.01-.03-.06-.05-.1-.08-.17Z"
           id="path17" />
        <path
           class="cls-2"
           d="M180.65,231.54c.06-.09.13-.17.19-.24-.06.09-.11.17-.18.24-.01.01-.03.03-.03.04,0,0,.01-.01.01-.04Z"
           id="path18" />
        <path
           class="cls-2"
           d="M181.01,231.06c.04-.05.09-.1.14-.17-.04.06-.08.11-.13.17-.06.08-.11.15-.18.23.05-.08.11-.15.17-.23Z"
           id="path19" />
        <path
           class="cls-2"
           d="M181.27,164.74c.77,1.02,1.49,2.06,2.17,3.13-.13-.19-.26-.38-.4-.57-.59-.88-1.17-1.74-1.77-2.55Z"
           id="path20" />
        <path
           class="cls-2"
           d="M184.2,226.3c.15-.26.32-.52.47-.79-.15.27-.31.54-.46.8-.2.34-.41.69-.64,1.03.2-.34.42-.69.63-1.05Z"
           id="path21" />
        <path
           class="cls-2"
           d="M185.42,224.19c.08-.14.15-.28.23-.42-.06.14-.14.28-.22.42-.13.24-.27.47-.41.7.14-.23.27-.46.4-.7Z"
           id="path22" />
        <path
           class="cls-2"
           d="M186.54,222.02s.03-.03.03-.04c0,.01,0,.03-.01.04-.19.36-.37.73-.56,1.09.19-.36.37-.73.55-1.09Z"
           id="path23" />
        <path
           class="cls-2"
           d="M189.31,215.15c.19-.59.38-1.17.56-1.76-.17.6-.36,1.19-.55,1.78-.04.11-.08.22-.11.32.04-.1.06-.22.1-.33Z"
           id="path24" />
        <path
           class="cls-2"
           d="M190.37,211.59c.31-1.2.57-2.43.82-3.66-.23,1.23-.5,2.45-.82,3.66Z"
           id="path25" />
        <path
           class="cls-2"
           d="M192.12,197.72v.08c0,.26,0,.51-.01.77v-2.16c.01.43.01.87.01,1.32Z"
           id="path26" />
        <g
           id="g29">
          <rect
             class="cls-2"
             x="91.15"
             y="231.38"
             width="3.51"
             height="5.26"
             id="rect26" />
          <path
             class="cls-2"
             d="M192.11,196.41v2.16c0,.27,0,.52-.01.77,0,.19-.01.4-.01.6-.01.2-.03.41-.04.6-.01.15-.01.31-.03.47-.01.08-.01.15-.01.23s-.01.15-.03.23c-.01.2-.03.42-.04.63-.03.45-.06.89-.11,1.34-.03.33-.06.66-.11.98-.04.33-.08.65-.13.98-.03.2-.05.41-.09.63-.03.22-.06.42-.1.63-.01.09-.03.18-.04.28-.05.31-.1.61-.17.92v.08c-.24,1.24-.51,2.46-.82,3.66-.15.6-.32,1.21-.5,1.8s-.37,1.17-.56,1.76c-.04.12-.06.23-.1.33-.03.11-.06.22-.1.32-.06.2-.14.41-.2.61h0c-.13.37-.26.73-.41,1.09-.46,1.21-.94,2.41-1.49,3.58-.13.27-.26.54-.38.79-.01.03-.01.04-.03.06h-.01s0,.04-.01.05c0,.01-.01.03-.03.04-.18.36-.36.73-.55,1.09-.11.22-.23.45-.34.66-.08.14-.15.28-.23.42-.13.24-.26.47-.4.7-.1.2-.22.41-.34.61-.15.27-.32.54-.47.79-.2.36-.42.7-.63,1.05-.2.34-.43.69-.66,1.03-.45.66-.91,1.33-1.38,1.99-.09.12-.18.23-.26.34-.04.06-.08.12-.13.18-.05.06-.1.11-.14.17-.05.08-.11.15-.17.23-.06.08-.13.15-.19.24,0,.03-.01.04-.01.04h0c-.13.14-.23.29-.34.42,0,.01-.01.03-.03.04-.01.01-.03.03-.04.04-.11.17-.24.32-.38.49-.32.4-.64.78-.96,1.16-.09.1-.18.22-.27.32-.03.03-.06.06-.08.09-.01.01-.03.01-.03.03h-.01c-1.02,1.2-2.07,2.34-3.18,3.42s-2.26,2.13-3.47,3.13h-.01v.03c-11.71,8.36-23.41,16.71-35.11,25.09-.03.01-.05.04-.08.05v.37s.05.04.08.05v1.9h-7.01v5.26h-7.01v5.25h-7.02v5.26h-7.01v5.26h-7.01v5.26h-3.5v5.26h-3.51v5.26h-3.5v10.51h-3.51v-5.26h-3.51v-10.51h-3.5v-26.29h3.5v-10.52h3.51v-5.26h3.51v-5.26h3.5v-5.26h3.51v-5.25h7.01v-5.26h7.01v-5.26h7.01v-5.26h7.01v-5.26h7.01v-5.26h3.43v.09s.05.04.08.05v-.14h-.08v-.27c3.74-2.44,7.27-4.8,10.55-7.06,5.49-3.75,10.32-7.19,14.4-10.24,4.07-3.03,7.42-5.66,9.91-7.74,2.2-1.84,6.78-5.78,8.63-11.68.66-2.12,1.03-4.38,1.03-6.74,0-3.79-.94-7.35-2.59-10.47.34.41.69.8,1.03,1.24.04.04.08.08.1.11.06.08.14.15.2.24.06.09.14.18.2.26.15.2.31.4.46.6.22.29.45.59.68.89.6.82,1.19,1.67,1.77,2.55.14.19.27.38.4.57.49.77.94,1.53,1.4,2.32.18.32.36.64.52.97.08.13.14.27.22.4t.01.03s.05.05.06.09h0c.36.68.69,1.35,1.03,2.04.29.63.59,1.26.86,1.9.33.75.64,1.52.93,2.29.15.38.29.77.43,1.15.13.4.27.79.4,1.19.13.38.27.78.38,1.17.11.38.24.79.36,1.2h0c.08.29.15.59.23.87.03.11.06.22.09.33.23.92.45,1.85.64,2.78.56,2.81.93,5.69,1.05,8.64.01.38.04.77.05,1.16Z"
             id="path27" />
          <path
             class="cls-2"
             d="M136.73,215.6v.14s-.05-.04-.08-.05v-.09h.08Z"
             id="path28" />
          <path
             class="cls-2"
             d="M136.73,265.82v.47s-.05-.04-.08-.05v-.37s.05-.04.08-.05Z"
             id="path29" />
        </g>
        <g
           id="g31">
          <polygon
             class="cls-1"
             points="133.22 215.6 133.22 220.86 126.21 220.86 126.21 226.12 119.2 226.12 119.2 231.38 112.19 231.38 112.19 236.64 105.18 236.64 105.18 241.91 98.17 241.91 98.17 236.64 94.66 236.64 94.66 231.38 91.16 231.38 91.16 220.86 94.66 220.86 94.66 210.35 101.67 210.35 101.67 205.09 108.68 205.09 108.68 199.83 115.69 199.83 115.69 205.09 122.71 205.09 122.71 210.35 129.72 210.35 129.72 215.6 133.22 215.6"
             id="polygon29" />
          <polygon
             class="cls-1"
             points="133.22 126.21 133.22 131.47 129.72 131.47 129.72 136.73 122.71 136.73 122.71 141.99 115.69 141.99 115.69 147.25 108.68 147.25 108.68 152.5 94.66 152.5 94.66 147.25 91.16 147.25 91.16 131.47 94.66 131.47 94.66 126.21 98.17 126.21 98.17 120.94 105.18 120.94 105.18 115.7 119.2 115.7 119.2 120.94 126.21 120.94 126.21 126.21 133.22 126.21"
             id="polygon30" />
          <polygon
             class="cls-1"
             points="129.71 42.07 129.71 36.81 126.21 36.81 122.7 36.81 122.7 31.55 119.2 31.55 115.69 31.55 115.69 26.29 112.19 26.29 108.68 26.29 108.68 21.04 105.17 21.04 101.67 21.04 101.67 15.78 98.16 15.78 94.66 15.78 94.66 10.52 91.15 10.52 87.64 10.52 87.64 5.26 84.14 5.26 80.63 5.26 77.13 5.26 73.62 5.26 73.62 0 70.12 0 66.61 0 63.1 0 59.6 0 56.09 0 52.59 0 49.08 0 45.58 0 42.07 0 42.07 5.26 38.56 5.26 35.06 5.26 31.55 5.26 31.55 10.52 28.05 10.52 24.54 10.52 21.03 10.52 21.03 15.78 17.53 15.78 17.53 21.04 21.03 21.04 24.54 21.04 28.05 21.04 31.55 21.04 35.06 21.04 38.56 21.04 38.56 26.29 42.07 26.29 45.58 26.29 45.58 31.55 49.08 31.55 52.59 31.55 52.59 36.81 56.09 36.81 59.6 36.81 59.6 42.07 63.1 42.07 66.61 42.07 66.61 47.33 70.12 47.33 73.62 47.33 73.62 52.59 77.13 52.59 80.63 52.59 80.63 57.85 77.13 57.85 73.62 57.85 70.12 57.85 66.61 57.85 66.61 52.59 63.1 52.59 59.6 52.59 56.09 52.59 52.59 52.59 49.08 52.59 45.58 52.59 42.07 52.59 38.56 52.59 35.06 52.59 35.06 57.85 31.55 57.85 28.05 57.85 24.54 57.85 21.03 57.85 21.03 63.1 17.53 63.1 17.53 68.36 14.02 68.36 10.52 68.36 10.52 73.62 7.01 73.62 7.01 78.88 3.51 78.88 3.51 84.14 0 84.14 0 89.4 0 94.66 3.51 94.66 3.51 89.4 7.01 89.4 10.52 89.4 14.02 89.4 17.53 89.4 21.03 89.4 24.54 89.4 28.05 89.4 31.55 89.4 35.06 89.4 38.56 89.4 42.07 89.4 42.07 94.66 45.58 94.66 49.08 94.66 52.59 94.66 56.09 94.66 59.6 94.66 63.1 94.66 63.1 99.91 63.1 105.17 59.6 105.17 56.09 105.17 52.59 105.17 49.08 105.17 45.58 105.17 42.07 105.17 42.07 110.43 38.56 110.43 35.06 110.43 31.55 110.43 31.55 115.69 28.05 115.69 24.54 115.69 24.54 120.95 21.03 120.95 21.03 126.21 17.53 126.21 17.53 131.47 14.02 131.47 14.02 136.73 10.52 136.73 10.52 141.98 10.52 147.24 7.01 147.24 7.01 152.5 7.01 157.76 7.01 163.02 7.01 168.28 7.01 173.54 10.52 173.54 10.52 168.28 14.02 168.28 14.02 163.02 17.53 163.02 17.53 157.76 21.03 157.76 24.54 157.76 28.05 157.76 28.05 152.5 31.55 152.5 35.06 152.5 38.56 152.5 42.07 152.5 45.58 152.5 45.58 147.24 49.08 147.24 52.59 147.24 56.09 147.24 59.6 147.24 63.1 147.24 66.61 147.24 66.61 141.98 70.12 141.98 73.62 141.98 77.13 141.98 80.63 141.98 84.14 141.98 87.64 141.98 87.64 136.73 84.14 136.73 84.14 131.47 84.14 126.21 80.63 126.21 80.63 120.95 80.63 115.69 80.63 110.43 80.63 105.17 80.63 99.91 80.63 94.66 84.14 94.66 84.14 89.4 84.14 84.14 87.64 84.14 87.64 78.88 91.15 78.88 91.15 73.62 94.66 73.62 98.16 73.62 98.16 68.36 101.67 68.36 105.17 68.36 105.17 63.1 108.68 63.1 112.19 63.1 112.19 57.85 115.69 57.85 119.2 57.85 119.2 52.59 122.7 52.59 126.21 52.59 126.21 47.33 129.71 47.33 133.22 47.33 133.22 42.07 129.71 42.07"
             id="polygon31" />
        </g>
      </g>
      <g
         id="g73">
        <g
           id="g36">
          <path
             class="cls-2"
             d="M385.99,141.18c-7.26-2.03-13.06-4.38-17.42-7.04-4.35-2.66-7.45-5.05-9.29-7.18l18.58-22.06c2.81,2.52,6.84,4.96,12.12,7.33,5.27,2.37,10.96,3.56,17.05,3.56,3.87,0,6.77-.55,8.71-1.67,1.93-1.11,2.9-2.49,2.9-4.14,0-1.94-1.36-3.56-4.06-4.86-2.71-1.31-7.11-2.88-13.21-4.72-7.74-2.42-14.15-4.74-19.23-6.97-5.08-2.22-9.51-5.44-13.28-9.65-3.77-4.21-5.66-9.51-5.66-15.89,0-5.9,1.86-11.27,5.59-16.11,3.72-4.84,9.12-8.68,16.18-11.54,7.06-2.85,15.38-4.28,24.96-4.28,8.03,0,15.36.87,21.99,2.61,6.63,1.74,12.07,3.7,16.33,5.88,4.26,2.18,7.35,4.14,9.29,5.88l-18.58,21.62c-.87-.77-2.59-1.79-5.15-3.05-2.56-1.26-5.54-2.34-8.93-3.27-3.39-.92-6.82-1.38-10.31-1.38s-5.98.44-7.77,1.31c-1.79.87-2.69,2.03-2.69,3.48,0,1.74,1.28,3.17,3.85,4.28,2.56,1.11,6.7,2.49,12.41,4.14,7.74,2.23,14.25,4.48,19.52,6.75,5.27,2.27,9.89,5.59,13.86,9.94,3.97,4.35,5.95,9.87,5.95,16.54s-1.89,12.24-5.66,17.27c-3.77,5.03-9.34,9-16.69,11.9-7.35,2.9-16.11,4.35-26.27,4.35-9.48,0-17.85-1.02-25.11-3.05Z"
             id="path32" />
          <path
             class="cls-2"
             d="M514.58,140.89h-38.17V39.29h34.54l34.11,35.99h.44l34.11-35.99h33.96v101.6h-38.03v-55.15h-.58l-29.9,31.49-29.9-31.49h-.58v55.15Z"
             id="path33" />
          <path
             class="cls-2"
             d="M665.96,140.89h-39.33l43.98-101.6h44.99l43.83,101.6h-40.2l-6.68-18h-39.77l-6.82,18ZM692.52,68.17l-10.74,30.48h21.92l-10.6-30.48h-.58Z"
             id="path34" />
          <path
             class="cls-2"
             d="M810.67,140.89h-38.17V39.29h38.17v101.6Z"
             id="path35" />
          <path
             class="cls-2"
             d="M925.76,140.89h-90.42V39.29h38.17v70.39h52.25v31.21Z"
             id="path36" />
        </g>
      </g>
    </g>
  </g>
  <path
     style="font-size:46.719px;font-family:'TT Norms Pro';-inkscape-font-specification:'TT Norms Pro';white-space:pre;fill:#932727;fill-rule:evenodd;stroke-width:4.04409;stroke-miterlimit:100;paint-order:stroke fill markers"
     d="m 281.10335,170.61023 q -3.64408,0 -6.58738,-1.44829 -2.89657,-1.49501 -4.53174,-3.4572 l 2.42939,-2.33595 q 1.44829,1.63516 3.64408,2.80314 2.19579,1.12125 5.04565,1.12125 3.64409,0 5.60628,-1.68188 2.00892,-1.68189 2.00892,-4.29815 0,-1.7286 -1.02782,-2.84986 -1.02781,-1.16797 -2.56954,-1.82204 -1.54173,-0.65407 -4.15799,-1.44829 -3.27033,-1.02782 -5.27925,-1.91548 -1.9622,-0.93438 -3.36377,-2.7097 -1.40157,-1.82204 -1.40157,-4.76534 0,-2.38267 1.30813,-4.39159 1.30814,-2.05563 3.73752,-3.22361 2.42939,-1.21469 5.60628,-1.21469 3.13018,0 5.653,1.21469 2.56955,1.2147 4.06456,2.80314 l -2.38267,2.33595 q -1.2147,-1.21469 -3.08346,-2.10235 -1.86876,-0.93438 -4.25143,-0.93438 -3.36376,0 -5.27924,1.58844 -1.86876,1.58845 -1.86876,3.9244 0,1.7286 1.02781,2.89658 1.02782,1.12125 2.56955,1.77532 1.54173,0.65407 4.15799,1.44829 3.22361,0.9811 5.23253,1.91548 2.05564,0.93438 3.45721,2.75642 1.40157,1.77532 1.40157,4.71862 0,2.56954 -1.35486,4.71862 -1.35485,2.10235 -3.92439,3.36377 -2.52283,1.21469 -5.8866,1.21469 z m 17.4262,9.3438 v -32.23611 h 3.17689 v 3.87768 h 0.0467 q 0.93438,-1.68189 3.13017,-2.99002 2.1958,-1.35485 5.04566,-1.35485 2.80314,0 5.18581,1.54173 2.42938,1.495 3.87767,4.15799 1.44829,2.66298 1.44829,5.98003 0,3.31705 -1.44829,5.98003 -1.44829,2.66299 -3.87767,4.20471 -2.38267,1.49501 -5.18581,1.49501 -2.84986,0 -5.04566,-1.30813 -2.19579,-1.35485 -3.13017,-3.03674 h -0.0467 v 13.68867 z m 11.02568,-12.42725 q 2.05564,0 3.83096,-1.12126 1.77532,-1.12126 2.80314,-3.08345 1.07454,-1.9622 1.07454,-4.39159 0,-2.47611 -1.07454,-4.4383 -1.02782,-1.9622 -2.80314,-3.03674 -1.77532,-1.12126 -3.83096,-1.12126 -2.14907,0 -3.97111,1.12126 -1.77532,1.07454 -2.84986,3.03674 -1.02782,1.96219 -1.02782,4.4383 0,2.42939 1.02782,4.39159 1.07454,1.96219 2.84986,3.08345 1.82204,1.12126 3.97111,1.12126 z m 26.44295,3.08345 q -3.03673,0 -5.60628,-1.54173 -2.56954,-1.58844 -4.11127,-4.25143 -1.54173,-2.66298 -1.54173,-5.88659 0,-3.27033 1.49501,-5.93331 1.49501,-2.66299 4.01783,-4.20471 2.52283,-1.54173 5.51285,-1.54173 2.94329,0 5.32596,1.44829 2.42939,1.44829 3.83096,4.06455 1.40157,2.61627 1.40157,5.8866 0,0.7475 -0.0934,1.495 h -18.22041 q 0.2336,2.05564 1.35485,3.73752 1.12126,1.68189 2.84986,2.66299 1.77532,0.9811 3.87768,0.9811 3.87768,0 6.86769,-3.36377 l 2.1958,2.00892 q -1.49501,1.86876 -3.78424,3.17689 -2.28923,1.26141 -5.37269,1.26141 z m 7.10129,-13.22148 q -0.42047,-3.27033 -2.38267,-5.18581 -1.9622,-1.96219 -4.95221,-1.96219 -1.9622,0 -3.6908,0.98109 -1.68189,0.93438 -2.80314,2.56955 -1.07454,1.63517 -1.30814,3.59736 z m 18.54744,13.22148 q -3.03674,0 -5.653,-1.54173 -2.56954,-1.58844 -4.11127,-4.25143 -1.49501,-2.66298 -1.49501,-5.88659 0,-3.22361 1.49501,-5.88659 1.54173,-2.66299 4.11127,-4.20471 2.61626,-1.58845 5.653,-1.58845 3.08345,0 5.4194,1.40157 2.38267,1.35485 3.73752,3.17689 l -2.33595,1.91548 q -2.75642,-3.41049 -6.82097,-3.41049 -2.19579,0 -4.06455,1.12126 -1.82204,1.12126 -2.9433,3.13017 -1.07454,1.9622 -1.07454,4.34487 0,2.38267 1.07454,4.39159 1.12126,1.96219 2.9433,3.08345 1.86876,1.12126 4.06455,1.12126 2.28923,0 4.01783,-1.02782 1.72861,-1.02782 2.89658,-2.47611 l 2.33595,1.91548 q -1.35485,1.86876 -3.78424,3.27033 -2.38267,1.40157 -5.46612,1.40157 z m 17.94005,-0.46719 h -3.17689 v -22.42512 h 3.17689 z m -1.58845,-27.33062 q -0.84094,0 -1.495,-0.60734 -0.60735,-0.60735 -0.60735,-1.49501 0,-0.88766 0.60735,-1.49501 0.65406,-0.60735 1.495,-0.60735 0.88767,0 1.49501,0.60735 0.65407,0.60735 0.65407,1.49501 0,0.88766 -0.65407,1.49501 -0.60734,0.60734 -1.49501,0.60734 z m 17.23935,4.43831 q 2.56954,0 4.53174,1.12126 2.00892,1.12125 3.13017,3.13017 1.12126,1.9622 1.12126,4.53174 v 14.10914 h -3.03674 v -3.59736 h -0.0467 q -0.88766,1.54172 -2.99001,2.80314 -2.10236,1.26141 -4.81206,1.26141 -2.19579,0 -3.92439,-0.88766 -1.68189,-0.88766 -2.66299,-2.33595 -0.93438,-1.49501 -0.93438,-3.17689 0,-2.7097 1.86876,-4.53175 1.86876,-1.86876 5.27925,-2.42938 l 8.12911,-1.35485 v -0.0467 q 0,-2.52283 -1.58845,-4.06456 -1.54173,-1.54172 -4.06455,-1.54172 -1.9622,0 -3.45721,0.88766 -1.44829,0.84094 -2.80314,2.24251 l -2.10235,-2.00892 q 1.40157,-1.7286 3.55064,-2.89658 2.14907,-1.21469 4.81206,-1.21469 z m -1.77533,20.46292 q 2.05564,0 3.73752,-0.9811 1.72861,-0.9811 2.70971,-2.66298 0.9811,-1.7286 0.9811,-3.83096 v -1.58844 l -7.38161,1.21469 q -2.38267,0.42047 -3.55064,1.49501 -1.16798,1.07454 -1.16798,2.66298 0,1.54173 1.26142,2.61627 1.30813,1.07453 3.41048,1.07453 z m 21.11698,2.42939 h -3.17689 v -32.7033 h 3.17689 z m 10.97901,0 h -3.17689 v -22.42512 h 3.17689 z m -1.58845,-27.33062 q -0.84094,0 -1.49501,-0.60734 -0.60734,-0.60735 -0.60734,-1.49501 0,-0.88766 0.60734,-1.49501 0.65407,-0.60735 1.49501,-0.60735 0.88766,0 1.49501,0.60735 0.65407,0.60735 0.65407,1.49501 0,0.88766 -0.65407,1.49501 -0.60735,0.60734 -1.49501,0.60734 z m 25.55532,27.33062 h -18.08025 v -3.08345 l 13.64194,-16.25822 h -13.17475 v -3.08345 h 17.14587 v 3.08345 l -13.64195,16.25822 h 14.10914 z m 15.1837,0.46719 q -3.03674,0 -5.60628,-1.54173 -2.56955,-1.58844 -4.11127,-4.25143 -1.54173,-2.66298 -1.54173,-5.88659 0,-3.27033 1.49501,-5.93331 1.49501,-2.66299 4.01783,-4.20471 2.52283,-1.54173 5.51284,-1.54173 2.9433,0 5.32597,1.44829 2.42939,1.44829 3.83096,4.06455 1.40157,2.61627 1.40157,5.8866 0,0.7475 -0.0934,1.495 h -18.22041 q 0.23359,2.05564 1.35485,3.73752 1.12126,1.68189 2.84986,2.66299 1.77532,0.9811 3.87768,0.9811 3.87767,0 6.86769,-3.36377 l 2.19579,2.00892 q -1.495,1.86876 -3.78424,3.17689 -2.28923,1.26141 -5.37268,1.26141 z m 7.10129,-13.22148 q -0.42047,-3.27033 -2.38267,-5.18581 -1.9622,-1.96219 -4.95222,-1.96219 -1.96219,0 -3.6908,0.98109 -1.68188,0.93438 -2.80314,2.56955 -1.07453,1.63517 -1.30813,3.59736 z m 17.79992,13.22148 q -2.80314,0 -5.23253,-1.49501 -2.38267,-1.54172 -3.83096,-4.20471 -1.44829,-2.66298 -1.44829,-5.98003 0,-3.31705 1.44829,-5.98003 1.44829,-2.66299 3.83096,-4.15799 2.42939,-1.54173 5.23253,-1.54173 2.84986,0 5.04565,1.35485 2.19579,1.30813 3.13017,2.99002 h 0.0934 v -14.15586 h 3.13017 v 32.7033 h -3.13017 v -3.87768 h -0.0934 q -0.93438,1.68189 -3.13017,3.03674 -2.19579,1.30813 -5.04565,1.30813 z m 0.37375,-3.08345 q 2.14907,0 3.9244,-1.12126 1.82204,-1.12126 2.89657,-3.08345 1.07454,-1.9622 1.07454,-4.39159 0,-2.47611 -1.07454,-4.4383 -1.07453,-1.9622 -2.89657,-3.03674 -1.77533,-1.12126 -3.9244,-1.12126 -2.05564,0 -3.83096,1.12126 -1.77532,1.07454 -2.84986,3.03674 -1.02782,1.96219 -1.02782,4.4383 0,2.42939 1.02782,4.39159 1.07454,1.96219 2.84986,3.08345 1.77532,1.12126 3.83096,1.12126 z m 34.15161,2.61626 h -3.50393 v -32.7033 h 3.08346 l 13.54851,17.89338 h 0.0934 l 13.54851,-17.89338 h 2.99001 v 32.7033 h -3.50392 v -26.44295 h -0.0934 l -13.0346,17.14587 -12.98788,-17.14587 h -0.14016 z m 48.12056,0.46719 q -3.03673,0 -5.60628,-1.54173 -2.56954,-1.58844 -4.11127,-4.25143 -1.54173,-2.66298 -1.54173,-5.88659 0,-3.27033 1.49501,-5.93331 1.49501,-2.66299 4.01784,-4.20471 2.52282,-1.54173 5.51284,-1.54173 2.9433,0 5.32596,1.44829 2.42939,1.44829 3.83096,4.06455 1.40157,2.61627 1.40157,5.8866 0,0.7475 -0.0934,1.495 h -18.22041 q 0.2336,2.05564 1.35486,3.73752 1.12125,1.68189 2.84985,2.66299 1.77533,0.9811 3.87768,0.9811 3.87768,0 6.86769,-3.36377 l 2.1958,2.00892 q -1.49501,1.86876 -3.78424,3.17689 -2.28923,1.26141 -5.37269,1.26141 z m 7.10129,-13.22148 q -0.42047,-3.27033 -2.38267,-5.18581 -1.9622,-1.96219 -4.95221,-1.96219 -1.9622,0 -3.6908,0.98109 -1.68189,0.93438 -2.80314,2.56955 -1.07454,1.63517 -1.30813,3.59736 z m 17.79992,13.22148 q -2.80314,0 -5.23253,-1.49501 -2.38267,-1.54172 -3.83095,-4.20471 -1.44829,-2.66298 -1.44829,-5.98003 0,-3.31705 1.44829,-5.98003 1.44828,-2.66299 3.83095,-4.15799 2.42939,-1.54173 5.23253,-1.54173 2.84986,0 5.04565,1.35485 2.1958,1.30813 3.13018,2.99002 h 0.0934 v -14.15586 h 3.13018 v 32.7033 h -3.13018 v -3.87768 h -0.0934 q -0.93438,1.68189 -3.13018,3.03674 -2.19579,1.30813 -5.04565,1.30813 z m 0.37375,-3.08345 q 2.14908,0 3.9244,-1.12126 1.82204,-1.12126 2.89658,-3.08345 1.07453,-1.9622 1.07453,-4.39159 0,-2.47611 -1.07453,-4.4383 -1.07454,-1.9622 -2.89658,-3.03674 -1.77532,-1.12126 -3.9244,-1.12126 -2.05563,0 -3.83095,1.12126 -1.77533,1.07454 -2.84986,3.03674 -1.02782,1.96219 -1.02782,4.4383 0,2.42939 1.02782,4.39159 1.07453,1.96219 2.84986,3.08345 1.77532,1.12126 3.83095,1.12126 z m 22.05143,2.61626 h -3.17689 v -22.42512 h 3.17689 z m -1.58844,-27.33062 q -0.84095,0 -1.49501,-0.60734 -0.60735,-0.60735 -0.60735,-1.49501 0,-0.88766 0.60735,-1.49501 0.65406,-0.60735 1.49501,-0.60735 0.88766,0 1.495,0.60735 0.65407,0.60735 0.65407,1.49501 0,0.88766 -0.65407,1.49501 -0.60734,0.60734 -1.495,0.60734 z m 18.87451,27.79781 q -3.03673,0 -5.653,-1.54173 -2.56954,-1.58844 -4.11127,-4.25143 -1.49501,-2.66298 -1.49501,-5.88659 0,-3.22361 1.49501,-5.88659 1.54173,-2.66299 4.11127,-4.20471 2.61627,-1.58845 5.653,-1.58845 3.08345,0 5.4194,1.40157 2.38267,1.35485 3.73753,3.17689 l -2.33596,1.91548 q -2.75642,-3.41049 -6.82097,-3.41049 -2.19579,0 -4.06455,1.12126 -1.82204,1.12126 -2.9433,3.13017 -1.07454,1.9622 -1.07454,4.34487 0,2.38267 1.07454,4.39159 1.12126,1.96219 2.9433,3.08345 1.86876,1.12126 4.06455,1.12126 2.28923,0 4.01783,-1.02782 1.72861,-1.02782 2.89658,-2.47611 l 2.33595,1.91548 q -1.35485,1.86876 -3.78424,3.27033 -2.38267,1.40157 -5.46612,1.40157 z m 22.61194,-23.3595 q 2.56954,0 4.53174,1.12126 2.00892,1.12125 3.13017,3.13017 1.12126,1.9622 1.12126,4.53174 v 14.10914 h -3.03674 v -3.59736 h -0.0467 q -0.88766,1.54172 -2.99001,2.80314 -2.10236,1.26141 -4.81206,1.26141 -2.19579,0 -3.92439,-0.88766 -1.68189,-0.88766 -2.66299,-2.33595 -0.93438,-1.49501 -0.93438,-3.17689 0,-2.7097 1.86876,-4.53175 1.86876,-1.86876 5.27925,-2.42938 l 8.12911,-1.35485 v -0.0467 q 0,-2.52283 -1.58845,-4.06456 -1.54173,-1.54172 -4.06455,-1.54172 -1.9622,0 -3.45721,0.88766 -1.44829,0.84094 -2.80314,2.24251 l -2.10235,-2.00892 q 1.40157,-1.7286 3.55064,-2.89658 2.14907,-1.21469 4.81206,-1.21469 z m -1.77533,20.46292 q 2.05564,0 3.73752,-0.9811 1.72861,-0.9811 2.70971,-2.66298 0.9811,-1.7286 0.9811,-3.83096 v -1.58844 l -7.38161,1.21469 q -2.38267,0.42047 -3.55064,1.49501 -1.16798,1.07454 -1.16798,2.66298 0,1.54173 1.26142,2.61627 1.30813,1.07453 3.41048,1.07453 z m 21.11701,2.42939 h -3.1769 v -32.7033 h 3.1769 z m -406.64228,58.39874 h -3.59736 l 13.2682,-32.7033 h 3.87768 l 13.26819,32.7033 h -3.78424 l -3.6908,-9.1102 h -15.60415 z m 11.49288,-28.49859 -6.49394,16.11806 h 13.0346 l -6.44722,-16.11806 z m 19.99577,28.49859 v -22.42512 h 3.17689 v 3.50393 h 0.0467 q 0.88766,-1.54173 2.84986,-2.75642 2.00892,-1.2147 4.53174,-1.2147 h 1.02782 v 3.27033 q -0.65407,-0.0934 -1.30813,-0.0934 -1.9622,0 -3.59737,0.9811 -1.63516,0.9811 -2.61626,2.70971 -0.93438,1.7286 -0.93438,3.87767 v 12.14694 z m 24.3873,0.2336 q -2.9433,0 -4.57846,-1.68189 -1.58845,-1.7286 -1.58845,-4.99893 v -12.89444 h -4.34487 v -3.08346 h 2.84986 q 0.84094,0 1.30813,-0.51391 0.51391,-0.56062 0.51391,-1.63516 v -5.32597 h 2.84986 v 7.47504 h 5.51284 v 3.08346 h -5.51284 v 12.70757 q 0,1.82204 0.88766,2.80314 0.93438,0.98109 2.52283,0.98109 1.35485,0 2.84986,-0.70078 v 3.08345 q -0.56063,0.28032 -1.44829,0.46719 -0.88766,0.2336 -1.82204,0.2336 z m 11.96008,-0.2336 h -3.1769 v -22.42512 h 3.1769 z m -1.58845,-27.33061 q -0.84094,0 -1.49501,-0.60735 -0.60735,-0.60735 -0.60735,-1.49501 0,-0.88766 0.60735,-1.49501 0.65407,-0.60734 1.49501,-0.60734 0.88766,0 1.49501,0.60734 0.65406,0.60735 0.65406,1.49501 0,0.88766 -0.65406,1.49501 -0.60735,0.60735 -1.49501,0.60735 z m 11.35275,27.33061 v -19.34166 h -4.34487 v -3.08346 h 4.34487 v -4.11127 q 0,-3.22361 1.58844,-4.90549 1.63517,-1.72861 4.57847,-1.72861 0.93438,0 1.82204,0.2336 0.88766,0.18687 1.44829,0.46719 v 3.08345 q -1.54173,-0.70078 -2.84986,-0.70078 -1.58845,0 -2.52283,0.9811 -0.88766,0.98109 -0.88766,2.80314 v 3.87767 H 366.132 v 22.42512 h -3.17689 v -19.34166 h -9.99787 v 19.34166 z m 14.80992,-27.33061 q -0.88766,0 -1.54173,-0.60735 -0.60734,-0.60735 -0.60734,-1.49501 0,-0.88766 0.60734,-1.49501 0.65407,-0.60734 1.54173,-0.60734 0.84094,0 1.44829,0.60734 0.65407,0.60735 0.65407,1.49501 0,0.88766 -0.65407,1.49501 -0.60735,0.60735 -1.44829,0.60735 z m 18.87445,27.7978 q -3.03674,0 -5.653,-1.54172 -2.56954,-1.58845 -4.11127,-4.25143 -1.49501,-2.66299 -1.49501,-5.8866 0,-3.22361 1.49501,-5.88659 1.54173,-2.66298 4.11127,-4.20471 2.61626,-1.58845 5.653,-1.58845 3.08345,0 5.4194,1.40157 2.38267,1.35485 3.73752,3.17689 l -2.33595,1.91548 q -2.75642,-3.41048 -6.82097,-3.41048 -2.19579,0 -4.06455,1.12125 -1.82204,1.12126 -2.9433,3.13018 -1.07454,1.96219 -1.07454,4.34486 0,2.38267 1.07454,4.39159 1.12126,1.9622 2.9433,3.08345 1.86876,1.12126 4.06455,1.12126 2.28923,0 4.01783,-1.02782 1.72861,-1.02782 2.89658,-2.47611 l 2.33595,1.91548 q -1.35485,1.86876 -3.78424,3.27033 -2.38267,1.40157 -5.46612,1.40157 z m 17.94006,-0.46719 h -3.17689 v -22.42512 h 3.17689 z m -1.58845,-27.33061 q -0.84094,0 -1.49501,-0.60735 -0.60734,-0.60735 -0.60734,-1.49501 0,-0.88766 0.60734,-1.49501 0.65407,-0.60734 1.49501,-0.60734 0.88766,0 1.49501,0.60734 0.65407,0.60735 0.65407,1.49501 0,0.88766 -0.65407,1.49501 -0.60735,0.60735 -1.49501,0.60735 z m 17.23934,4.4383 q 2.56955,0 4.53175,1.12126 2.00891,1.12125 3.13017,3.13017 1.12126,1.9622 1.12126,4.53174 v 14.10914 h -3.03674 v -3.59736 h -0.0467 q -0.88766,1.54173 -2.99001,2.80314 -2.10236,1.26141 -4.81206,1.26141 -2.19579,0 -3.9244,-0.88766 -1.68188,-0.88766 -2.66298,-2.33595 -0.93438,-1.49501 -0.93438,-3.17689 0,-2.7097 1.86876,-4.53174 1.86876,-1.86876 5.27925,-2.42939 l 8.1291,-1.35485 v -0.0467 q 0,-2.52283 -1.58844,-4.06455 -1.54173,-1.54173 -4.06456,-1.54173 -1.96219,0 -3.4572,0.88766 -1.44829,0.84094 -2.80314,2.24251 l -2.10236,-2.00892 q 1.40157,-1.7286 3.55065,-2.89657 2.14907,-1.2147 4.81205,-1.2147 z m -1.77532,20.46293 q 2.05564,0 3.73752,-0.9811 1.72861,-0.9811 2.7097,-2.66299 0.9811,-1.7286 0.9811,-3.83096 v -1.58844 l -7.3816,1.21469 q -2.38267,0.42047 -3.55064,1.49501 -1.16798,1.07454 -1.16798,2.66298 0,1.54173 1.26142,2.61627 1.30813,1.07454 3.41048,1.07454 z m 21.11699,2.42938 h -3.17689 v -32.7033 h 3.17689 z m 23.07919,0 h -3.50393 v -32.7033 h 3.50393 z m 8.64304,0 v -22.42512 h 3.1769 v 3.59737 h 0.0467 q 0.88767,-1.58845 2.84986,-2.80314 2.00892,-1.26142 4.48503,-1.26142 2.56954,0 4.62518,1.2147 2.05563,1.21469 3.22361,3.41048 1.16797,2.1958 1.16797,5.04566 v 13.22147 h -3.17689 v -13.22147 q 0,-2.9433 -1.77532,-4.76534 -1.7286,-1.82204 -4.4383,-1.82204 -1.9622,0 -3.55065,0.9811 -1.58844,0.93438 -2.52282,2.61626 -0.93438,1.68188 -0.93438,3.78424 v 12.42725 z m 34.3852,0.2336 q -2.9433,0 -4.57846,-1.68189 -1.58845,-1.7286 -1.58845,-4.99893 v -12.89444 h -4.34487 v -3.08346 h 2.84986 q 0.84094,0 1.30813,-0.51391 0.51391,-0.56062 0.51391,-1.63516 v -5.32597 h 2.84986 v 7.47504 h 5.51284 v 3.08346 h -5.51284 v 12.70757 q 0,1.82204 0.88766,2.80314 0.93438,0.98109 2.52283,0.98109 1.35485,0 2.84986,-0.70078 v 3.08345 q -0.56063,0.28032 -1.44829,0.46719 -0.88766,0.2336 -1.82204,0.2336 z m 17.79995,0.23359 q -3.03674,0 -5.60628,-1.54172 -2.56955,-1.58845 -4.11128,-4.25143 -1.54172,-2.66299 -1.54172,-5.8866 0,-3.27033 1.495,-5.93331 1.49501,-2.66298 4.01784,-4.20471 2.52282,-1.54173 5.51284,-1.54173 2.9433,0 5.32597,1.44829 2.42939,1.44829 3.83096,4.06455 1.40157,2.61627 1.40157,5.8866 0,0.7475 -0.0934,1.49501 h -18.22041 q 0.23359,2.05563 1.35485,3.73752 1.12125,1.68188 2.84986,2.66298 1.77532,0.9811 3.87767,0.9811 3.87768,0 6.8677,-3.36377 l 2.19579,2.00892 q -1.49501,1.86876 -3.78424,3.17689 -2.28923,1.26141 -5.37268,1.26141 z M 527.406,215.7875 q -0.42047,-3.27033 -2.38267,-5.18581 -1.96219,-1.9622 -4.95221,-1.9622 -1.9622,0 -3.6908,0.9811 -1.68188,0.93438 -2.80314,2.56954 -1.07454,1.63517 -1.30813,3.59737 z m 12.24036,12.75428 h -3.17689 v -32.7033 h 3.17689 z m 10.97901,0 h -3.1769 v -32.7033 h 3.1769 z m 10.979,0 h -3.17689 v -22.42512 h 3.17689 z m -1.58845,-27.33061 q -0.84094,0 -1.495,-0.60735 -0.60735,-0.60735 -0.60735,-1.49501 0,-0.88766 0.60735,-1.49501 0.65406,-0.60734 1.495,-0.60734 0.88767,0 1.49501,0.60734 0.65407,0.60735 0.65407,1.49501 0,0.88766 -0.65407,1.49501 -0.60734,0.60735 -1.49501,0.60735 z m 18.12702,37.1416 q -3.03674,0 -5.69972,-1.495 -2.66299,-1.44829 -3.83096,-3.1769 l 2.28923,-2.10235 q 0.88766,1.35485 2.89658,2.52282 2.05563,1.16798 4.34487,1.16798 3.36376,0 5.46612,-2.33595 2.10235,-2.33595 2.10235,-5.98003 v -3.13018 h -0.0467 q -1.16797,1.9622 -3.31704,3.13018 -2.14908,1.12125 -4.53175,1.12125 -2.75642,0 -5.09237,-1.44829 -2.33595,-1.44828 -3.73752,-4.01783 -1.35485,-2.56955 -1.35485,-5.74644 0,-3.17689 1.35485,-5.74643 1.40157,-2.56955 3.73752,-4.01784 2.33595,-1.44829 5.09237,-1.44829 2.66299,0 4.76534,1.30813 2.10236,1.30814 3.08345,2.89658 h 0.0467 v -3.73752 h 3.1769 v 20.83668 q 0,3.22361 -1.40157,5.79315 -1.40157,2.61627 -3.87768,4.11128 -2.42939,1.495 -5.46612,1.495 z m 0.0467,-13.36163 q 2.10236,0 3.78424,-1.02782 1.72861,-1.07454 2.70971,-2.89658 1.02781,-1.86876 1.02781,-4.20471 0,-2.33595 -1.02781,-4.20471 -0.9811,-1.86876 -2.70971,-2.89658 -1.68188,-1.02781 -3.78424,-1.02781 -2.00891,0 -3.73752,1.02781 -1.68188,1.02782 -2.66298,2.89658 -0.9811,1.86876 -0.9811,4.20471 0,2.33595 0.9811,4.20471 0.9811,1.82204 2.66298,2.89658 1.72861,1.02782 3.73752,1.02782 z m 27.79781,4.01783 q -3.03674,0 -5.60629,-1.54172 -2.56954,-1.58845 -4.11127,-4.25143 -1.54172,-2.66299 -1.54172,-5.8866 0,-3.27033 1.495,-5.93331 1.49501,-2.66298 4.01784,-4.20471 2.52282,-1.54173 5.51284,-1.54173 2.9433,0 5.32597,1.44829 2.42938,1.44829 3.83095,4.06455 1.40157,2.61627 1.40157,5.8866 0,0.7475 -0.0934,1.49501 h -18.22041 q 0.23359,2.05563 1.35485,3.73752 1.12125,1.68188 2.84986,2.66298 1.77532,0.9811 3.87767,0.9811 3.87768,0 6.8677,-3.36377 l 2.19579,2.00892 q -1.49501,1.86876 -3.78424,3.17689 -2.28923,1.26141 -5.37268,1.26141 z m 7.10128,-13.22147 q -0.42047,-3.27033 -2.38267,-5.18581 -1.96219,-1.9622 -4.95221,-1.9622 -1.9622,0 -3.6908,0.9811 -1.68189,0.93438 -2.80314,2.56954 -1.07454,1.63517 -1.30813,3.59737 z m 8.82987,12.75428 v -22.42512 h 3.1769 v 3.59737 h 0.0467 q 0.88766,-1.58845 2.84986,-2.80314 2.00891,-1.26142 4.48502,-1.26142 2.56954,0 4.62518,1.2147 2.05564,1.21469 3.22361,3.41048 1.16798,2.1958 1.16798,5.04566 v 13.22147 h -3.1769 v -13.22147 q 0,-2.9433 -1.77532,-4.76534 -1.7286,-1.82204 -4.4383,-1.82204 -1.9622,0 -3.55065,0.9811 -1.58844,0.93438 -2.52282,2.61626 -0.93438,1.68188 -0.93438,3.78424 v 12.42725 z m 36.44085,0.46719 q -3.03673,0 -5.65299,-1.54172 -2.56955,-1.58845 -4.11128,-4.25143 -1.49501,-2.66299 -1.49501,-5.8866 0,-3.22361 1.49501,-5.88659 1.54173,-2.66298 4.11128,-4.20471 2.61626,-1.58845 5.65299,-1.58845 3.08346,0 5.41941,1.40157 2.38267,1.35485 3.73752,3.17689 l -2.33595,1.91548 q -2.75642,-3.41048 -6.82098,-3.41048 -2.19579,0 -4.06455,1.12125 -1.82204,1.12126 -2.9433,3.13018 -1.07453,1.96219 -1.07453,4.34486 0,2.38267 1.07453,4.39159 1.12126,1.9622 2.9433,3.08345 1.86876,1.12126 4.06455,1.12126 2.28924,0 4.01784,-1.02782 1.7286,-1.02782 2.89658,-2.47611 l 2.33595,1.91548 q -1.35485,1.86876 -3.78424,3.27033 -2.38267,1.40157 -5.46613,1.40157 z m 23.77991,0 q -3.03673,0 -5.60628,-1.54172 -2.56954,-1.58845 -4.11127,-4.25143 -1.54173,-2.66299 -1.54173,-5.8866 0,-3.27033 1.49501,-5.93331 1.49501,-2.66298 4.01783,-4.20471 2.52283,-1.54173 5.51285,-1.54173 2.94329,0 5.32596,1.44829 2.42939,1.44829 3.83096,4.06455 1.40157,2.61627 1.40157,5.8866 0,0.7475 -0.0934,1.49501 h -18.22041 q 0.2336,2.05563 1.35485,3.73752 1.12126,1.68188 2.84986,2.66298 1.77532,0.9811 3.87768,0.9811 3.87768,0 6.86769,-3.36377 l 2.1958,2.00892 q -1.49501,1.86876 -3.78424,3.17689 -2.28923,1.26141 -5.37269,1.26141 z m 7.10129,-13.22147 q -0.42047,-3.27033 -2.38267,-5.18581 -1.9622,-1.9622 -4.95221,-1.9622 -1.9622,0 -3.6908,0.9811 -1.68189,0.93438 -2.80314,2.56954 -1.07454,1.63517 -1.30814,3.59737 z m 41.15941,12.75428 h -20.32276 v -32.7033 h 3.50392 v 29.38625 h 16.81884 z m 12.70762,-22.89231 q 2.56955,0 4.53174,1.12126 2.00892,1.12125 3.13018,3.13017 1.12125,1.9622 1.12125,4.53174 v 14.10914 h -3.03673 v -3.59736 h -0.0467 q -0.88766,1.54173 -2.99002,2.80314 -2.10235,1.26141 -4.81205,1.26141 -2.1958,0 -3.9244,-0.88766 -1.68188,-0.88766 -2.66298,-2.33595 -0.93438,-1.49501 -0.93438,-3.17689 0,-2.7097 1.86876,-4.53174 1.86876,-1.86876 5.27924,-2.42939 l 8.12911,-1.35485 v -0.0467 q 0,-2.52283 -1.58845,-4.06455 -1.54172,-1.54173 -4.06455,-1.54173 -1.9622,0 -3.4572,0.88766 -1.44829,0.84094 -2.80314,2.24251 l -2.10236,-2.00892 q 1.40157,-1.7286 3.55064,-2.89657 2.14908,-1.2147 4.81206,-1.2147 z m -1.77532,20.46293 q 2.05564,0 3.73752,-0.9811 1.7286,-0.9811 2.7097,-2.66299 0.9811,-1.7286 0.9811,-3.83096 v -1.58844 l -7.3816,1.21469 q -2.38267,0.42047 -3.55065,1.49501 -1.16797,1.07454 -1.16797,2.66298 0,1.54173 1.26141,2.61627 1.30813,1.07454 3.41049,1.07454 z m 29.33952,2.89657 q -2.80314,0 -5.04566,-1.35485 -2.19579,-1.35485 -3.13017,-2.99001 h -0.0467 v 3.87767 h -3.17689 v -32.7033 h 3.17689 v 14.15586 h 0.0467 q 0.93438,-1.63517 3.13017,-2.99002 2.24252,-1.35485 5.04566,-1.35485 2.80314,0 5.1858,1.54173 2.42939,1.49501 3.87768,4.15799 1.44829,2.66298 1.44829,5.98003 0,3.31705 -1.44829,5.98004 -1.44829,2.66298 -3.87768,4.20471 -2.38266,1.495 -5.1858,1.495 z m -0.37376,-3.08345 q 2.05564,0 3.83096,-1.12126 1.77532,-1.12125 2.80314,-3.08345 1.07454,-1.9622 1.07454,-4.39159 0,-2.4761 -1.07454,-4.4383 -1.02782,-1.9622 -2.80314,-3.03674 -1.77532,-1.12125 -3.83096,-1.12125 -2.14907,0 -3.97111,1.12125 -1.77532,1.07454 -2.84986,3.03674 -1.02782,1.9622 -1.02782,4.4383 0,2.42939 1.02782,4.39159 1.07454,1.9622 2.84986,3.08345 1.82204,1.12126 3.97111,1.12126 z"
     id="text74"
     transform="matrix(0.98073271,0,0,0.98577113,99.01956,41.481366)"
     aria-label="Specialized Medical Artificial Intelligence Lab" />
  <text
     xml:space="preserve"
     id="text75"
     style="font-style:normal;font-variant:normal;font-weight:normal;font-stretch:normal;font-size:46.6667px;font-family:'TT Norms Pro';-inkscape-font-specification:'TT Norms Pro';text-align:start;writing-mode:lr-tb;direction:ltr;white-space:pre;shape-inside:url(#rect75);display:inline;fill:#cc3333;fill-rule:evenodd;stroke-width:4.04409;stroke-miterlimit:100;paint-order:stroke fill markers" />
</svg>
