<?xml version="1.0" encoding="UTF-8"?>
<svg id="Layer_2" data-name="Layer 2" xmlns="http://www.w3.org/2000/svg" viewBox="0 0 198.43 73.1">
  <defs>
    <style>
      .cls-1 {
        fill: #fff;
      }
    </style>
  </defs>
  <g id="Layer_1-2" data-name="Layer 1">
    <g>
      <path class="cls-1" d="M193.85,73.1v-30.88h-5.87v30.88h5.87ZM198.43,7.82V2.11c-3.14.1-6.22,1-8.97,2.7l-7.04,4.37V0h-5.71v9.17l-7.04-4.37c-2.75-1.7-5.82-2.6-8.97-2.7v5.71c2.09.1,4.13.71,5.96,1.84l8.68,5.38-8.68,5.38c-1.83,1.13-3.87,1.74-5.96,1.84v5.71c3.14-.1,6.22-1,8.97-2.7l7.04-4.37v6.3c0,2.97-1.07,5.88-3.16,7.99l-.05.05-7.46,7.46c-3.44,3.44-5.34,8.02-5.34,12.89v17.5h5.72v-11.34h10.29v11.34h5.71V20.91l7.04,4.37c2.74,1.7,5.82,2.6,8.97,2.7v-5.71c-2.09-.1-4.13-.71-5.96-1.84l-8.68-5.38,8.68-5.38c1.83-1.13,3.87-1.75,5.96-1.84ZM176.7,56.05h-10.29v-.44c0-3.34,1.3-6.48,3.66-8.85l6.63-6.63v15.92ZM186.81,35.44l3.99,3.99,3.99-3.99-3.99-3.99-3.99,3.99Z"/>
      <g>
        <rect class="cls-1" x="143.21" y="20.63" width="3" height="17.63"/>
        <rect class="cls-1" x="84.89" y="21.25" width="3" height="3" transform="translate(9.21 67.75) rotate(-45)"/>
        <path class="cls-1" d="M125.57,58.9v-11.64h-6.8c-2.55,0-4.96.99-6.76,2.8l-3.92,3.92c-.08.08-.17.16-.26.24v-6.95h-3v8.49c-.45.1-.91.15-1.38.15h-4.61v-8.64h-7.61c-2.55,0-4.96.99-6.76,2.8l-3.37,3.37v-12.17h-3v14.26c-.7.25-1.43.38-2.19.38h-3.8v-8.64h-3v8.64h-6v-14.64h-3v17.63h15.79c2.55,0,4.96-.99,6.76-2.8l.16-.16v2.96h20.62c2.55,0,4.96-.99,6.76-2.8l.15-.15v2.95h15.21ZM86.59,52.18c1.24-1.24,2.89-1.92,4.64-1.92h4.61v5.64h-12.97l3.72-3.72ZM114.13,52.18c1.24-1.24,2.89-1.92,4.64-1.92h3.8v5.64h-12.16l3.72-3.72Z"/>
        <rect class="cls-1" x="143.21" y="41.27" width="3" height="17.63"/>
        <rect class="cls-1" x="69.11" y="41.89" width="3" height="3" transform="translate(-10 62.64) rotate(-45)"/>
        <rect class="cls-1" x="23.95" y="55.28" width="3" height="3" transform="translate(-32.7 34.63) rotate(-45)"/>
        <rect class="cls-1" x="28.19" y="55.28" width="3" height="3" transform="translate(-31.45 37.63) rotate(-45)"/>
        <path class="cls-1" d="M30.02,52.18l3.92,3.92c1.81,1.81,4.21,2.8,6.76,2.8h16.42v-3h-15.97l3.72-3.72c1.24-1.24,2.89-1.92,4.64-1.92h7.61v-3h-7.61c-2.55,0-4.96.99-6.76,2.8l-3.92,3.92c-.42.42-.88.77-1.38,1.06-.5-.29-.97-.64-1.39-1.06l-3.92-3.92c-1.81-1.81-4.21-2.8-6.76-2.8h-6.8v8.64H4.59l.73-.73c1.23-1.23,2.9-1.92,4.64-1.92h5.62v-3h-5.62c-2.54,0-4.97,1.01-6.76,2.8l-3.2,3.2v2.65h1.59l.1-.1v.1h19.88v-8.64h3.8c1.75,0,3.4.68,4.64,1.92Z"/>
        <path class="cls-1" d="M140.19,58.9c-.14-2.33-1.11-4.51-2.78-6.18l-.9-.9.9-.9c1.81-1.81,2.8-4.21,2.8-6.76v-2.9h-3v2.9c0,1.75-.68,3.4-1.92,4.64l-.9.9-.9-.9c-1.24-1.24-1.92-2.89-1.92-4.64v-2.9h-3v2.9c0,2.55.99,4.96,2.8,6.76l.9.9-.9.9c-1.67,1.67-2.64,3.84-2.78,6.18h11.6ZM132.65,55.9c.25-.38.52-.73.84-1.06l.9-.9.9.9c.32.32.6.68.84,1.06h-3.48Z"/>
        <path class="cls-1" d="M23.18,14.83l.17-.17v2.97h15.19V6h-6.8c-2.55,0-4.96.99-6.76,2.8l-3.92,3.92c-1.24,1.24-2.89,1.92-4.64,1.92H0v3h16.42c2.55,0,4.96-.99,6.76-2.8ZM27.1,10.92c1.24-1.24,2.89-1.92,4.64-1.92h3.8v5.64h-12.16l3.72-3.72Z"/>
        <path class="cls-1" d="M138.6,8.99h7.61v-3h-7.61c-2.55,0-4.96.99-6.76,2.8l-3.92,3.92c-.19.19-.38.35-.58.51-.06.05-.12.09-.19.14-.15.11-.31.22-.47.31-.07.04-.13.08-.2.12-.21.12-.42.22-.64.32-.02,0-.03.02-.05.02-.23.1-.48.18-.72.25-.58.16-1.18.25-1.8.25H44.54V0h-3v17.63h104.67v-3h-15.97l3.72-3.72c1.24-1.24,2.89-1.92,4.64-1.92Z"/>
        <path class="cls-1" d="M84.27,38.27h55.95v-17.63h-3v14.64h-30.02c-.62,0-1.22-.09-1.8-.25-.24-.07-.49-.15-.72-.25-.02,0-.03-.02-.05-.02-.22-.09-.43-.2-.64-.32-.07-.04-.13-.08-.2-.12-.16-.1-.32-.2-.47-.31-.06-.05-.12-.09-.19-.14-.2-.16-.4-.33-.58-.51l-3.92-3.92c-1.81-1.81-4.21-2.8-6.76-2.8h-7.61v3h7.61c1.75,0,3.4.68,4.64,1.92l3.72,3.72h-15.97v3Z"/>
        <path class="cls-1" d="M19.23,35.27h-8.61l3.72-3.72c1.24-1.24,2.89-1.92,4.64-1.92h.25v-3h-.25c-2.55,0-4.96.99-6.76,2.8l-3.92,3.92c-.82.82-2.13,1.92-3.29,1.92h0s-5.02,0-5.02,0v3h19.23v-3Z"/>
        <path class="cls-1" d="M75.94,34.54l.73.73H25.23v-14.64h-3v17.63h57.43s1.59,0,1.59,0v-2.65l-3.2-3.2c-1.79-1.79-4.23-2.8-6.76-2.8h-28.38l1.07-1.07c1.24-1.24,2.89-1.92,4.64-1.92h29.47v-3h-29.47c-2.55,0-4.96.99-6.76,2.8l-3.19,3.19h0v3h32.62c1.74,0,3.41.69,4.64,1.92Z"/>
        <g>
          <path class="cls-1" d="M3.71,68.85h-1.34v4.17h-1.03v-4.17H0v-.88h3.71v.88Z"/>
          <path class="cls-1" d="M7.43,73.02v-2.13h-2v2.13h-1.03v-5.05h1.03v2.04h2v-2.04h1.03v5.05h-1.03Z"/>
          <path class="cls-1" d="M12.65,72.14v.88h-3.14v-5.05h3.14v.88h-2.11v1.17h1.8v.88h-1.8v1.24h2.11Z"/>
          <path class="cls-1" d="M16.82,73.02h-1.03v-2.02c-.82-1.18-1.38-2.19-1.67-3.03h1.06c.27.72.65,1.45,1.13,2.19.47-.71.84-1.44,1.12-2.19h1.06c-.32.87-.88,1.88-1.67,3.03v2.02Z"/>
          <path class="cls-1" d="M22.19,72.14v.88h-3.14v-5.05h3.14v.88h-2.11v1.17h1.8v.88h-1.8v1.24h2.11Z"/>
          <path class="cls-1" d="M26.15,73.02l-.3-1.11h-1.86c-.1.34-.2.71-.3,1.11h-1.06c.58-2.11,1.16-3.79,1.75-5.05h1.07c.61,1.29,1.2,2.98,1.76,5.05h-1.06ZM24.91,69.07c-.17.37-.4,1.03-.68,1.96h1.35c-.29-.97-.51-1.62-.67-1.96Z"/>
          <path class="cls-1" d="M29.18,71.14h-.31v1.87h-1.04v-5.05h1.49c.62,0,1.11.13,1.46.39.35.26.53.63.53,1.11,0,.73-.33,1.18-1,1.35.22.09.42.31.6.67l.74,1.53h-1.11l-.69-1.43c-.08-.16-.17-.27-.27-.34-.1-.07-.23-.1-.39-.1ZM29.27,68.85h-.4v1.43h.4c.65,0,.98-.24.98-.72,0-.26-.08-.44-.25-.55-.16-.11-.41-.16-.74-.16Z"/>
          <path class="cls-1" d="M37.77,68.6c.4.48.61,1.11.61,1.89s-.2,1.41-.61,1.89c-.4.48-.96.72-1.67.72s-1.27-.24-1.68-.72c-.41-.48-.61-1.11-.61-1.89s.2-1.41.61-1.89c.4-.48.96-.72,1.68-.72s1.27.24,1.67.72ZM35.18,69.25c-.21.3-.31.72-.31,1.25s.1.94.31,1.25c.21.3.51.45.91.45s.69-.15.9-.45c.21-.3.31-.72.31-1.25s-.1-.94-.31-1.25c-.21-.3-.51-.45-.9-.45s-.7.15-.91.45Z"/>
          <path class="cls-1" d="M40.23,73.02h-1.03v-5.05h3.07v.88h-2.04v1.37h1.72v.88h-1.72v1.92Z"/>
          <path class="cls-1" d="M47.86,73.02l-.3-1.11h-1.86c-.1.34-.2.71-.3,1.11h-1.06c.58-2.11,1.16-3.79,1.75-5.05h1.07c.61,1.29,1.2,2.98,1.76,5.05h-1.06ZM46.63,69.07c-.17.37-.4,1.03-.68,1.96h1.35c-.29-.97-.51-1.62-.67-1.96Z"/>
          <path class="cls-1" d="M50.9,71.14h-.31v1.87h-1.04v-5.05h1.49c.62,0,1.11.13,1.46.39.35.26.53.63.53,1.11,0,.73-.33,1.18-1,1.35.22.09.42.31.6.67l.74,1.53h-1.11l-.69-1.43c-.08-.16-.17-.27-.27-.34-.1-.07-.23-.1-.39-.1ZM50.98,68.85h-.4v1.43h.4c.65,0,.98-.24.98-.72,0-.26-.08-.44-.25-.55-.16-.11-.41-.16-.74-.16Z"/>
          <path class="cls-1" d="M56.97,68.85h-1.34v4.17h-1.03v-4.17h-1.34v-.88h3.71v.88Z"/>
          <path class="cls-1" d="M57.65,73.02v-5.05h1.03v5.05h-1.03Z"/>
          <path class="cls-1" d="M60.75,73.02h-1.03v-5.05h3.07v.88h-2.04v1.37h1.72v.88h-1.72v1.92Z"/>
          <path class="cls-1" d="M63.59,73.02v-5.05h1.03v5.05h-1.03Z"/>
          <path class="cls-1" d="M67.82,73.1c-.75,0-1.34-.23-1.75-.7-.41-.46-.62-1.09-.62-1.88s.21-1.44.62-1.93c.42-.48,1.01-.72,1.79-.72.41,0,.81.09,1.22.26l-.23.87c-.43-.15-.75-.22-.98-.22-.9,0-1.36.58-1.36,1.73s.45,1.67,1.35,1.67c.34,0,.69-.09,1.06-.28l.2.89c-.38.2-.81.3-1.31.3Z"/>
          <path class="cls-1" d="M69.88,73.02v-5.05h1.03v5.05h-1.03Z"/>
          <path class="cls-1" d="M75.06,73.02l-.3-1.11h-1.86c-.1.34-.2.71-.3,1.11h-1.06c.58-2.11,1.16-3.79,1.75-5.05h1.07c.61,1.29,1.2,2.98,1.76,5.05h-1.06ZM73.83,69.07c-.17.37-.4,1.03-.68,1.96h1.35c-.29-.97-.51-1.62-.67-1.96Z"/>
          <path class="cls-1" d="M76.75,73.02v-5.05h1.03v4.17h2.04v.88h-3.07Z"/>
          <path class="cls-1" d="M82.27,73.02v-5.05h1.03v5.05h-1.03Z"/>
          <path class="cls-1" d="M85.29,73.02h-.95v-5.05h1c.62,1.19,1.35,2.39,2.2,3.61-.02-.17-.03-.38-.03-.63v-2.98h.95v5.05h-1c-.48-.64-.88-1.21-1.21-1.69-.33-.49-.65-1.03-.98-1.62.02.25.03.54.03.86v2.46Z"/>
          <path class="cls-1" d="M92.84,68.85h-1.34v4.17h-1.03v-4.17h-1.34v-.88h3.71v.88Z"/>
          <path class="cls-1" d="M96.67,72.14v.88h-3.14v-5.05h3.14v.88h-2.11v1.17h1.8v.88h-1.8v1.24h2.11Z"/>
          <path class="cls-1" d="M97.52,73.02v-5.05h1.03v4.17h2.04v.88h-3.07Z"/>
          <path class="cls-1" d="M101.18,73.02v-5.05h1.03v4.17h2.04v.88h-3.07Z"/>
          <path class="cls-1" d="M105.02,73.02v-5.05h1.03v5.05h-1.03Z"/>
          <path class="cls-1" d="M110.96,72.71c-.51.26-1.05.4-1.59.4-.78,0-1.39-.23-1.83-.7-.44-.46-.66-1.08-.66-1.86s.23-1.44.68-1.93c.45-.49,1.07-.74,1.85-.74.51,0,.97.09,1.37.26l-.23.87c-.35-.14-.73-.22-1.12-.22-.49,0-.85.16-1.1.47s-.38.74-.38,1.29c0,.52.13.92.38,1.21.25.29.61.43,1.09.43.2,0,.41-.02.61-.07v-1.12h-.83v-.85h1.77v2.55Z"/>
          <path class="cls-1" d="M115.01,72.14v.88h-3.14v-5.05h3.14v.88h-2.11v1.17h1.8v.88h-1.8v1.24h2.11Z"/>
          <path class="cls-1" d="M116.81,73.02h-.95v-5.05h1c.62,1.19,1.35,2.39,2.2,3.61-.02-.17-.03-.38-.03-.63v-2.98h.95v5.05h-1c-.48-.64-.88-1.21-1.21-1.69-.33-.49-.65-1.03-.98-1.62.02.25.03.54.03.86v2.46Z"/>
          <path class="cls-1" d="M123.17,73.1c-.75,0-1.34-.23-1.75-.7-.41-.46-.62-1.09-.62-1.88s.21-1.44.62-1.93c.42-.48,1.01-.72,1.79-.72.41,0,.81.09,1.22.26l-.23.87c-.43-.15-.75-.22-.98-.22-.9,0-1.36.58-1.36,1.73s.45,1.67,1.35,1.67c.34,0,.69-.09,1.06-.28l.2.89c-.38.2-.81.3-1.31.3Z"/>
          <path class="cls-1" d="M128.37,72.14v.88h-3.14v-5.05h3.14v.88h-2.11v1.17h1.8v.88h-1.8v1.24h2.11Z"/>
          <path class="cls-1" d="M133.9,73.02h-3.27v-.84l.76-.72c.45-.42.77-.77.96-1.03.19-.26.28-.53.28-.81,0-.44-.22-.66-.67-.66-.29,0-.61.12-.94.36l-.44-.71c.42-.34.92-.51,1.51-.51.5,0,.89.13,1.17.38s.41.6.41,1.05-.14.85-.43,1.26c-.29.41-.69.83-1.19,1.28l-.11.1h1.98v.86Z"/>
          <path class="cls-1" d="M136.41,73.1c-.34,0-.63-.07-.88-.2s-.45-.31-.59-.55c-.15-.23-.26-.5-.33-.79-.07-.29-.11-.61-.11-.96s.04-.67.11-.97c.07-.29.18-.56.33-.8s.35-.42.59-.56c.25-.13.54-.2.88-.2.44,0,.81.12,1.1.35.29.24.5.53.61.9.12.36.18.78.18,1.27,0,.36-.03.68-.1.97-.07.29-.18.55-.32.79s-.34.41-.59.54c-.25.13-.54.19-.87.19ZM136.41,72.24c.57,0,.85-.54.85-1.63s-.28-1.65-.85-1.65-.87.55-.87,1.65.29,1.63.87,1.63Z"/>
          <path class="cls-1" d="M142,73.02h-3.27v-.84l.76-.72c.45-.42.77-.77.96-1.03.19-.26.28-.53.28-.81,0-.44-.22-.66-.67-.66-.29,0-.61.12-.94.36l-.44-.71c.42-.34.92-.51,1.51-.51.5,0,.89.13,1.17.38s.41.6.41,1.05-.14.85-.43,1.26c-.29.41-.69.83-1.19,1.28l-.11.1h1.98v.86Z"/>
          <path class="cls-1" d="M146.21,71.39c0,.53-.15.95-.46,1.25-.31.31-.72.46-1.26.46-.59,0-1.05-.21-1.38-.64-.34-.43-.5-.97-.5-1.62,0-.37.04-.72.13-1.05.09-.32.22-.62.39-.87.17-.26.4-.46.7-.61.29-.15.62-.22,1-.22s.66.04.91.12l-.19.81c-.23-.05-.44-.08-.63-.08-.71,0-1.13.42-1.25,1.25.32-.2.68-.3,1.07-.3.46,0,.82.14,1.08.41.26.28.4.64.4,1.08ZM144.5,72.24c.22,0,.39-.07.51-.21.12-.14.18-.33.18-.56,0-.47-.26-.7-.77-.7-.24,0-.5.07-.8.22.02.39.1.7.25.92.15.22.36.34.63.34Z"/>
        </g>
      </g>
    </g>
  </g>
</svg>