<svg width="103" height="27" viewBox="0 0 103 27" fill="none" xmlns="http://www.w3.org/2000/svg">
<path d="M26.7961 8.2449C26.7188 8.15762 26.6307 8.07376 26.5348 7.99674C26.3635 7.85982 26.1766 7.752 25.9779 7.67071C25.4308 7.44822 24.8435 7.50812 24.5665 7.54149C23.7395 7.6399 22.2812 7.88464 20.4352 8.30309C20.1152 8.36299 19.7912 8.42461 19.4721 8.48451C20.4323 8.7147 21.3915 8.9466 22.3516 9.17765H22.3546C23.8364 9.63547 25.0823 10.6444 25.6637 12.0349C26.0464 12.9437 26.0914 13.8884 25.8536 14.763C25.8272 14.8683 25.6539 14.8683 25.6314 14.7604C25.6089 14.6526 25.5766 14.5431 25.5316 14.4335C25.4513 14.2444 25.3417 14.0733 25.2096 13.9235C24.8396 13.5042 24.2856 13.3211 24.0233 13.2398C23.2384 12.9925 21.8153 12.6237 19.9537 12.2506C19.3537 12.1077 18.7537 11.9648 18.1528 11.8201C17.8181 12.3644 17.3629 12.8453 16.8217 13.2364C15.6736 13.9518 14.5295 14.668 13.3834 15.3843V15.7479H12.6973V16.1981H12.0111V16.6482H10.9815V17.0983H10.638V17.5484H9.95186V17.9985H9.26576V18.8979H8.9232V19.7981H8.57966V18.8979H8.23612V17.9985H7.89355V15.7479H8.23612V14.8486H8.57966V14.3985H8.9232V13.9483H9.26576V13.4982H9.95186V13.0481H10.638V12.5989H11.3241V12.1487H12.0111V11.6986H12.6973V11.2485H13.3755V11.0654C14.368 10.4998 15.2048 9.9846 15.8488 9.5653C16.1679 9.3565 16.439 9.1708 16.6602 9.01592C16.6602 9.01592 16.6615 9.01506 16.6641 9.01335C16.7062 8.97912 16.7493 8.94917 16.7894 8.92007C17.0028 8.76519 17.4501 8.42717 17.6341 7.92229C17.6977 7.74002 17.7339 7.54492 17.7339 7.34553C17.7339 7.01436 17.6624 6.69774 17.498 6.42562C17.4951 6.42562 17.4951 6.42391 17.4951 6.42391C17.3727 6.29897 17.2543 6.19029 17.1437 6.09616C17.0292 5.99519 16.9254 5.91389 16.8354 5.84629C16.8315 5.84287 16.8276 5.84116 16.8227 5.83773C16.7923 5.81805 16.76 5.79837 16.7287 5.77869L16.7091 5.92759C16.4165 6.10814 16.1229 6.28785 15.8283 6.46926C15.796 6.48552 15.7656 6.50178 15.7333 6.51975C14.9484 7.00666 14.1664 7.497 13.3834 7.98647V8.10029H12.6973V8.5504H12.0111V9.00051H11.3241V9.45063H10.9815V9.90074H10.2954V10.35H9.6093V10.8001H9.26576V11.2502H8.9232V12.1505H8.57966V11.7003H8.23612V10.8001H7.89355V8.10029H8.23612V7.20091H8.57966V6.7508H8.9232V6.30068H9.6093V5.85057H10.2954V5.40046H10.9815V4.95034H11.6676V4.50108H12.3537V4.05097H13.0408V3.60086H13.3834V3.72066C13.3882 3.71723 13.3922 3.71296 13.398 3.7121C13.7817 3.46736 14.1938 3.19524 14.6313 2.89916C15.7911 2.18034 16.9529 1.45811 18.1127 0.739293C18.6216 0.476584 19.7031 0.0102111 21.0988 0.0461517C21.8671 0.0658335 22.474 0.230134 22.7373 0.311428C23.7708 0.626337 24.6253 1.18427 25.2507 1.88683C25.3309 1.97753 25.2115 2.09905 25.096 2.04514C24.9962 1.99722 24.8876 1.95529 24.777 1.92191C24.0713 1.70798 23.3245 1.82607 22.7637 2.18377C21.6097 2.89659 20.4558 3.60856 19.3048 4.32138C18.8448 4.60548 18.3877 4.88958 17.9277 5.17112C18.9329 4.98457 19.94 4.79631 20.9442 4.60976C20.9442 4.60976 20.9442 4.61062 20.9471 4.61062C22.5004 4.41808 24.1388 4.81257 25.3887 5.81292C26.205 6.46413 26.7423 7.28477 26.9958 8.15762C27.0261 8.26287 26.8734 8.33219 26.7971 8.2449H26.7961Z" fill="#CC3333"/>
<path d="M16.8343 5.84635C16.7932 5.87374 16.7501 5.90026 16.708 5.92679L16.7276 5.77789C16.7589 5.79757 16.7912 5.81726 16.8215 5.83694C16.8264 5.84036 16.8304 5.84207 16.8343 5.8455V5.84635Z" fill="#CC3333"/>
<path d="M17.7328 7.34736C17.7328 7.5476 17.6966 7.74185 17.6329 7.92412C17.4489 8.429 17.0017 8.76616 16.7883 8.9219C16.7482 8.95014 16.7061 8.98095 16.663 9.01518C16.663 9.01518 16.6617 9.01603 16.6591 9.01774C16.525 9.04085 16.3929 9.06567 16.2607 9.09134L16.708 5.92941L16.7276 5.78052C16.7589 5.8002 16.7912 5.81988 16.8216 5.83956C16.8265 5.84299 16.8304 5.8447 16.8343 5.84812C16.9243 5.91572 17.0281 5.99787 17.1426 6.09799C17.2522 6.19212 17.3716 6.3008 17.494 6.42574C17.494 6.42574 17.494 6.42745 17.4969 6.42745C17.6623 6.69957 17.7328 7.01619 17.7328 7.34736Z" fill="#CC3333"/>
<path d="M17.7333 7.34732C17.7333 7.54756 17.6971 7.74181 17.6335 7.92409C17.4495 8.42897 17.0022 8.76612 16.7889 8.92187C16.7487 8.95011 16.7066 8.98091 16.6636 9.01514C16.6636 9.01514 16.6623 9.016 16.6597 9.01771C16.4385 9.1726 16.1674 9.35829 15.8483 9.56709C15.0271 9.05279 14.204 8.54021 13.3828 8.02763V7.98741C14.1648 7.49793 14.9478 7.00845 15.7328 6.52069C15.7651 6.50357 15.7954 6.48646 15.8277 6.4702C16.1223 6.28878 16.416 6.10823 16.7086 5.92852L16.8349 5.84808C16.8858 5.88659 16.9523 5.93708 17.0267 5.99955C17.0815 6.0449 17.1216 6.07999 17.1432 6.09881C17.2528 6.19294 17.3722 6.30162 17.4945 6.42656C17.4945 6.42656 17.4945 6.42827 17.4975 6.42827C17.6629 6.70039 17.7333 7.01701 17.7333 7.34818V7.34732Z" fill="#932727"/>
<path d="M18.8031 24.2771C18.8031 25.244 18.4733 26.1434 17.9066 26.8964C17.887 26.9247 17.8567 26.9384 17.8264 26.9409C17.8136 26.9418 17.8029 26.9418 17.7911 26.9409C17.7353 26.9298 17.6844 26.8862 17.6991 26.8254C17.7206 26.7176 17.7314 26.6055 17.7314 26.4908C17.7314 25.837 17.3585 25.2594 16.7879 24.9137C15.6516 24.2043 14.5162 23.4958 13.3809 22.7872C13.3779 22.7864 13.376 22.7838 13.373 22.7829V22.7513C13.373 22.7513 13.3779 22.7479 13.3809 22.747C14.527 22.0299 15.6721 21.3154 16.8173 20.6L16.8182 20.5991C17.2685 20.9346 18.1278 21.6731 18.5477 22.8377C18.7806 23.4769 18.8012 24.0332 18.8012 24.2771H18.8031Z" fill="#932727"/>
<path d="M17.4824 20.0275C17.4911 20.0189 17.4998 20.0087 17.5086 20.0001C17.4998 20.0087 17.4921 20.0189 17.4834 20.0275H17.4824Z" fill="#932727"/>
<path d="M17.6406 19.859C17.6406 19.859 17.6435 19.8564 17.6445 19.8555C17.6435 19.8564 17.6435 19.8581 17.6416 19.8598C17.6289 19.8718 17.6162 19.8863 17.6025 19.9C17.6162 19.8855 17.6289 19.8726 17.6396 19.8581L17.6406 19.859Z" fill="#932727"/>
<path d="M17.7333 14.7074C17.7333 14.9094 17.6971 15.1028 17.6325 15.2842C17.4515 15.7891 17.0022 16.1271 16.7879 16.2837C16.5442 16.4617 16.2163 16.6868 15.8179 16.946C15.0056 16.4403 14.1942 15.9329 13.3838 15.428V15.3852C14.5299 14.6681 15.6731 13.9527 16.8221 13.2382C16.9973 13.3674 17.2322 13.5582 17.4799 13.8098C17.4808 13.8098 17.4808 13.8106 17.4808 13.8106C17.6423 14.0776 17.7343 14.3823 17.7343 14.7066L17.7333 14.7074Z" fill="#932727"/>
<path d="M18.2656 18.9861C18.2783 18.9639 18.291 18.9416 18.3027 18.9185C18.292 18.9416 18.2793 18.9647 18.2666 18.987C18.2637 18.9878 18.2627 18.9904 18.2627 18.9913C18.2637 18.9887 18.2637 18.9878 18.2656 18.9861Z" fill="#932727"/>
<path d="M18.5498 15.4768C18.5556 15.4939 18.5625 15.511 18.5664 15.5247C18.5556 15.4905 18.541 15.4571 18.5293 15.4246C18.5381 15.4408 18.5459 15.4596 18.5508 15.4768H18.5498Z" fill="#932727"/>
<path d="M18.6338 15.73C18.6562 15.8087 18.6758 15.8883 18.6953 15.9679C18.6767 15.8883 18.6553 15.8087 18.6328 15.73C18.6299 15.7206 18.627 15.7112 18.624 15.7018C18.6279 15.7103 18.6299 15.7206 18.6338 15.73Z" fill="#932727"/>
<path d="M18.7324 17.6837C18.7363 17.6666 18.7402 17.6486 18.7421 17.6298C18.7392 17.6469 18.7373 17.6657 18.7334 17.6837C18.7324 17.6914 18.7305 17.6999 18.7285 17.7076C18.7295 17.6991 18.7314 17.6914 18.7324 17.6837Z" fill="#932727"/>
<path d="M18.7512 17.5767C18.7562 17.5485 18.7602 17.5211 18.7642 17.4929C18.7612 17.5211 18.7582 17.5485 18.7532 17.5767C18.7502 17.5938 18.7472 17.6118 18.7432 17.6306C18.7472 17.6118 18.7492 17.5947 18.7522 17.5767H18.7512Z" fill="#932727"/>
<path d="M18.7899 17.2404C18.7908 17.2336 18.7927 17.2276 18.7927 17.2208C18.7918 17.2276 18.7918 17.2336 18.7918 17.2404C18.7908 17.2576 18.789 17.2764 18.7871 17.2944C18.788 17.2772 18.7899 17.2584 18.7908 17.2404H18.7899Z" fill="#932727"/>
<path d="M18.7997 17.1086C18.7987 17.1258 18.7968 17.1437 18.7968 17.16C18.7958 17.1728 18.7939 17.1874 18.793 17.2002C18.7939 17.1857 18.7939 17.1728 18.7958 17.16C18.7968 17.1437 18.7987 17.1258 18.7997 17.1086Z" fill="#932727"/>
<path d="M13.3828 18.4496V18.4623C13.3828 18.4623 13.3776 18.4587 13.3745 18.4578V18.4496H13.3828Z" fill="#CC3333"/>
<path d="M17.4707 13.7961C17.5099 13.8355 17.5441 13.8766 17.5803 13.9177C17.547 13.8809 17.5128 13.8466 17.4795 13.8115C17.4795 13.8115 17.4795 13.8107 17.4785 13.8107C17.4756 13.8056 17.4736 13.8021 17.4707 13.7961Z" fill="#CC3333"/>
<path d="M17.6817 19.8139C17.6878 19.8061 17.6948 19.7991 17.7009 19.793C17.6948 19.8008 17.6898 19.8078 17.6827 19.8139C17.6817 19.8147 17.6797 19.8165 17.6797 19.8174C17.6797 19.8174 17.6807 19.8165 17.6807 19.8139H17.6817Z" fill="#CC3333"/>
<path d="M17.7163 19.7726C17.7202 19.7683 17.7251 19.764 17.73 19.7581C17.7261 19.7632 17.7222 19.7675 17.7173 19.7726C17.7114 19.7794 17.7065 19.7854 17.6997 19.7923C17.7046 19.7854 17.7104 19.7794 17.7163 19.7726Z" fill="#CC3333"/>
<path d="M17.7417 14.0973C17.8171 14.1846 17.8875 14.2736 17.9541 14.3651C17.9414 14.3489 17.9286 14.3326 17.9149 14.3164C17.8572 14.2411 17.8004 14.1675 17.7417 14.0981V14.0973Z" fill="#CC3333"/>
<path d="M18.0285 19.3652C18.0431 19.343 18.0598 19.3207 18.0745 19.2976C18.0598 19.3207 18.0441 19.3438 18.0294 19.3661C18.0099 19.3952 17.9893 19.4251 17.9668 19.4542C17.9864 19.4251 18.0079 19.3952 18.0285 19.3644V19.3652Z" fill="#CC3333"/>
<path d="M18.1479 19.1846C18.1558 19.1726 18.1626 19.1607 18.1704 19.1487C18.1645 19.1607 18.1567 19.1726 18.1489 19.1846C18.1362 19.2052 18.1226 19.2248 18.1089 19.2445C18.1226 19.2248 18.1352 19.2052 18.1479 19.1846Z" fill="#CC3333"/>
<path d="M18.2573 18.999C18.2573 18.999 18.2602 18.9964 18.2602 18.9955C18.2602 18.9964 18.2602 18.9981 18.2593 18.999C18.2407 19.0298 18.2231 19.0614 18.2046 19.0922C18.2231 19.0614 18.2407 19.0298 18.2583 18.999H18.2573Z" fill="#CC3333"/>
<path d="M18.5288 18.411C18.5474 18.3606 18.5659 18.3109 18.5835 18.2604C18.5669 18.3118 18.5483 18.3623 18.5298 18.4128C18.5259 18.4222 18.522 18.4316 18.519 18.4401C18.5229 18.4316 18.5249 18.4213 18.5288 18.4119V18.411Z" fill="#CC3333"/>
<path d="M18.6318 18.1064C18.6621 18.0037 18.6875 17.8985 18.7119 17.7932C18.6894 17.8985 18.6631 18.0029 18.6318 18.1064Z" fill="#CC3333"/>
<path d="M18.8036 16.9195V16.9263C18.8036 16.9486 18.8036 16.97 18.8027 16.9922V16.8074C18.8036 16.8442 18.8036 16.8818 18.8036 16.9203V16.9195Z" fill="#CC3333"/>
<path d="M9.26493 19.7998H8.92139V20.2499H9.26493V19.7998Z" fill="#CC3333"/>
<path d="M18.8027 16.8074V16.9922C18.8027 17.0153 18.8027 17.0367 18.8017 17.0581C18.8017 17.0744 18.8007 17.0923 18.8007 17.1094C18.7997 17.1266 18.7978 17.1445 18.7968 17.1608C18.7958 17.1736 18.7958 17.1873 18.7939 17.201C18.7929 17.2079 18.7929 17.2138 18.7929 17.2207C18.7929 17.2275 18.7919 17.2335 18.79 17.2404C18.789 17.2575 18.787 17.2763 18.786 17.2943C18.7831 17.3328 18.7802 17.3704 18.7753 17.409C18.7723 17.4372 18.7694 17.4654 18.7645 17.4928C18.7606 17.5211 18.7567 17.5484 18.7518 17.5767C18.7489 17.5938 18.7469 17.6118 18.743 17.6306C18.74 17.6494 18.7371 17.6665 18.7332 17.6845C18.7322 17.6922 18.7303 17.6999 18.7293 17.7085C18.7244 17.735 18.7195 17.7607 18.7126 17.7872V17.794C18.6892 17.9001 18.6627 18.0045 18.6324 18.1072C18.6177 18.1586 18.6011 18.2108 18.5834 18.2613C18.5658 18.3117 18.5472 18.3614 18.5286 18.4119C18.5247 18.4221 18.5228 18.4315 18.5188 18.4401C18.5159 18.4495 18.513 18.4589 18.5091 18.4675C18.5032 18.4846 18.4954 18.5026 18.4895 18.5197C18.4768 18.5514 18.464 18.5822 18.4494 18.613C18.4043 18.7165 18.3574 18.8192 18.3035 18.9193C18.2908 18.9424 18.2781 18.9655 18.2663 18.9869C18.2654 18.9895 18.2654 18.9903 18.2634 18.9921H18.2624C18.2624 18.9921 18.2624 18.9955 18.2614 18.9963C18.2614 18.9972 18.2605 18.9989 18.2585 18.9998C18.2409 19.0306 18.2233 19.0622 18.2047 19.093C18.1939 19.1119 18.1822 19.1315 18.1714 19.1495C18.1636 19.1615 18.1567 19.1735 18.1489 19.1854C18.1362 19.206 18.1234 19.2257 18.1097 19.2453C18.0999 19.2625 18.0882 19.2804 18.0765 19.2975C18.0618 19.3207 18.0451 19.3438 18.0305 19.3652C18.0109 19.396 17.9893 19.4251 17.9688 19.455C17.9492 19.4841 17.9267 19.514 17.9042 19.5431C17.8601 19.5996 17.8151 19.657 17.7691 19.7134C17.7603 19.7237 17.7515 19.7331 17.7437 19.7425C17.7398 19.7477 17.7358 19.7528 17.731 19.7579C17.7261 19.7631 17.7212 19.7673 17.7173 19.7725C17.7124 19.7793 17.7065 19.7853 17.7006 19.7922C17.6947 19.799 17.6879 19.805 17.682 19.8127C17.682 19.8153 17.681 19.8161 17.681 19.8161C17.6683 19.8281 17.6585 19.8409 17.6478 19.8521C17.6478 19.8529 17.6468 19.8546 17.6448 19.8555C17.6438 19.8563 17.6419 19.8581 17.6409 19.8589C17.6301 19.8735 17.6174 19.8863 17.6037 19.9008C17.5724 19.9351 17.5411 19.9676 17.5098 20.0001C17.5009 20.0087 17.4921 20.0189 17.4833 20.0275C17.4804 20.0301 17.4775 20.0326 17.4755 20.0352C17.4745 20.036 17.4726 20.036 17.4726 20.0378H17.4716C17.3718 20.1404 17.269 20.238 17.1603 20.3304C17.0517 20.4228 16.9391 20.5127 16.8207 20.5983H16.8197V20.6008C15.6736 21.3162 14.5285 22.0307 13.3834 22.7479C13.3804 22.7487 13.3785 22.7513 13.3755 22.7521V22.7838C13.3755 22.7838 13.3804 22.7872 13.3834 22.7881V22.9507H12.6973V23.4008H12.0111V23.85H11.3241V24.3001H10.638V24.7503H9.95186V25.2004H9.6093V25.6505H9.26576V26.1006H8.9232V27H8.57966V26.5499H8.23612V25.6505H7.89355V23.4008H8.23612V22.5005H8.57966V22.0504H8.9232V21.6003H9.26576V21.1502H9.6093V20.7009H10.2954V20.2508H10.9815V19.8007H11.6676V19.3506H12.3537V18.9005H13.0398V18.4504H13.3755V18.4581C13.3755 18.4581 13.3804 18.4615 13.3834 18.4624V18.4504H13.3755V18.4273C13.7416 18.2185 14.0871 18.0165 14.4081 17.8231C14.9454 17.5022 15.4182 17.2079 15.8175 16.9469C16.2159 16.6876 16.5437 16.4625 16.7874 16.2845C17.0028 16.1271 17.451 15.7899 17.6321 15.285C17.6967 15.1036 17.7329 14.9102 17.7329 14.7083C17.7329 14.3839 17.6409 14.0793 17.4794 13.8123C17.5127 13.8474 17.547 13.8808 17.5802 13.9184C17.5841 13.9218 17.5881 13.9253 17.59 13.9278C17.5959 13.9347 17.6037 13.9407 17.6096 13.9484C17.6155 13.9561 17.6233 13.9638 17.6292 13.9706C17.6438 13.9877 17.6595 14.0049 17.6742 14.022C17.6957 14.0468 17.7182 14.0725 17.7407 14.0981C17.7995 14.1683 17.8572 14.241 17.914 14.3163C17.9277 14.3326 17.9404 14.3489 17.9531 14.3651C18.0011 14.431 18.0451 14.496 18.0902 14.5636C18.1078 14.591 18.1254 14.6184 18.1411 14.6467C18.1489 14.6578 18.1548 14.6698 18.1626 14.6809C18.1626 14.6809 18.1629 14.6817 18.1636 14.6834C18.1636 14.6834 18.1685 14.6877 18.1694 14.6912C18.2047 14.7493 18.237 14.8067 18.2702 14.8657C18.2986 14.9196 18.328 14.9735 18.3544 15.0283C18.3867 15.0925 18.4171 15.1584 18.4454 15.2243C18.4601 15.2568 18.4738 15.2902 18.4875 15.3227C18.5003 15.3569 18.514 15.3903 18.5267 15.4245C18.5394 15.457 18.5531 15.4913 18.5639 15.5246C18.5746 15.5572 18.5874 15.5922 18.5991 15.6273C18.6069 15.6521 18.6138 15.6778 18.6216 15.7018C18.6246 15.7112 18.6275 15.7206 18.6304 15.73C18.6529 15.8087 18.6745 15.8883 18.6931 15.9679C18.7479 16.2084 18.7841 16.4548 18.7958 16.7073C18.7968 16.7398 18.7997 16.7731 18.8007 16.8065L18.8027 16.8074Z" fill="#CC3333"/>
<path d="M13.3828 18.4496V18.4623C13.3828 18.4623 13.3776 18.4587 13.3745 18.4578V18.4496H13.3828Z" fill="#CC3333"/>
<path d="M13.3818 22.7469V22.7872C13.3818 22.7872 13.3772 22.7837 13.3745 22.7829V22.7512C13.3745 22.7512 13.379 22.7478 13.3818 22.7469Z" fill="#CC3333"/>
<path d="M13.039 18.4495V18.8996H12.3529V19.3498H11.6668V19.7999H10.9807V20.25H10.2946V20.701H9.60847V20.25H9.26493V19.7999H8.92236V18.8996H9.26493V18.0003H9.95103V17.5502H10.6371V17.1H11.3232V17.5502H12.0103V18.0003H12.6964V18.4495H13.039Z" fill="#932727"/>
<path d="M13.039 10.8001V11.2502H12.6964V11.7004H12.0103V12.1505H11.3232V12.6006H10.6371V13.0498H9.26493V12.6006H8.92236V11.2502H9.26493V10.8001H9.60847V10.3492H10.2946V9.90076H11.6668V10.3492H12.3529V10.8001H13.039Z" fill="#932727"/>
<path d="M12.6953 3.60006V3.14994H12.3528H12.0092V2.69983H11.6667H11.3231V2.24972H10.9806H10.637V1.80046H10.2935H9.95093V1.35034H9.60739H9.26483V0.900228H8.92129H8.57775V0.450114H8.23519H7.89165H7.54908H7.20554V0H6.86298H6.51944H6.1759H5.83334H5.4898H5.14724H4.8037H4.46113H4.11759V0.450114H3.77405H3.43149H3.08795V0.900228H2.74539H2.40185H2.05831V1.35034H1.71575V1.80046H2.05831H2.40185H2.74539H3.08795H3.43149H3.77405V2.24972H4.11759H4.46113V2.69983H4.8037H5.14724V3.14994H5.4898H5.83334V3.60006H6.1759H6.51944V4.05017H6.86298H7.20554V4.50029H7.54908H7.89165V4.9504H7.54908H7.20554H6.86298H6.51944V4.50029H6.1759H5.83334H5.4898H5.14724H4.8037H4.46113H4.11759H3.77405H3.43149V4.9504H3.08795H2.74539H2.40185H2.05831V5.39966H1.71575V5.84977H1.37221H1.02964V6.29989H0.686103V6.75H0.343541V7.20012H0V7.65023V8.10034H0.343541V7.65023H0.686103H1.02964H1.37221H1.71575H2.05831H2.40185H2.74539H3.08795H3.43149H3.77405H4.11759V8.10034H4.46113H4.8037H5.14724H5.4898H5.83334H6.1759V8.5496V8.99972H5.83334H5.4898H5.14724H4.8037H4.46113H4.11759V9.44983H3.77405H3.43149H3.08795V9.89995H2.74539H2.40185V10.3501H2.05831V10.8002H1.71575V11.2503H1.37221V11.7004H1.02964V12.1497V12.5998H0.686103V13.0499V13.5V13.9501V14.4002V14.8503H1.02964V14.4002H1.37221V13.9501H1.71575V13.5H2.05831H2.40185H2.74539V13.0499H3.08795H3.43149H3.77405H4.11759H4.46113V12.5998H4.8037H5.14724H5.4898H5.83334H6.1759H6.51944V12.1497H6.86298H7.20554H7.54908H7.89165H8.23519H8.57775V11.7004H8.23519V11.2503V10.8002H7.89165V10.3501V9.89995V9.44983V8.99972V8.5496V8.10034H8.23519V7.65023V7.20012H8.57775V6.75H8.92129V6.29989H9.26483H9.60739V5.84977H9.95093H10.2935V5.39966H10.637H10.9806V4.9504H11.3231H11.6667V4.50029H12.0092H12.3528V4.05017H12.6953H13.0389V3.60006H12.6953Z" fill="#932727"/>
<path d="M37.2534 18.6361C36.3691 18.3923 35.6626 18.1101 35.1316 17.7907C34.6017 17.4712 34.2241 17.1842 34 16.9284L36.2631 14.2792C36.6054 14.5818 37.0963 14.8748 37.7394 15.1594C38.3813 15.4441 39.0744 15.587 39.8162 15.587C40.2876 15.587 40.6408 15.5209 40.8771 15.3864C41.1122 15.2531 41.2303 15.0874 41.2303 14.8892C41.2303 14.6563 41.0647 14.4617 40.7358 14.3056C40.4057 14.1483 39.8698 13.9597 39.1268 13.7388C38.184 13.4481 37.4032 13.1695 36.7845 12.9017C36.1657 12.6351 35.6261 12.2484 35.1669 11.7428C34.7077 11.2372 34.4775 10.6007 34.4775 9.83455C34.4775 9.126 34.704 8.48111 35.1584 7.89986C35.6115 7.31861 36.2692 6.85746 37.1292 6.514C37.9891 6.17173 39.0025 6 40.1694 6C41.1475 6 42.0403 6.10448 42.8479 6.31344C43.6555 6.5224 44.3181 6.75778 44.837 7.01958C45.3559 7.28139 45.7322 7.51677 45.9685 7.72573L43.7054 10.3221C43.5994 10.2297 43.3899 10.1072 43.0781 9.95584C42.7663 9.80453 42.4033 9.67483 41.9904 9.56314C41.5775 9.45266 41.1597 9.39741 40.7346 9.39741C40.3095 9.39741 40.0062 9.45025 39.7882 9.55473C39.5701 9.65921 39.4605 9.79852 39.4605 9.97266C39.4605 10.1816 39.6164 10.3533 39.9295 10.4867C40.2413 10.62 40.7456 10.7857 41.4411 10.9838C42.3838 11.2516 43.1768 11.5218 43.8187 11.7945C44.4606 12.0671 45.0233 12.4658 45.5069 12.9882C45.9905 13.5106 46.2316 14.1735 46.2316 14.9745C46.2316 15.7755 46.0014 16.4444 45.5422 17.0485C45.083 17.6526 44.4046 18.1293 43.5093 18.4776C42.614 18.8259 41.547 19 40.3095 19C39.1548 19 38.1353 18.8775 37.251 18.6337L37.2534 18.6361Z" fill="#CC3333"/>
<path d="M52.9164 18.6013H48.2671V6.3999H52.4742L56.629 10.722H56.6826L60.8373 6.3999H64.9738V18.6013H60.3416V11.9782H60.271L56.629 15.7599L52.987 11.9782H52.9164V18.6013Z" fill="#CC3333"/>
<path d="M71.355 18.6013H66.5645L71.9214 6.3999H77.4014L82.7401 18.6013H77.8436L77.0299 16.4396H72.1857L71.355 18.6013ZM74.5902 9.86817L73.282 13.5286H75.952L74.6608 9.86817H74.5902Z" fill="#CC3333"/>
<path d="M88.9813 18.6013H84.332V6.3999H88.9813V18.6013Z" fill="#CC3333"/>
<path d="M103 18.6013H91.9863V6.3999H96.6356V14.8532H103V18.6013Z" fill="#CC3333"/>
</svg>
