<?xml version="1.0" encoding="UTF-8" standalone="no"?>
<svg
   id="Layer_2"
   data-name="Layer 2"
   viewBox="0 0 925.76 315.52"
   version="1.1"
   sodipodi:docname="SMAIL Colored.svg"
   inkscape:version="1.4.2 (f4327f4, 2025-05-13)"
   xmlns:inkscape="http://www.inkscape.org/namespaces/inkscape"
   xmlns:sodipodi="http://sodipodi.sourceforge.net/DTD/sodipodi-0.dtd"
   xmlns="http://www.w3.org/2000/svg"
   xmlns:svg="http://www.w3.org/2000/svg">
  <sodipodi:namedview
     id="namedview74"
     pagecolor="#ffffff"
     bordercolor="#000000"
     borderopacity="0.25"
     inkscape:showpageshadow="2"
     inkscape:pageopacity="0.0"
     inkscape:pagecheckerboard="0"
     inkscape:deskcolor="#d1d1d1"
     inkscape:zoom="0.70892905"
     inkscape:cx="703.17332"
     inkscape:cy="164.33238"
     inkscape:window-width="1920"
     inkscape:window-height="986"
     inkscape:window-x="-11"
     inkscape:window-y="-11"
     inkscape:window-maximized="1"
     inkscape:current-layer="Layer_2" />
  <defs
     id="defs1">
    <rect
       x="577.48731"
       y="325.12666"
       width="67.824877"
       height="73.773534"
       id="rect75" />
    <rect
       x="267.6025"
       y="129.62866"
       width="569.18759"
       height="220.57384"
       id="rect74" />
    <style
       id="style1">
      .cls-1 {
        fill: #932727;
      }

      .cls-2 {
        fill: #c33;
      }
    </style>
  </defs>
  <g
     id="Layer_1-2"
     data-name="Layer 1">
    <g
       id="g74">
      <g
         id="g32">
        <path
           class="cls-2"
           d="M273.78,96.35c-.79-1.02-1.69-2-2.67-2.9-1.75-1.6-3.66-2.86-5.69-3.81-5.59-2.6-11.59-1.9-14.42-1.51-8.45,1.15-23.35,4.01-42.21,8.9-3.27.7-6.58,1.42-9.84,2.12,9.81,2.69,19.61,5.4,29.42,8.1h.03c15.14,5.35,27.87,17.14,33.81,33.39,3.91,10.62,4.37,21.66,1.94,31.88-.27,1.23-2.04,1.23-2.27-.03-.23-1.26-.56-2.54-1.02-3.82-.82-2.21-1.94-4.21-3.29-5.96-3.78-4.9-9.44-7.04-12.12-7.99-8.02-2.89-22.56-7.2-41.58-11.56-6.13-1.67-12.26-3.34-18.4-5.03-3.42,6.36-8.07,11.98-13.6,16.55h0c-11.73,8.36-23.42,16.73-35.13,25.1v4.25h-7.01v5.26h-7.01v5.26h-10.52v5.26h-3.51v5.26h-7.01v5.26h-7.01v10.51h-3.5v10.52h-3.51v-10.52h-3.51v-10.51h-3.5v-26.3h3.5v-10.51h3.51v-5.26h3.51v-5.26h3.5v-5.26h7.01v-5.26h7.01v-5.25h7.01v-5.26h7.02v-5.26h7.01v-5.26h6.93v-2.14c10.14-6.61,18.69-12.63,25.27-17.53,3.26-2.44,6.03-4.61,8.29-6.42t.04-.03c.43-.4.87-.75,1.28-1.09,2.18-1.81,6.75-5.76,8.63-11.66.65-2.13,1.02-4.41,1.02-6.74,0-3.87-.73-7.57-2.41-10.75-.03,0-.03-.02-.03-.02-1.25-1.46-2.46-2.73-3.59-3.83-1.17-1.18-2.23-2.13-3.15-2.92-.04-.04-.08-.06-.13-.1-.31-.23-.64-.46-.96-.69l-.2,1.74c-2.99,2.11-5.99,4.21-9,6.33-.33.19-.64.38-.97.59-8.02,5.69-16.01,11.42-24.01,17.14v1.33h-7.01v5.26h-7.01v5.26h-7.02v5.26h-3.5v5.26h-7.01v5.25h-7.01v5.26h-3.51v5.26h-3.5v10.52h-3.51v-5.26h-3.51v-10.52h-3.5v-31.55h3.5v-10.51h3.51v-5.26h3.51v-5.26h7.01v-5.26h7.01v-5.26h7.01v-5.26h7.01v-5.25h7.01v-5.26h7.02v-5.26h3.5v1.4c.05-.04.09-.09.15-.1,3.92-2.86,8.13-6.04,12.6-9.5,11.85-8.4,23.72-16.84,35.57-25.24,5.2-3.07,16.25-8.52,30.51-8.1,7.85.23,14.05,2.15,16.74,3.1,10.56,3.68,19.29,10.2,25.68,18.41.82,1.06-.4,2.48-1.58,1.85-1.02-.56-2.13-1.05-3.26-1.44-7.21-2.5-14.84-1.12-20.57,3.06-11.79,8.33-23.58,16.65-35.34,24.98-4.7,3.32-9.37,6.64-14.07,9.93,10.27-2.18,20.56-4.38,30.82-6.56h0s0,.01.03.01c15.87-2.25,32.61,2.36,45.38,14.05,8.34,7.61,13.83,17.2,16.42,27.4.31,1.23-1.25,2.04-2.03,1.02Z"
           id="path1" />
        <path
           class="cls-2"
           d="M172,68.32c-.42.32-.86.63-1.29.94l.2-1.74c.32.23.65.46.96.69.05.04.09.06.13.1Z"
           id="path2" />
        <path
           class="cls-2"
           d="M181.18,85.86c0,2.34-.37,4.61-1.02,6.74-1.88,5.9-6.45,9.84-8.63,11.66-.41.33-.84.69-1.28,1.09t-.04.03c-1.37.27-2.72.56-4.07.86l4.57-36.95.2-1.74c.32.23.65.46.96.69.05.04.09.06.13.1.92.79,1.98,1.75,3.15,2.92,1.12,1.1,2.34,2.37,3.59,3.83,0,0,0,.02.03.02,1.69,3.18,2.41,6.88,2.41,10.75Z"
           id="path3" />
        <path
           class="cls-1"
           d="M181.18,85.86c0,2.34-.37,4.61-1.02,6.74-1.88,5.9-6.45,9.84-8.63,11.66-.41.33-.84.69-1.28,1.09t-.04.03c-2.26,1.81-5.03,3.98-8.29,6.42-8.39-6.01-16.8-12-25.19-17.99v-.47c7.99-5.72,15.99-11.44,24.01-17.14.33-.2.64-.4.97-.59,3.01-2.12,6.01-4.23,9-6.33l1.29-.94c.52.45,1.2,1.04,1.96,1.77.56.53.97.94,1.19,1.16,1.12,1.1,2.34,2.37,3.59,3.83,0,0,0,.02.03.02,1.69,3.18,2.41,6.88,2.41,10.75Z"
           id="path4" />
        <path
           class="cls-1"
           d="M192.12,283.7c0,11.3-3.37,21.81-9.16,30.61-.2.33-.51.49-.82.52-.13.01-.24.01-.36,0-.57-.13-1.09-.64-.94-1.35.22-1.26.33-2.57.33-3.91,0-7.64-3.81-14.39-9.64-18.43-11.61-8.29-23.21-16.57-34.81-24.85-.03-.01-.05-.04-.08-.05v-.37s.05-.04.08-.05c11.71-8.38,23.41-16.73,35.11-25.09h0s.01-.01.01-.01c4.6,3.92,13.38,12.55,17.67,26.16,2.38,7.47,2.59,13.97,2.59,16.82Z"
           id="path5" />
        <path
           class="cls-1"
           d="M178.62,234.04c.09-.1.18-.22.27-.32-.09.1-.17.22-.26.32h-.01Z"
           id="path6" />
        <path
           class="cls-1"
           d="M180.23,232.07s.03-.03.04-.04c-.01.01-.01.03-.03.05-.13.14-.26.31-.4.47.14-.17.27-.32.38-.49Z"
           id="path7" />
        <path
           class="cls-1"
           d="M181.18,171.87c0,2.36-.37,4.62-1.03,6.74-1.85,5.9-6.44,9.85-8.63,11.68-2.49,2.08-5.84,4.71-9.91,7.74-8.3-5.91-16.59-11.84-24.87-17.74v-.5c11.71-8.38,23.39-16.74,35.13-25.09,1.79,1.51,4.19,3.74,6.72,6.68.01,0,.01.01.01.01,1.65,3.12,2.59,6.68,2.59,10.47Z"
           id="path8" />
        <path
           class="cls-1"
           d="M186.62,221.87c.13-.26.26-.52.38-.79-.11.27-.24.54-.37.8-.03.01-.04.04-.04.05.01-.03.01-.04.03-.06Z"
           id="path9" />
        <path
           class="cls-1"
           d="M189.53,180.86c.06.2.13.4.17.56-.11-.4-.26-.79-.38-1.17.09.19.17.41.22.61Z"
           id="path10" />
        <path
           class="cls-1"
           d="M190.38,183.82c.23.92.43,1.85.63,2.78-.19-.93-.41-1.86-.64-2.78-.03-.11-.06-.22-.09-.33.04.1.06.22.1.33Z"
           id="path11" />
        <path
           class="cls-1"
           d="M191.39,206.65c.04-.2.08-.41.1-.63-.03.2-.05.42-.09.63-.01.09-.03.19-.05.28.01-.1.03-.19.04-.28Z"
           id="path12" />
        <path
           class="cls-1"
           d="M191.58,205.4c.05-.33.09-.65.13-.98-.03.33-.06.65-.11.98-.03.2-.06.41-.1.63.04-.22.06-.42.09-.63Z"
           id="path13" />
        <path
           class="cls-1"
           d="M191.98,201.47c.01-.08.03-.15.03-.23-.01.08-.01.15-.01.23-.01.2-.03.42-.05.63.01-.2.03-.42.04-.63Z"
           id="path14" />
        <path
           class="cls-1"
           d="M192.08,199.93c-.01.2-.03.41-.03.6-.01.15-.03.32-.04.47.01-.17.01-.32.03-.47.01-.19.03-.4.04-.6Z"
           id="path15" />
        <path
           class="cls-2"
           d="M136.73,215.6v.14s-.05-.04-.08-.05v-.09h.08Z"
           id="path16" />
        <path
           class="cls-2"
           d="M178.5,161.22c.4.46.75.94,1.12,1.42-.34-.43-.69-.83-1.03-1.24,0,0,0-.01-.01-.01-.03-.06-.05-.1-.08-.17Z"
           id="path17" />
        <path
           class="cls-2"
           d="M180.65,231.54c.06-.09.13-.17.19-.24-.06.09-.11.17-.18.24-.01.01-.03.03-.03.04,0,0,.01-.01.01-.04Z"
           id="path18" />
        <path
           class="cls-2"
           d="M181.01,231.06c.04-.05.09-.1.14-.17-.04.06-.08.11-.13.17-.06.08-.11.15-.18.23.05-.08.11-.15.17-.23Z"
           id="path19" />
        <path
           class="cls-2"
           d="M181.27,164.74c.77,1.02,1.49,2.06,2.17,3.13-.13-.19-.26-.38-.4-.57-.59-.88-1.17-1.74-1.77-2.55Z"
           id="path20" />
        <path
           class="cls-2"
           d="M184.2,226.3c.15-.26.32-.52.47-.79-.15.27-.31.54-.46.8-.2.34-.41.69-.64,1.03.2-.34.42-.69.63-1.05Z"
           id="path21" />
        <path
           class="cls-2"
           d="M185.42,224.19c.08-.14.15-.28.23-.42-.06.14-.14.28-.22.42-.13.24-.27.47-.41.7.14-.23.27-.46.4-.7Z"
           id="path22" />
        <path
           class="cls-2"
           d="M186.54,222.02s.03-.03.03-.04c0,.01,0,.03-.01.04-.19.36-.37.73-.56,1.09.19-.36.37-.73.55-1.09Z"
           id="path23" />
        <path
           class="cls-2"
           d="M189.31,215.15c.19-.59.38-1.17.56-1.76-.17.6-.36,1.19-.55,1.78-.04.11-.08.22-.11.32.04-.1.06-.22.1-.33Z"
           id="path24" />
        <path
           class="cls-2"
           d="M190.37,211.59c.31-1.2.57-2.43.82-3.66-.23,1.23-.5,2.45-.82,3.66Z"
           id="path25" />
        <path
           class="cls-2"
           d="M192.12,197.72v.08c0,.26,0,.51-.01.77v-2.16c.01.43.01.87.01,1.32Z"
           id="path26" />
        <g
           id="g29">
          <rect
             class="cls-2"
             x="91.15"
             y="231.38"
             width="3.51"
             height="5.26"
             id="rect26" />
          <path
             class="cls-2"
             d="M192.11,196.41v2.16c0,.27,0,.52-.01.77,0,.19-.01.4-.01.6-.01.2-.03.41-.04.6-.01.15-.01.31-.03.47-.01.08-.01.15-.01.23s-.01.15-.03.23c-.01.2-.03.42-.04.63-.03.45-.06.89-.11,1.34-.03.33-.06.66-.11.98-.04.33-.08.65-.13.98-.03.2-.05.41-.09.63-.03.22-.06.42-.1.63-.01.09-.03.18-.04.28-.05.31-.1.61-.17.92v.08c-.24,1.24-.51,2.46-.82,3.66-.15.6-.32,1.21-.5,1.8s-.37,1.17-.56,1.76c-.04.12-.06.23-.1.33-.03.11-.06.22-.1.32-.06.2-.14.41-.2.61h0c-.13.37-.26.73-.41,1.09-.46,1.21-.94,2.41-1.49,3.58-.13.27-.26.54-.38.79-.01.03-.01.04-.03.06h-.01s0,.04-.01.05c0,.01-.01.03-.03.04-.18.36-.36.73-.55,1.09-.11.22-.23.45-.34.66-.08.14-.15.28-.23.42-.13.24-.26.47-.4.7-.1.2-.22.41-.34.61-.15.27-.32.54-.47.79-.2.36-.42.7-.63,1.05-.2.34-.43.69-.66,1.03-.45.66-.91,1.33-1.38,1.99-.09.12-.18.23-.26.34-.04.06-.08.12-.13.18-.05.06-.1.11-.14.17-.05.08-.11.15-.17.23-.06.08-.13.15-.19.24,0,.03-.01.04-.01.04h0c-.13.14-.23.29-.34.42,0,.01-.01.03-.03.04-.01.01-.03.03-.04.04-.11.17-.24.32-.38.49-.32.4-.64.78-.96,1.16-.09.1-.18.22-.27.32-.03.03-.06.06-.08.09-.01.01-.03.01-.03.03h-.01c-1.02,1.2-2.07,2.34-3.18,3.42s-2.26,2.13-3.47,3.13h-.01v.03c-11.71,8.36-23.41,16.71-35.11,25.09-.03.01-.05.04-.08.05v.37s.05.04.08.05v1.9h-7.01v5.26h-7.01v5.25h-7.02v5.26h-7.01v5.26h-7.01v5.26h-3.5v5.26h-3.51v5.26h-3.5v10.51h-3.51v-5.26h-3.51v-10.51h-3.5v-26.29h3.5v-10.52h3.51v-5.26h3.51v-5.26h3.5v-5.26h3.51v-5.25h7.01v-5.26h7.01v-5.26h7.01v-5.26h7.01v-5.26h7.01v-5.26h3.43v.09s.05.04.08.05v-.14h-.08v-.27c3.74-2.44,7.27-4.8,10.55-7.06,5.49-3.75,10.32-7.19,14.4-10.24,4.07-3.03,7.42-5.66,9.91-7.74,2.2-1.84,6.78-5.78,8.63-11.68.66-2.12,1.03-4.38,1.03-6.74,0-3.79-.94-7.35-2.59-10.47.34.41.69.8,1.03,1.24.04.04.08.08.1.11.06.08.14.15.2.24.06.09.14.18.2.26.15.2.31.4.46.6.22.29.45.59.68.89.6.82,1.19,1.67,1.77,2.55.14.19.27.38.4.57.49.77.94,1.53,1.4,2.32.18.32.36.64.52.97.08.13.14.27.22.4t.01.03s.05.05.06.09h0c.36.68.69,1.35,1.03,2.04.29.63.59,1.26.86,1.9.33.75.64,1.52.93,2.29.15.38.29.77.43,1.15.13.4.27.79.4,1.19.13.38.27.78.38,1.17.11.38.24.79.36,1.2h0c.08.29.15.59.23.87.03.11.06.22.09.33.23.92.45,1.85.64,2.78.56,2.81.93,5.69,1.05,8.64.01.38.04.77.05,1.16Z"
             id="path27" />
          <path
             class="cls-2"
             d="M136.73,215.6v.14s-.05-.04-.08-.05v-.09h.08Z"
             id="path28" />
          <path
             class="cls-2"
             d="M136.73,265.82v.47s-.05-.04-.08-.05v-.37s.05-.04.08-.05Z"
             id="path29" />
        </g>
        <g
           id="g31">
          <polygon
             class="cls-1"
             points="133.22 215.6 133.22 220.86 126.21 220.86 126.21 226.12 119.2 226.12 119.2 231.38 112.19 231.38 112.19 236.64 105.18 236.64 105.18 241.91 98.17 241.91 98.17 236.64 94.66 236.64 94.66 231.38 91.16 231.38 91.16 220.86 94.66 220.86 94.66 210.35 101.67 210.35 101.67 205.09 108.68 205.09 108.68 199.83 115.69 199.83 115.69 205.09 122.71 205.09 122.71 210.35 129.72 210.35 129.72 215.6 133.22 215.6"
             id="polygon29" />
          <polygon
             class="cls-1"
             points="133.22 126.21 133.22 131.47 129.72 131.47 129.72 136.73 122.71 136.73 122.71 141.99 115.69 141.99 115.69 147.25 108.68 147.25 108.68 152.5 94.66 152.5 94.66 147.25 91.16 147.25 91.16 131.47 94.66 131.47 94.66 126.21 98.17 126.21 98.17 120.94 105.18 120.94 105.18 115.7 119.2 115.7 119.2 120.94 126.21 120.94 126.21 126.21 133.22 126.21"
             id="polygon30" />
          <polygon
             class="cls-1"
             points="129.71 42.07 129.71 36.81 126.21 36.81 122.7 36.81 122.7 31.55 119.2 31.55 115.69 31.55 115.69 26.29 112.19 26.29 108.68 26.29 108.68 21.04 105.17 21.04 101.67 21.04 101.67 15.78 98.16 15.78 94.66 15.78 94.66 10.52 91.15 10.52 87.64 10.52 87.64 5.26 84.14 5.26 80.63 5.26 77.13 5.26 73.62 5.26 73.62 0 70.12 0 66.61 0 63.1 0 59.6 0 56.09 0 52.59 0 49.08 0 45.58 0 42.07 0 42.07 5.26 38.56 5.26 35.06 5.26 31.55 5.26 31.55 10.52 28.05 10.52 24.54 10.52 21.03 10.52 21.03 15.78 17.53 15.78 17.53 21.04 21.03 21.04 24.54 21.04 28.05 21.04 31.55 21.04 35.06 21.04 38.56 21.04 38.56 26.29 42.07 26.29 45.58 26.29 45.58 31.55 49.08 31.55 52.59 31.55 52.59 36.81 56.09 36.81 59.6 36.81 59.6 42.07 63.1 42.07 66.61 42.07 66.61 47.33 70.12 47.33 73.62 47.33 73.62 52.59 77.13 52.59 80.63 52.59 80.63 57.85 77.13 57.85 73.62 57.85 70.12 57.85 66.61 57.85 66.61 52.59 63.1 52.59 59.6 52.59 56.09 52.59 52.59 52.59 49.08 52.59 45.58 52.59 42.07 52.59 38.56 52.59 35.06 52.59 35.06 57.85 31.55 57.85 28.05 57.85 24.54 57.85 21.03 57.85 21.03 63.1 17.53 63.1 17.53 68.36 14.02 68.36 10.52 68.36 10.52 73.62 7.01 73.62 7.01 78.88 3.51 78.88 3.51 84.14 0 84.14 0 89.4 0 94.66 3.51 94.66 3.51 89.4 7.01 89.4 10.52 89.4 14.02 89.4 17.53 89.4 21.03 89.4 24.54 89.4 28.05 89.4 31.55 89.4 35.06 89.4 38.56 89.4 42.07 89.4 42.07 94.66 45.58 94.66 49.08 94.66 52.59 94.66 56.09 94.66 59.6 94.66 63.1 94.66 63.1 99.91 63.1 105.17 59.6 105.17 56.09 105.17 52.59 105.17 49.08 105.17 45.58 105.17 42.07 105.17 42.07 110.43 38.56 110.43 35.06 110.43 31.55 110.43 31.55 115.69 28.05 115.69 24.54 115.69 24.54 120.95 21.03 120.95 21.03 126.21 17.53 126.21 17.53 131.47 14.02 131.47 14.02 136.73 10.52 136.73 10.52 141.98 10.52 147.24 7.01 147.24 7.01 152.5 7.01 157.76 7.01 163.02 7.01 168.28 7.01 173.54 10.52 173.54 10.52 168.28 14.02 168.28 14.02 163.02 17.53 163.02 17.53 157.76 21.03 157.76 24.54 157.76 28.05 157.76 28.05 152.5 31.55 152.5 35.06 152.5 38.56 152.5 42.07 152.5 45.58 152.5 45.58 147.24 49.08 147.24 52.59 147.24 56.09 147.24 59.6 147.24 63.1 147.24 66.61 147.24 66.61 141.98 70.12 141.98 73.62 141.98 77.13 141.98 80.63 141.98 84.14 141.98 87.64 141.98 87.64 136.73 84.14 136.73 84.14 131.47 84.14 126.21 80.63 126.21 80.63 120.95 80.63 115.69 80.63 110.43 80.63 105.17 80.63 99.91 80.63 94.66 84.14 94.66 84.14 89.4 84.14 84.14 87.64 84.14 87.64 78.88 91.15 78.88 91.15 73.62 94.66 73.62 98.16 73.62 98.16 68.36 101.67 68.36 105.17 68.36 105.17 63.1 108.68 63.1 112.19 63.1 112.19 57.85 115.69 57.85 119.2 57.85 119.2 52.59 122.7 52.59 126.21 52.59 126.21 47.33 129.71 47.33 133.22 47.33 133.22 42.07 129.71 42.07"
             id="polygon31" />
        </g>
      </g>
      <g
         id="g73">
        <g
           id="g36">
          <path
             class="cls-2"
             d="M385.99,141.18c-7.26-2.03-13.06-4.38-17.42-7.04-4.35-2.66-7.45-5.05-9.29-7.18l18.58-22.06c2.81,2.52,6.84,4.96,12.12,7.33,5.27,2.37,10.96,3.56,17.05,3.56,3.87,0,6.77-.55,8.71-1.67,1.93-1.11,2.9-2.49,2.9-4.14,0-1.94-1.36-3.56-4.06-4.86-2.71-1.31-7.11-2.88-13.21-4.72-7.74-2.42-14.15-4.74-19.23-6.97-5.08-2.22-9.51-5.44-13.28-9.65-3.77-4.21-5.66-9.51-5.66-15.89,0-5.9,1.86-11.27,5.59-16.11,3.72-4.84,9.12-8.68,16.18-11.54,7.06-2.85,15.38-4.28,24.96-4.28,8.03,0,15.36.87,21.99,2.61,6.63,1.74,12.07,3.7,16.33,5.88,4.26,2.18,7.35,4.14,9.29,5.88l-18.58,21.62c-.87-.77-2.59-1.79-5.15-3.05-2.56-1.26-5.54-2.34-8.93-3.27-3.39-.92-6.82-1.38-10.31-1.38s-5.98.44-7.77,1.31c-1.79.87-2.69,2.03-2.69,3.48,0,1.74,1.28,3.17,3.85,4.28,2.56,1.11,6.7,2.49,12.41,4.14,7.74,2.23,14.25,4.48,19.52,6.75,5.27,2.27,9.89,5.59,13.86,9.94,3.97,4.35,5.95,9.87,5.95,16.54s-1.89,12.24-5.66,17.27c-3.77,5.03-9.34,9-16.69,11.9-7.35,2.9-16.11,4.35-26.27,4.35-9.48,0-17.85-1.02-25.11-3.05Z"
             id="path32" />
          <path
             class="cls-2"
             d="M514.58,140.89h-38.17V39.29h34.54l34.11,35.99h.44l34.11-35.99h33.96v101.6h-38.03v-55.15h-.58l-29.9,31.49-29.9-31.49h-.58v55.15Z"
             id="path33" />
          <path
             class="cls-2"
             d="M665.96,140.89h-39.33l43.98-101.6h44.99l43.83,101.6h-40.2l-6.68-18h-39.77l-6.82,18ZM692.52,68.17l-10.74,30.48h21.92l-10.6-30.48h-.58Z"
             id="path34" />
          <path
             class="cls-2"
             d="M810.67,140.89h-38.17V39.29h38.17v101.6Z"
             id="path35" />
          <path
             class="cls-2"
             d="M925.76,140.89h-90.42V39.29h38.17v70.39h52.25v31.21Z"
             id="path36" />
        </g>
      </g>
    </g>
  </g>
  <path
     style="font-weight:450;font-size:48.8178px;font-family:'TT Norms Pro';-inkscape-font-specification:'TT Norms Pro weight=450';white-space:pre;fill:#932727;fill-rule:evenodd;stroke-width:4.04409;stroke-miterlimit:100;paint-order:stroke fill markers"
     d="m 281.85636,172.45127 q -4.00306,0 -7.1274,-1.51335 -3.07552,-1.56217 -4.78414,-3.61252 l 3.0267,-2.92907 q 1.51335,1.70863 3.71015,2.88025 2.24562,1.12281 5.17469,1.12281 3.51488,0 5.46759,-1.6598 2.00153,-1.65981 2.00153,-4.14952 0,-1.70862 -1.02517,-2.78261 -1.02517,-1.07399 -2.58734,-1.70862 -1.51336,-0.63464 -4.14952,-1.41572 -3.41724,-1.02517 -5.56523,-2.00153 -2.09916,-0.97636 -3.61251,-2.88025 -1.46454,-1.95271 -1.46454,-5.12587 0,-2.53852 1.3669,-4.68651 1.41572,-2.14798 4.00306,-3.41724 2.63616,-1.26927 6.05341,-1.26927 3.36843,0 6.0534,1.31808 2.68498,1.26927 4.34479,2.97789 l -2.97789,2.88025 q -1.31808,-1.26926 -3.22197,-2.1968 -1.85508,-0.92754 -4.19833,-0.92754 -3.31961,0 -5.17469,1.51335 -1.85508,1.51335 -1.85508,3.80779 0,1.70862 1.02518,2.78262 1.02517,1.07399 2.53852,1.70862 1.56217,0.63463 4.19833,1.41571 3.41725,1.02518 5.51642,2.00153 2.14798,0.97636 3.61251,2.92907 1.51335,1.9039 1.51335,5.07705 0,2.68498 -1.46453,4.97942 -1.41572,2.24562 -4.14951,3.5637 -2.68498,1.31808 -6.24868,1.31808 z m 18.11137,9.76356 v -33.68428 h 4.00306 v 3.71015 h 0.0488 q 0.92754,-1.61099 3.17316,-2.88025 2.24561,-1.31808 5.12586,-1.31808 2.92907,0 5.41878,1.61099 2.53853,1.56217 4.05188,4.34478 1.51335,2.78262 1.51335,6.24868 0,3.46606 -1.51335,6.24868 -1.51335,2.78261 -4.05188,4.3936 -2.48971,1.56217 -5.41878,1.56217 -2.88025,0 -5.12586,-1.26926 -2.24562,-1.31808 -3.17316,-2.92907 h -0.0488 v 13.96189 z M 311.684,168.64348 q 2.05035,0 3.80779,-1.07399 1.75744,-1.12281 2.78262,-3.0267 1.07399,-1.9039 1.07399,-4.29597 0,-2.39207 -1.07399,-4.29597 -1.02518,-1.90389 -2.78262,-2.97788 -1.75744,-1.12281 -3.80779,-1.12281 -2.09916,0 -3.90542,1.07399 -1.75744,1.07399 -2.78262,3.0267 -1.02517,1.9039 -1.02517,4.29597 0,2.39207 1.02517,4.34478 1.02518,1.9039 2.78262,2.97789 1.80626,1.07399 3.90542,1.07399 z m 27.82616,3.80779 q -3.2708,0 -6.00459,-1.61099 -2.7338,-1.6598 -4.34479,-4.44242 -1.61098,-2.78261 -1.61098,-6.15104 0,-3.41725 1.56217,-6.19986 1.61098,-2.78262 4.29596,-4.3936 2.68498,-1.61099 5.85814,-1.61099 3.12434,0 5.71168,1.51335 2.58734,1.51335 4.05188,4.19833 1.46453,2.63616 1.46453,6.00459 0,0.78109 -0.14645,1.95271 h -18.6484 q 0.39054,2.92907 2.63616,4.9306 2.24562,2.00153 5.36996,2.00153 3.8566,0 6.88331,-3.22197 l 2.68498,2.4897 q -1.41572,1.85508 -3.95425,3.22198 -2.4897,1.31808 -5.80931,1.31808 z m 6.88331,-14.05953 q -0.48818,-3.07552 -2.39208,-4.88178 -1.85507,-1.80626 -4.73532,-1.80626 -2.97789,0 -5.02824,1.9039 -2.05034,1.85508 -2.58734,4.78414 z m 20.06411,14.05953 q -3.27079,0 -6.00459,-1.61099 -2.73379,-1.6598 -4.34478,-4.44242 -1.61099,-2.78261 -1.61099,-6.15104 0,-3.36843 1.61099,-6.15104 1.61099,-2.78262 4.34478,-4.39361 2.7338,-1.6598 6.00459,-1.6598 3.27079,0 5.7605,1.46453 2.53853,1.41572 3.95424,3.2708 l -2.88025,2.44089 q -1.17162,-1.41572 -2.88025,-2.39208 -1.70862,-0.97635 -3.95424,-0.97635 -2.1968,0 -4.00306,1.12281 -1.80626,1.07399 -2.88025,3.0267 -1.07399,1.90389 -1.07399,4.24715 0,2.34325 1.07399,4.29597 1.07399,1.90389 2.88025,3.0267 1.80626,1.07399 4.00306,1.07399 2.24562,0 4.00306,-0.97636 1.80626,-1.02517 2.97789,-2.4897 l 2.92907,2.44089 q -1.51336,1.95271 -4.1007,3.41724 -2.53853,1.41572 -5.80932,1.41572 z m 19.28303,-0.48818 h -4.00306 v -23.43254 h 4.00306 z m -2.00153,-28.21669 q -1.02518,0 -1.80626,-0.73226 -0.73227,-0.73227 -0.73227,-1.80626 0,-1.07399 0.73227,-1.80626 0.78108,-0.73227 1.80626,-0.73227 0.97635,0 1.70862,0.73227 0.78108,0.73227 0.78108,1.80626 0,1.07399 -0.78108,1.80626 -0.73227,0.73226 -1.70862,0.73226 z m 18.25788,4.29597 q 2.78261,0 4.9306,1.17163 2.14798,1.17162 3.31961,3.27079 1.22044,2.05035 1.22044,4.68651 v 14.79179 h -3.8566 v -3.5637 h -0.0488 q -0.92754,1.56217 -3.07552,2.83143 -2.14799,1.22045 -4.83296,1.22045 -2.29444,0 -4.1007,-0.92754 -1.80626,-0.92754 -2.83143,-2.44089 -0.97636,-1.56217 -0.97636,-3.36843 0,-2.92907 1.95271,-4.83296 1.95272,-1.95271 5.4676,-2.53852 l 8.29902,-1.3669 v -0.0976 q 0,-2.24562 -1.56217,-3.71015 -1.51335,-1.46454 -3.90542,-1.46454 -1.95271,0 -3.51488,0.87872 -1.51335,0.87873 -2.83143,2.34326 l -2.58735,-2.48971 q 1.56217,-1.85507 3.80779,-3.12434 2.24562,-1.26926 5.12587,-1.26926 z m -1.75744,20.89402 q 2.00153,0 3.66133,-0.97636 1.65981,-0.97635 2.58735,-2.63616 0.97635,-1.70862 0.97635,-3.75897 v -1.31808 l -7.32267,1.26926 q -2.1968,0.39054 -3.31961,1.41572 -1.07399,1.02517 -1.07399,2.44089 0,1.46453 1.22045,2.53852 1.26926,1.02518 3.27079,1.02518 z m 22.55384,3.0267 h -4.00306 v -34.17246 h 4.00306 z m 11.81393,0 h -4.00306 v -23.43254 h 4.00306 z m -2.00153,-28.21669 q -1.02517,0 -1.80626,-0.73226 -0.73227,-0.73227 -0.73227,-1.80626 0,-1.07399 0.73227,-1.80626 0.78109,-0.73227 1.80626,-0.73227 0.97636,0 1.70862,0.73227 0.78109,0.73227 0.78109,1.80626 0,1.07399 -0.78109,1.80626 -0.73226,0.73226 -1.70862,0.73226 z m 27.24036,28.21669 h -19.28303 v -3.80779 l 13.76662,-15.81696 h -13.27844 v -3.80779 h 18.30667 v 3.80779 l -13.76662,15.81696 h 14.2548 z m 15.81695,0.48818 q -3.27079,0 -6.00459,-1.61099 -2.73379,-1.6598 -4.34478,-4.44242 -1.61099,-2.78261 -1.61099,-6.15104 0,-3.41725 1.56217,-6.19986 1.61099,-2.78262 4.29597,-4.3936 2.68498,-1.61099 5.85813,-1.61099 3.12434,0 5.71169,1.51335 2.58734,1.51335 4.05187,4.19833 1.46454,2.63616 1.46454,6.00459 0,0.78109 -0.14646,1.95271 h -18.6484 q 0.39055,2.92907 2.63617,4.9306 2.24561,2.00153 5.36995,2.00153 3.85661,0 6.88331,-3.22197 l 2.68498,2.4897 q -1.41571,1.85508 -3.95424,3.22198 -2.48971,1.31808 -5.80932,1.31808 z m 6.88331,-14.05953 q -0.48818,-3.07552 -2.39207,-4.88178 -1.85508,-1.80626 -4.73533,-1.80626 -2.97788,0 -5.02823,1.9039 -2.05035,1.85508 -2.58734,4.78414 z m 19.08775,14.05953 q -2.92906,0 -5.46759,-1.56217 -2.48971,-1.61099 -4.00306,-4.3936 -1.51335,-2.78262 -1.51335,-6.24868 0,-3.46606 1.51335,-6.24868 1.51335,-2.78261 4.00306,-4.34478 2.53853,-1.61099 5.46759,-1.61099 2.88025,0 5.12587,1.31808 2.24562,1.26926 3.22198,2.88025 h 0.0488 v -14.45007 h 4.00306 v 34.17246 h -4.00306 v -3.71015 h -0.0488 q -0.97636,1.61099 -3.22198,2.92907 -2.24562,1.26926 -5.12587,1.26926 z m 0.68345,-3.80779 q 2.09917,0 3.85661,-1.07399 1.75744,-1.12281 2.78261,-3.0267 1.074,-1.9039 1.074,-4.29597 0,-2.39207 -1.074,-4.29597 -1.02517,-1.90389 -2.78261,-2.97788 -1.75744,-1.12281 -3.85661,-1.12281 -2.05034,0 -3.80778,1.12281 -1.75745,1.07399 -2.83144,2.97788 -1.02517,1.9039 -1.02517,4.29597 0,2.39207 1.02517,4.29597 1.07399,1.90389 2.83144,3.0267 1.75744,1.07399 3.80778,1.07399 z m 36.27158,3.31961 h -4.3936 v -34.17246 h 4.00306 l 13.57135,17.76968 h 0.0976 l 13.62017,-17.76968 h 3.85661 v 34.17246 h -4.39361 v -26.50806 h -0.14645 l -13.03435,16.98859 -12.98554,-16.98859 h -0.19527 z m 49.89178,0.48818 q -3.27079,0 -6.00459,-1.61099 -2.73379,-1.6598 -4.34478,-4.44242 -1.61099,-2.78261 -1.61099,-6.15104 0,-3.41725 1.56217,-6.19986 1.61099,-2.78262 4.29597,-4.3936 2.68498,-1.61099 5.85813,-1.61099 3.12434,0 5.71169,1.51335 2.58734,1.51335 4.05187,4.19833 1.46454,2.63616 1.46454,6.00459 0,0.78109 -0.14646,1.95271 H 580.6701 q 0.39054,2.92907 2.63616,4.9306 2.24562,2.00153 5.36995,2.00153 3.85661,0 6.88331,-3.22197 l 2.68498,2.4897 q -1.41571,1.85508 -3.95424,3.22198 -2.48971,1.31808 -5.80932,1.31808 z m 6.88331,-14.05953 q -0.48818,-3.07552 -2.39207,-4.88178 -1.85508,-1.80626 -4.73533,-1.80626 -2.97788,0 -5.02823,1.9039 -2.05035,1.85508 -2.58734,4.78414 z m 19.08776,14.05953 q -2.92907,0 -5.4676,-1.56217 -2.48971,-1.61099 -4.00306,-4.3936 -1.51335,-2.78262 -1.51335,-6.24868 0,-3.46606 1.51335,-6.24868 1.51335,-2.78261 4.00306,-4.34478 2.53853,-1.61099 5.4676,-1.61099 2.88025,0 5.12586,1.31808 2.24562,1.26926 3.22198,2.88025 h 0.0488 v -14.45007 h 4.00306 v 34.17246 h -4.00306 v -3.71015 h -0.0488 q -0.97636,1.61099 -3.22198,2.92907 -2.24561,1.26926 -5.12586,1.26926 z m 0.68344,-3.80779 q 2.09917,0 3.85661,-1.07399 1.75744,-1.12281 2.78262,-3.0267 1.07399,-1.9039 1.07399,-4.29597 0,-2.39207 -1.07399,-4.29597 -1.02518,-1.90389 -2.78262,-2.97788 -1.75744,-1.12281 -3.85661,-1.12281 -2.05034,0 -3.80778,1.12281 -1.75744,1.07399 -2.83144,2.97788 -1.02517,1.9039 -1.02517,4.29597 0,2.39207 1.02517,4.29597 1.074,1.90389 2.83144,3.0267 1.75744,1.07399 3.80778,1.07399 z m 23.53014,3.31961 h -4.00306 v -23.43254 h 4.00306 z m -2.00153,-28.21669 q -1.02517,0 -1.80625,-0.73226 -0.73227,-0.73227 -0.73227,-1.80626 0,-1.07399 0.73227,-1.80626 0.78108,-0.73227 1.80625,-0.73227 0.97636,0 1.70863,0.73227 0.78108,0.73227 0.78108,1.80626 0,1.07399 -0.78108,1.80626 -0.73227,0.73226 -1.70863,0.73226 z m 19.96651,28.70487 q -3.27079,0 -6.00459,-1.61099 -2.7338,-1.6598 -4.34478,-4.44242 -1.61099,-2.78261 -1.61099,-6.15104 0,-3.36843 1.61099,-6.15104 1.61098,-2.78262 4.34478,-4.39361 2.7338,-1.6598 6.00459,-1.6598 3.27079,0 5.7605,1.46453 2.53853,1.41572 3.95424,3.2708 l -2.88025,2.44089 q -1.17162,-1.41572 -2.88025,-2.39208 -1.70862,-0.97635 -3.95424,-0.97635 -2.1968,0 -4.00306,1.12281 -1.80626,1.07399 -2.88025,3.0267 -1.07399,1.90389 -1.07399,4.24715 0,2.34325 1.07399,4.29597 1.07399,1.90389 2.88025,3.0267 1.80626,1.07399 4.00306,1.07399 2.24562,0 4.00306,-0.97636 1.80626,-1.02517 2.97789,-2.4897 l 2.92906,2.44089 q -1.51335,1.95271 -4.10069,3.41724 -2.53853,1.41572 -5.80932,1.41572 z m 23.72546,-24.4089 q 2.78261,0 4.9306,1.17163 2.14798,1.17162 3.31961,3.27079 1.22044,2.05035 1.22044,4.68651 v 14.79179 h -3.8566 v -3.5637 h -0.0488 q -0.92754,1.56217 -3.07552,2.83143 -2.14799,1.22045 -4.83296,1.22045 -2.29444,0 -4.1007,-0.92754 -1.80626,-0.92754 -2.83143,-2.44089 -0.97636,-1.56217 -0.97636,-3.36843 0,-2.92907 1.95271,-4.83296 1.95272,-1.95271 5.4676,-2.53852 l 8.29902,-1.3669 v -0.0976 q 0,-2.24562 -1.56217,-3.71015 -1.51335,-1.46454 -3.90542,-1.46454 -1.95271,0 -3.51488,0.87872 -1.51335,0.87873 -2.83143,2.34326 l -2.58735,-2.48971 q 1.56217,-1.85507 3.80779,-3.12434 2.24562,-1.26926 5.12587,-1.26926 z m -1.75744,20.89402 q 2.00153,0 3.66133,-0.97636 1.65981,-0.97635 2.58735,-2.63616 0.97635,-1.70862 0.97635,-3.75897 v -1.31808 l -7.32267,1.26926 q -2.1968,0.39054 -3.31961,1.41572 -1.07399,1.02517 -1.07399,2.44089 0,1.46453 1.22045,2.53852 1.26926,1.02518 3.27079,1.02518 z m 22.55382,3.0267 h -4.00306 v -34.17246 h 4.00306 z m -428.13207,61.02225 h -4.54006 l 13.81544,-34.17246 h 4.78414 l 13.81544,34.17246 h -4.68651 l -3.71015,-9.17775 h -15.81697 z m 11.521,-28.99777 -6.24868,15.71933 h 12.59499 l -6.24868,-15.71933 z m 20.89405,28.99777 v -23.43255 h 4.00306 v 3.41725 h 0.0488 q 0.97636,-1.51335 2.92907,-2.68498 2.00153,-1.22044 4.49124,-1.22044 h 1.12281 v 4.14951 q -1.17163,-0.14645 -1.61099,-0.14645 -1.9039,0 -3.51488,0.97635 -1.56217,0.97636 -2.53853,2.7338 -0.92754,1.70862 -0.92754,3.85661 v 12.3509 z m 26.16638,0.24409 q -3.2708,0 -5.07705,-1.85508 -1.75744,-1.90389 -1.75744,-5.46759 v -12.54618 h -4.44242 v -3.80779 h 2.83143 q 2.05035,0 2.05035,-2.44088 v -5.36996 h 3.56369 v 7.81084 h 5.71169 v 3.80779 h -5.71169 v 12.20445 q 0,1.9039 0.92754,2.88025 0.92754,0.97636 2.58735,0.97636 1.36689,0 2.83143,-0.73227 v 3.80779 q -0.58582,0.29291 -1.56217,0.48818 -0.92754,0.24409 -1.95271,0.24409 z m 13.22965,-0.24409 h -4.00306 v -23.43255 h 4.00306 z m -2.00153,-28.21669 q -1.02517,0 -1.80626,-0.73227 -0.73227,-0.73226 -0.73227,-1.80625 0,-1.074 0.73227,-1.80626 0.78109,-0.73227 1.80626,-0.73227 0.97636,0 1.70862,0.73227 0.78109,0.73226 0.78109,1.80626 0,1.07399 -0.78109,1.80625 -0.73226,0.73227 -1.70862,0.73227 z m 11.91157,28.21669 v -19.62476 h -4.44242 v -3.80779 h 4.44242 v -3.90542 q 0,-3.5637 1.75744,-5.41877 1.80626,-1.9039 5.07705,-1.9039 1.02517,0 1.95271,0.24409 0.97636,0.19527 1.56217,0.48818 v 3.80779 q -1.46453,-0.73227 -2.83143,-0.73227 -1.65981,0 -2.58734,0.97636 -0.92754,0.97635 -0.92754,2.88025 v 3.56369 h 14.15716 v 23.43255 h -4.00306 v -19.62476 h -10.1541 v 19.62476 z m 16.15869,-28.21669 q -0.97636,0 -1.75744,-0.73227 -0.73227,-0.73226 -0.73227,-1.80625 0,-1.074 0.73227,-1.80626 0.78108,-0.73227 1.75744,-0.73227 1.02517,0 1.75744,0.73227 0.78109,0.73226 0.78109,1.80626 0,1.07399 -0.78109,1.80625 -0.73227,0.73227 -1.75744,0.73227 z m 19.96651,28.70487 q -3.27079,0 -6.00459,-1.61099 -2.73379,-1.65981 -4.34478,-4.44242 -1.61099,-2.78262 -1.61099,-6.15104 0,-3.36843 1.61099,-6.15105 1.61099,-2.78261 4.34478,-4.3936 2.7338,-1.6598 6.00459,-1.6598 3.2708,0 5.7605,1.46453 2.53853,1.41572 3.95424,3.27079 l -2.88025,2.44089 q -1.17162,-1.41571 -2.88025,-2.39207 -1.70862,-0.97635 -3.95424,-0.97635 -2.1968,0 -4.00306,1.1228 -1.80626,1.074 -2.88025,3.02671 -1.07399,1.90389 -1.07399,4.24715 0,2.34325 1.07399,4.29596 1.07399,1.9039 2.88025,3.02671 1.80626,1.07399 4.00306,1.07399 2.24562,0 4.00306,-0.97636 1.80626,-1.02517 2.97789,-2.48971 l 2.92907,2.44089 q -1.51336,1.95272 -4.1007,3.41725 -2.53852,1.41572 -5.80932,1.41572 z m 19.28303,-0.48818 h -4.00306 v -23.43255 h 4.00306 z m -2.00153,-28.21669 q -1.02517,0 -1.80625,-0.73227 -0.73227,-0.73226 -0.73227,-1.80625 0,-1.074 0.73227,-1.80626 0.78108,-0.73227 1.80625,-0.73227 0.97636,0 1.70863,0.73227 0.78108,0.73226 0.78108,1.80626 0,1.07399 -0.78108,1.80625 -0.73227,0.73227 -1.70863,0.73227 z m 18.25789,4.29597 q 2.78261,0 4.9306,1.17162 2.14798,1.17163 3.31961,3.2708 1.22044,2.05034 1.22044,4.68651 v 14.79179 h -3.8566 v -3.5637 h -0.0488 q -0.92754,1.56217 -3.07552,2.83143 -2.14799,1.22045 -4.83297,1.22045 -2.29443,0 -4.10069,-0.92754 -1.80626,-0.92754 -2.83143,-2.44089 -0.97636,-1.56217 -0.97636,-3.36843 0,-2.92907 1.95271,-4.83296 1.95271,-1.95271 5.4676,-2.53853 l 8.29902,-1.3669 v -0.0976 q 0,-2.24562 -1.56217,-3.71015 -1.51335,-1.46454 -3.90542,-1.46454 -1.95271,0 -3.51488,0.87872 -1.51335,0.87872 -2.83144,2.34326 l -2.58734,-2.48971 q 1.56217,-1.85508 3.80779,-3.12434 2.24562,-1.26926 5.12587,-1.26926 z m -1.75744,20.89401 q 2.00153,0 3.66133,-0.97635 1.65981,-0.97636 2.58735,-2.63616 0.97635,-1.70863 0.97635,-3.75897 v -1.31808 l -7.32267,1.26926 q -2.1968,0.39054 -3.31961,1.41572 -1.07399,1.02517 -1.07399,2.44089 0,1.46453 1.22045,2.53852 1.26926,1.02517 3.27079,1.02517 z m 22.55383,3.02671 h -4.00306 v -34.17246 h 4.00306 z m 24.55536,0 h -4.3936 v -34.17246 h 4.3936 z m 8.73842,0 v -23.43255 h 4.00306 v 3.5637 h 0.0488 q 0.97635,-1.56217 2.97788,-2.78261 2.00153,-1.26926 4.54006,-1.26926 2.68498,0 4.78414,1.26926 2.14799,1.26926 3.31961,3.5637 1.22045,2.29444 1.22045,5.32114 v 13.76662 H 497.436 v -13.76662 q 0,-2.83143 -1.70863,-4.58887 -1.70862,-1.75744 -4.34478,-1.75744 -2.92907,0 -4.9306,2.05034 -1.95271,2.05035 -1.95271,5.22351 v 12.83908 z m 36.41808,0.24409 q -3.2708,0 -5.07705,-1.85508 -1.75744,-1.90389 -1.75744,-5.46759 v -12.54618 h -4.44242 v -3.80779 h 2.83143 q 2.05035,0 2.05035,-2.44088 v -5.36996 h 3.5637 v 7.81084 h 5.71168 v 3.80779 h -5.71168 v 12.20445 q 0,1.9039 0.92753,2.88025 0.92754,0.97636 2.58735,0.97636 1.3669,0 2.83143,-0.73227 v 3.80779 q -0.58581,0.29291 -1.56217,0.48818 -0.92754,0.24409 -1.95271,0.24409 z m 18.89249,0.24409 q -3.27079,0 -6.00458,-1.61099 -2.7338,-1.65981 -4.34479,-4.44242 -1.61099,-2.78262 -1.61099,-6.15104 0,-3.41725 1.56217,-6.19986 1.61099,-2.78262 4.29597,-4.39361 2.68498,-1.61098 5.85814,-1.61098 3.12433,0 5.71168,1.51335 2.58734,1.51335 4.05188,4.19833 1.46453,2.63616 1.46453,6.00459 0,0.78108 -0.14645,1.95271 h -18.6484 q 0.39054,2.92907 2.63616,4.9306 2.24562,2.00153 5.36996,2.00153 3.8566,0 6.88331,-3.22198 l 2.68497,2.48971 q -1.41571,1.85508 -3.95424,3.22198 -2.48971,1.31808 -5.80932,1.31808 z m 6.88331,-14.05953 q -0.48817,-3.07552 -2.39207,-4.88178 -1.85507,-1.80626 -4.73532,-1.80626 -2.97789,0 -5.02824,1.9039 -2.05035,1.85507 -2.58734,4.78414 z m 13.91309,13.57135 h -4.00306 v -34.17246 h 4.00306 z m 11.81393,0 h -4.00306 v -34.17246 h 4.00306 z m 11.81393,0 h -4.00306 v -23.43255 h 4.00306 z m -2.00153,-28.21669 q -1.02517,0 -1.80625,-0.73227 -0.73227,-0.73226 -0.73227,-1.80625 0,-1.074 0.73227,-1.80626 0.78108,-0.73227 1.80625,-0.73227 0.97636,0 1.70863,0.73227 0.78108,0.73226 0.78108,1.80626 0,1.07399 -0.78108,1.80625 -0.73227,0.73227 -1.70863,0.73227 z m 18.99016,38.46843 q -3.22198,0 -6.05341,-1.56217 -2.78262,-1.51336 -4.00306,-3.31961 l 2.83143,-2.58735 q 0.92754,1.3669 2.92907,2.48971 2.05035,1.17163 4.29597,1.17163 3.41724,0 5.46759,-2.29444 2.09916,-2.29444 2.09916,-5.95577 v -2.7338 h -0.0488 q -1.12281,1.70863 -3.2708,2.88025 -2.14798,1.17163 -4.63769,1.17163 -2.83143,0 -5.27232,-1.51335 -2.44089,-1.51335 -3.90542,-4.19833 -1.41572,-2.68498 -1.41572,-6.00459 0,-3.31961 1.41572,-6.00459 1.46453,-2.68498 3.90542,-4.19833 2.44089,-1.51335 5.27232,-1.51335 2.68498,0 4.78415,1.26926 2.14798,1.26926 3.12434,2.78261 h 0.0488 v -3.5637 h 4.00306 v 21.62629 q 0,3.41725 -1.51335,6.15104 -1.46453,2.78262 -4.10069,4.34479 -2.63616,1.56217 -5.95577,1.56217 z m 0.24408,-14.54771 q 2.05035,0 3.71016,-1.02517 1.6598,-1.02518 2.63616,-2.78262 0.97635,-1.80625 0.97635,-4.10069 0,-2.29444 -0.97635,-4.05188 -0.97636,-1.80626 -2.63616,-2.83143 -1.65981,-1.02517 -3.71016,-1.02517 -1.95271,0 -3.61251,1.02517 -1.65981,1.02517 -2.63616,2.83143 -0.97636,1.80626 -0.97636,4.05188 0,2.24562 0.97636,4.05188 0.97635,1.80625 2.63616,2.83143 1.6598,1.02517 3.61251,1.02517 z m 29.0466,4.78415 q -3.27079,0 -6.00459,-1.61099 -2.73379,-1.65981 -4.34478,-4.44242 -1.61099,-2.78262 -1.61099,-6.15104 0,-3.41725 1.56217,-6.19986 1.61099,-2.78262 4.29597,-4.39361 2.68498,-1.61098 5.85813,-1.61098 3.12434,0 5.71169,1.51335 2.58734,1.51335 4.05187,4.19833 1.46454,2.63616 1.46454,6.00459 0,0.78108 -0.14646,1.95271 h -18.6484 q 0.39055,2.92907 2.63617,4.9306 2.24561,2.00153 5.36995,2.00153 3.85661,0 6.88331,-3.22198 l 2.68498,2.48971 q -1.41571,1.85508 -3.95424,3.22198 -2.48971,1.31808 -5.80932,1.31808 z m 6.88331,-14.05953 q -0.48818,-3.07552 -2.39207,-4.88178 -1.85508,-1.80626 -4.73533,-1.80626 -2.97788,0 -5.02823,1.9039 -2.05035,1.85507 -2.58734,4.78414 z m 9.66592,13.57135 v -23.43255 h 4.00306 v 3.5637 h 0.0488 q 0.97635,-1.56217 2.97788,-2.78261 2.00153,-1.26926 4.54006,-1.26926 2.68498,0 4.78414,1.26926 2.14798,1.26926 3.31961,3.5637 1.22045,2.29444 1.22045,5.32114 v 13.76662 h -3.95424 v -13.76662 q 0,-2.83143 -1.70863,-4.58887 -1.70862,-1.75744 -4.34478,-1.75744 -2.92907,0 -4.9306,2.05034 -1.95271,2.05035 -1.95271,5.22351 v 12.83908 z m 38.37079,0.48818 q -3.2708,0 -6.00459,-1.61099 -2.7338,-1.65981 -4.34479,-4.44242 -1.61099,-2.78262 -1.61099,-6.15104 0,-3.36843 1.61099,-6.15105 1.61099,-2.78261 4.34479,-4.3936 2.73379,-1.6598 6.00459,-1.6598 3.27079,0 5.7605,1.46453 2.53852,1.41572 3.95424,3.27079 l -2.88025,2.44089 q -1.17163,-1.41571 -2.88025,-2.39207 -1.70863,-0.97635 -3.95424,-0.97635 -2.19681,0 -4.00306,1.1228 -1.80626,1.074 -2.88025,3.02671 -1.074,1.90389 -1.074,4.24715 0,2.34325 1.074,4.29596 1.07399,1.9039 2.88025,3.02671 1.80625,1.07399 4.00306,1.07399 2.24561,0 4.00306,-0.97636 1.80625,-1.02517 2.97788,-2.48971 l 2.92907,2.44089 q -1.51335,1.95272 -4.1007,3.41725 -2.53852,1.41572 -5.80931,1.41572 z m 24.94586,0 q -3.2708,0 -6.00459,-1.61099 -2.7338,-1.65981 -4.34479,-4.44242 -1.61098,-2.78262 -1.61098,-6.15104 0,-3.41725 1.56217,-6.19986 1.61098,-2.78262 4.29596,-4.39361 2.68498,-1.61098 5.85814,-1.61098 3.12434,0 5.71168,1.51335 2.58734,1.51335 4.05188,4.19833 1.46453,2.63616 1.46453,6.00459 0,0.78108 -0.14645,1.95271 h -18.6484 q 0.39054,2.92907 2.63616,4.9306 2.24562,2.00153 5.36996,2.00153 3.8566,0 6.88331,-3.22198 l 2.68498,2.48971 q -1.41572,1.85508 -3.95424,3.22198 -2.48971,1.31808 -5.80932,1.31808 z m 6.88331,-14.05953 q -0.48818,-3.07552 -2.39208,-4.88178 -1.85507,-1.80626 -4.73532,-1.80626 -2.97789,0 -5.02823,1.9039 -2.05035,1.85507 -2.58735,4.78414 z m 43.83837,13.57135 h -21.57747 v -34.17246 h 4.3936 v 30.12058 h 17.18387 z m 13.32729,-23.92072 q 2.78262,0 4.9306,1.17162 2.14798,1.17163 3.31961,3.2708 1.22045,2.05034 1.22045,4.68651 v 14.79179 h -3.85661 v -3.5637 h -0.0488 q -0.92754,1.56217 -3.07552,2.83143 -2.14798,1.22045 -4.83296,1.22045 -2.29444,0 -4.1007,-0.92754 -1.80625,-0.92754 -2.83143,-2.44089 -0.97635,-1.56217 -0.97635,-3.36843 0,-2.92907 1.95271,-4.83296 1.95271,-1.95271 5.46759,-2.53853 l 8.29903,-1.3669 v -0.0976 q 0,-2.24562 -1.56217,-3.71015 -1.51335,-1.46454 -3.90543,-1.46454 -1.95271,0 -3.51488,0.87872 -1.51335,0.87872 -2.83143,2.34326 l -2.58734,-2.48971 q 1.56217,-1.85508 3.80778,-3.12434 2.24562,-1.26926 5.12587,-1.26926 z m -1.75744,20.89401 q 2.00153,0 3.66134,-0.97635 1.6598,-0.97636 2.58734,-2.63616 0.97636,-1.70863 0.97636,-3.75897 v -1.31808 l -7.32267,1.26926 q -2.1968,0.39054 -3.31961,1.41572 -1.07399,1.02517 -1.07399,2.44089 0,1.46453 1.22044,2.53852 1.26926,1.02517 3.27079,1.02517 z m 30.90167,3.51489 q -2.83144,0 -5.12587,-1.26927 -2.24562,-1.31808 -3.17316,-2.92906 h -0.0488 v 3.71015 h -4.00306 v -34.17246 h 4.00306 v 14.45007 h 0.0488 q 0.92754,-1.61099 3.17316,-2.88025 2.29443,-1.31808 5.12587,-1.31808 2.92907,0 5.41877,1.61098 2.53853,1.56217 4.05188,4.34479 1.51335,2.78261 1.51335,6.24868 0,3.46606 -1.51335,6.24867 -1.51335,2.78262 -4.05188,4.39361 -2.4897,1.56217 -5.41877,1.56217 z m -0.63463,-3.80779 q 2.05034,0 3.80778,-1.07399 1.75744,-1.12281 2.78262,-3.02671 1.07399,-1.90389 1.07399,-4.29596 0,-2.39208 -1.07399,-4.29597 -1.02518,-1.90389 -2.78262,-2.97789 -1.75744,-1.1228 -3.80778,-1.1228 -2.09917,0 -3.90543,1.07399 -1.75744,1.07399 -2.78261,3.0267 -1.02518,1.90389 -1.02518,4.29597 0,2.39207 1.02518,4.34478 1.02517,1.90389 2.78261,2.97789 1.80626,1.07399 3.90543,1.07399 z"
     id="text74"
     transform="matrix(0.98073271,0,0,0.98577113,99.01956,41.481366)"
     aria-label="Specialized Medical Artificial Intelligence Lab" />
  <text
     xml:space="preserve"
     id="text75"
     style="font-style:normal;font-variant:normal;font-weight:normal;font-stretch:normal;font-size:46.6667px;font-family:'TT Norms Pro';-inkscape-font-specification:'TT Norms Pro';text-align:start;writing-mode:lr-tb;direction:ltr;white-space:pre;shape-inside:url(#rect75);display:inline;fill:#cc3333;fill-rule:evenodd;stroke-width:4.04409;stroke-miterlimit:100;paint-order:stroke fill markers" />
</svg>
