<?xml version="1.0" encoding="UTF-8"?>
<svg id="Layer_2" data-name="Layer 2" xmlns="http://www.w3.org/2000/svg" viewBox="0 0 925.76 315.52">
  <defs>
    <style>
      .cls-1 {
        fill: #932727;
      }

      .cls-2 {
        fill: #c33;
      }
    </style>
  </defs>
  <g id="Layer_1-2" data-name="Layer 1">
    <g>
      <g>
        <path class="cls-2" d="M273.78,96.35c-.79-1.02-1.69-2-2.67-2.9-1.75-1.6-3.66-2.86-5.69-3.81-5.59-2.6-11.59-1.9-14.42-1.51-8.45,1.15-23.35,4.01-42.21,8.9-3.27.7-6.58,1.42-9.84,2.12,9.81,2.69,19.61,5.4,29.42,8.1h.03c15.14,5.35,27.87,17.14,33.81,33.39,3.91,10.62,4.37,21.66,1.94,31.88-.27,1.23-2.04,1.23-2.27-.03-.23-1.26-.56-2.54-1.02-3.82-.82-2.21-1.94-4.21-3.29-5.96-3.78-4.9-9.44-7.04-12.12-7.99-8.02-2.89-22.56-7.2-41.58-11.56-6.13-1.67-12.26-3.34-18.4-5.03-3.42,6.36-8.07,11.98-13.6,16.55h0c-11.73,8.36-23.42,16.73-35.13,25.1v4.25h-7.01v5.26h-7.01v5.26h-10.52v5.26h-3.51v5.26h-7.01v5.26h-7.01v10.51h-3.5v10.52h-3.51v-10.52h-3.51v-10.51h-3.5v-26.3h3.5v-10.51h3.51v-5.26h3.51v-5.26h3.5v-5.26h7.01v-5.26h7.01v-5.25h7.01v-5.26h7.02v-5.26h7.01v-5.26h6.93v-2.14c10.14-6.61,18.69-12.63,25.27-17.53,3.26-2.44,6.03-4.61,8.29-6.42t.04-.03c.43-.4.87-.75,1.28-1.09,2.18-1.81,6.75-5.76,8.63-11.66.65-2.13,1.02-4.41,1.02-6.74,0-3.87-.73-7.57-2.41-10.75-.03,0-.03-.02-.03-.02-1.25-1.46-2.46-2.73-3.59-3.83-1.17-1.18-2.23-2.13-3.15-2.92-.04-.04-.08-.06-.13-.1-.31-.23-.64-.46-.96-.69l-.2,1.74c-2.99,2.11-5.99,4.21-9,6.33-.33.19-.64.38-.97.59-8.02,5.69-16.01,11.42-24.01,17.14v1.33h-7.01v5.26h-7.01v5.26h-7.02v5.26h-3.5v5.26h-7.01v5.25h-7.01v5.26h-3.51v5.26h-3.5v10.52h-3.51v-5.26h-3.51v-10.52h-3.5v-31.55h3.5v-10.51h3.51v-5.26h3.51v-5.26h7.01v-5.26h7.01v-5.26h7.01v-5.26h7.01v-5.25h7.01v-5.26h7.02v-5.26h3.5v1.4c.05-.04.09-.09.15-.1,3.92-2.86,8.13-6.04,12.6-9.5,11.85-8.4,23.72-16.84,35.57-25.24,5.2-3.07,16.25-8.52,30.51-8.1,7.85.23,14.05,2.15,16.74,3.1,10.56,3.68,19.29,10.2,25.68,18.41.82,1.06-.4,2.48-1.58,1.85-1.02-.56-2.13-1.05-3.26-1.44-7.21-2.5-14.84-1.12-20.57,3.06-11.79,8.33-23.58,16.65-35.34,24.98-4.7,3.32-9.37,6.64-14.07,9.93,10.27-2.18,20.56-4.38,30.82-6.56h0s0,.01.03.01c15.87-2.25,32.61,2.36,45.38,14.05,8.34,7.61,13.83,17.2,16.42,27.4.31,1.23-1.25,2.04-2.03,1.02Z"/>
        <path class="cls-2" d="M172,68.32c-.42.32-.86.63-1.29.94l.2-1.74c.32.23.65.46.96.69.05.04.09.06.13.1Z"/>
        <path class="cls-2" d="M181.18,85.86c0,2.34-.37,4.61-1.02,6.74-1.88,5.9-6.45,9.84-8.63,11.66-.41.33-.84.69-1.28,1.09t-.04.03c-1.37.27-2.72.56-4.07.86l4.57-36.95.2-1.74c.32.23.65.46.96.69.05.04.09.06.13.1.92.79,1.98,1.75,3.15,2.92,1.12,1.1,2.34,2.37,3.59,3.83,0,0,0,.02.03.02,1.69,3.18,2.41,6.88,2.41,10.75Z"/>
        <path class="cls-1" d="M181.18,85.86c0,2.34-.37,4.61-1.02,6.74-1.88,5.9-6.45,9.84-8.63,11.66-.41.33-.84.69-1.28,1.09t-.04.03c-2.26,1.81-5.03,3.98-8.29,6.42-8.39-6.01-16.8-12-25.19-17.99v-.47c7.99-5.72,15.99-11.44,24.01-17.14.33-.2.64-.4.97-.59,3.01-2.12,6.01-4.23,9-6.33l1.29-.94c.52.45,1.2,1.04,1.96,1.77.56.53.97.94,1.19,1.16,1.12,1.1,2.34,2.37,3.59,3.83,0,0,0,.02.03.02,1.69,3.18,2.41,6.88,2.41,10.75Z"/>
        <path class="cls-1" d="M192.12,283.7c0,11.3-3.37,21.81-9.16,30.61-.2.33-.51.49-.82.52-.13.01-.24.01-.36,0-.57-.13-1.09-.64-.94-1.35.22-1.26.33-2.57.33-3.91,0-7.64-3.81-14.39-9.64-18.43-11.61-8.29-23.21-16.57-34.81-24.85-.03-.01-.05-.04-.08-.05v-.37s.05-.04.08-.05c11.71-8.38,23.41-16.73,35.11-25.09h0s.01-.01.01-.01c4.6,3.92,13.38,12.55,17.67,26.16,2.38,7.47,2.59,13.97,2.59,16.82Z"/>
        <path class="cls-1" d="M178.62,234.04c.09-.1.18-.22.27-.32-.09.1-.17.22-.26.32h-.01Z"/>
        <path class="cls-1" d="M180.23,232.07s.03-.03.04-.04c-.01.01-.01.03-.03.05-.13.14-.26.31-.4.47.14-.17.27-.32.38-.49Z"/>
        <path class="cls-1" d="M181.18,171.87c0,2.36-.37,4.62-1.03,6.74-1.85,5.9-6.44,9.85-8.63,11.68-2.49,2.08-5.84,4.71-9.91,7.74-8.3-5.91-16.59-11.84-24.87-17.74v-.5c11.71-8.38,23.39-16.74,35.13-25.09,1.79,1.51,4.19,3.74,6.72,6.68.01,0,.01.01.01.01,1.65,3.12,2.59,6.68,2.59,10.47Z"/>
        <path class="cls-1" d="M186.62,221.87c.13-.26.26-.52.38-.79-.11.27-.24.54-.37.8-.03.01-.04.04-.04.05.01-.03.01-.04.03-.06Z"/>
        <path class="cls-1" d="M189.53,180.86c.06.2.13.4.17.56-.11-.4-.26-.79-.38-1.17.09.19.17.41.22.61Z"/>
        <path class="cls-1" d="M190.38,183.82c.23.92.43,1.85.63,2.78-.19-.93-.41-1.86-.64-2.78-.03-.11-.06-.22-.09-.33.04.1.06.22.1.33Z"/>
        <path class="cls-1" d="M191.39,206.65c.04-.2.08-.41.1-.63-.03.2-.05.42-.09.63-.01.09-.03.19-.05.28.01-.1.03-.19.04-.28Z"/>
        <path class="cls-1" d="M191.58,205.4c.05-.33.09-.65.13-.98-.03.33-.06.65-.11.98-.03.2-.06.41-.1.63.04-.22.06-.42.09-.63Z"/>
        <path class="cls-1" d="M191.98,201.47c.01-.08.03-.15.03-.23-.01.08-.01.15-.01.23-.01.2-.03.42-.05.63.01-.2.03-.42.04-.63Z"/>
        <path class="cls-1" d="M192.08,199.93c-.01.2-.03.41-.03.6-.01.15-.03.32-.04.47.01-.17.01-.32.03-.47.01-.19.03-.4.04-.6Z"/>
        <path class="cls-2" d="M136.73,215.6v.14s-.05-.04-.08-.05v-.09h.08Z"/>
        <path class="cls-2" d="M178.5,161.22c.4.46.75.94,1.12,1.42-.34-.43-.69-.83-1.03-1.24,0,0,0-.01-.01-.01-.03-.06-.05-.1-.08-.17Z"/>
        <path class="cls-2" d="M180.65,231.54c.06-.09.13-.17.19-.24-.06.09-.11.17-.18.24-.01.01-.03.03-.03.04,0,0,.01-.01.01-.04Z"/>
        <path class="cls-2" d="M181.01,231.06c.04-.05.09-.1.14-.17-.04.06-.08.11-.13.17-.06.08-.11.15-.18.23.05-.08.11-.15.17-.23Z"/>
        <path class="cls-2" d="M181.27,164.74c.77,1.02,1.49,2.06,2.17,3.13-.13-.19-.26-.38-.4-.57-.59-.88-1.17-1.74-1.77-2.55Z"/>
        <path class="cls-2" d="M184.2,226.3c.15-.26.32-.52.47-.79-.15.27-.31.54-.46.8-.2.34-.41.69-.64,1.03.2-.34.42-.69.63-1.05Z"/>
        <path class="cls-2" d="M185.42,224.19c.08-.14.15-.28.23-.42-.06.14-.14.28-.22.42-.13.24-.27.47-.41.7.14-.23.27-.46.4-.7Z"/>
        <path class="cls-2" d="M186.54,222.02s.03-.03.03-.04c0,.01,0,.03-.01.04-.19.36-.37.73-.56,1.09.19-.36.37-.73.55-1.09Z"/>
        <path class="cls-2" d="M189.31,215.15c.19-.59.38-1.17.56-1.76-.17.6-.36,1.19-.55,1.78-.04.11-.08.22-.11.32.04-.1.06-.22.1-.33Z"/>
        <path class="cls-2" d="M190.37,211.59c.31-1.2.57-2.43.82-3.66-.23,1.23-.5,2.45-.82,3.66Z"/>
        <path class="cls-2" d="M192.12,197.72v.08c0,.26,0,.51-.01.77v-2.16c.01.43.01.87.01,1.32Z"/>
        <g>
          <rect class="cls-2" x="91.15" y="231.38" width="3.51" height="5.26"/>
          <path class="cls-2" d="M192.11,196.41v2.16c0,.27,0,.52-.01.77,0,.19-.01.4-.01.6-.01.2-.03.41-.04.6-.01.15-.01.31-.03.47-.01.08-.01.15-.01.23s-.01.15-.03.23c-.01.2-.03.42-.04.63-.03.45-.06.89-.11,1.34-.03.33-.06.66-.11.98-.04.33-.08.65-.13.98-.03.2-.05.41-.09.63-.03.22-.06.42-.1.63-.01.09-.03.18-.04.28-.05.31-.1.61-.17.92v.08c-.24,1.24-.51,2.46-.82,3.66-.15.6-.32,1.21-.5,1.8s-.37,1.17-.56,1.76c-.04.12-.06.23-.1.33-.03.11-.06.22-.1.32-.06.2-.14.41-.2.61h0c-.13.37-.26.73-.41,1.09-.46,1.21-.94,2.41-1.49,3.58-.13.27-.26.54-.38.79-.01.03-.01.04-.03.06h-.01s0,.04-.01.05c0,.01-.01.03-.03.04-.18.36-.36.73-.55,1.09-.11.22-.23.45-.34.66-.08.14-.15.28-.23.42-.13.24-.26.47-.4.7-.1.2-.22.41-.34.61-.15.27-.32.54-.47.79-.2.36-.42.7-.63,1.05-.2.34-.43.69-.66,1.03-.45.66-.91,1.33-1.38,1.99-.09.12-.18.23-.26.34-.04.06-.08.12-.13.18-.05.06-.1.11-.14.17-.05.08-.11.15-.17.23-.06.08-.13.15-.19.24,0,.03-.01.04-.01.04h0c-.13.14-.23.29-.34.42,0,.01-.01.03-.03.04-.01.01-.03.03-.04.04-.11.17-.24.32-.38.49-.32.4-.64.78-.96,1.16-.09.1-.18.22-.27.32-.03.03-.06.06-.08.09-.01.01-.03.01-.03.03h-.01c-1.02,1.2-2.07,2.34-3.18,3.42s-2.26,2.13-3.47,3.13h-.01v.03c-11.71,8.36-23.41,16.71-35.11,25.09-.03.01-.05.04-.08.05v.37s.05.04.08.05v1.9h-7.01v5.26h-7.01v5.25h-7.02v5.26h-7.01v5.26h-7.01v5.26h-3.5v5.26h-3.51v5.26h-3.5v10.51h-3.51v-5.26h-3.51v-10.51h-3.5v-26.29h3.5v-10.52h3.51v-5.26h3.51v-5.26h3.5v-5.26h3.51v-5.25h7.01v-5.26h7.01v-5.26h7.01v-5.26h7.01v-5.26h7.01v-5.26h3.43v.09s.05.04.08.05v-.14h-.08v-.27c3.74-2.44,7.27-4.8,10.55-7.06,5.49-3.75,10.32-7.19,14.4-10.24,4.07-3.03,7.42-5.66,9.91-7.74,2.2-1.84,6.78-5.78,8.63-11.68.66-2.12,1.03-4.38,1.03-6.74,0-3.79-.94-7.35-2.59-10.47.34.41.69.8,1.03,1.24.04.04.08.08.1.11.06.08.14.15.2.24.06.09.14.18.2.26.15.2.31.4.46.6.22.29.45.59.68.89.6.82,1.19,1.67,1.77,2.55.14.19.27.38.4.57.49.77.94,1.53,1.4,2.32.18.32.36.64.52.97.08.13.14.27.22.4t.01.03s.05.05.06.09h0c.36.68.69,1.35,1.03,2.04.29.63.59,1.26.86,1.9.33.75.64,1.52.93,2.29.15.38.29.77.43,1.15.13.4.27.79.4,1.19.13.38.27.78.38,1.17.11.38.24.79.36,1.2h0c.08.29.15.59.23.87.03.11.06.22.09.33.23.92.45,1.85.64,2.78.56,2.81.93,5.69,1.05,8.64.01.38.04.77.05,1.16Z"/>
          <path class="cls-2" d="M136.73,215.6v.14s-.05-.04-.08-.05v-.09h.08Z"/>
          <path class="cls-2" d="M136.73,265.82v.47s-.05-.04-.08-.05v-.37s.05-.04.08-.05Z"/>
        </g>
        <g>
          <polygon class="cls-1" points="133.22 215.6 133.22 220.86 126.21 220.86 126.21 226.12 119.2 226.12 119.2 231.38 112.19 231.38 112.19 236.64 105.18 236.64 105.18 241.91 98.17 241.91 98.17 236.64 94.66 236.64 94.66 231.38 91.16 231.38 91.16 220.86 94.66 220.86 94.66 210.35 101.67 210.35 101.67 205.09 108.68 205.09 108.68 199.83 115.69 199.83 115.69 205.09 122.71 205.09 122.71 210.35 129.72 210.35 129.72 215.6 133.22 215.6"/>
          <polygon class="cls-1" points="133.22 126.21 133.22 131.47 129.72 131.47 129.72 136.73 122.71 136.73 122.71 141.99 115.69 141.99 115.69 147.25 108.68 147.25 108.68 152.5 94.66 152.5 94.66 147.25 91.16 147.25 91.16 131.47 94.66 131.47 94.66 126.21 98.17 126.21 98.17 120.94 105.18 120.94 105.18 115.7 119.2 115.7 119.2 120.94 126.21 120.94 126.21 126.21 133.22 126.21"/>
          <polygon class="cls-1" points="129.71 42.07 129.71 36.81 126.21 36.81 122.7 36.81 122.7 31.55 119.2 31.55 115.69 31.55 115.69 26.29 112.19 26.29 108.68 26.29 108.68 21.04 105.17 21.04 101.67 21.04 101.67 15.78 98.16 15.78 94.66 15.78 94.66 10.52 91.15 10.52 87.64 10.52 87.64 5.26 84.14 5.26 80.63 5.26 77.13 5.26 73.62 5.26 73.62 0 70.12 0 66.61 0 63.1 0 59.6 0 56.09 0 52.59 0 49.08 0 45.58 0 42.07 0 42.07 5.26 38.56 5.26 35.06 5.26 31.55 5.26 31.55 10.52 28.05 10.52 24.54 10.52 21.03 10.52 21.03 15.78 17.53 15.78 17.53 21.04 21.03 21.04 24.54 21.04 28.05 21.04 31.55 21.04 35.06 21.04 38.56 21.04 38.56 26.29 42.07 26.29 45.58 26.29 45.58 31.55 49.08 31.55 52.59 31.55 52.59 36.81 56.09 36.81 59.6 36.81 59.6 42.07 63.1 42.07 66.61 42.07 66.61 47.33 70.12 47.33 73.62 47.33 73.62 52.59 77.13 52.59 80.63 52.59 80.63 57.85 77.13 57.85 73.62 57.85 70.12 57.85 66.61 57.85 66.61 52.59 63.1 52.59 59.6 52.59 56.09 52.59 52.59 52.59 49.08 52.59 45.58 52.59 42.07 52.59 38.56 52.59 35.06 52.59 35.06 57.85 31.55 57.85 28.05 57.85 24.54 57.85 21.03 57.85 21.03 63.1 17.53 63.1 17.53 68.36 14.02 68.36 10.52 68.36 10.52 73.62 7.01 73.62 7.01 78.88 3.51 78.88 3.51 84.14 0 84.14 0 89.4 0 94.66 3.51 94.66 3.51 89.4 7.01 89.4 10.52 89.4 14.02 89.4 17.53 89.4 21.03 89.4 24.54 89.4 28.05 89.4 31.55 89.4 35.06 89.4 38.56 89.4 42.07 89.4 42.07 94.66 45.58 94.66 49.08 94.66 52.59 94.66 56.09 94.66 59.6 94.66 63.1 94.66 63.1 99.91 63.1 105.17 59.6 105.17 56.09 105.17 52.59 105.17 49.08 105.17 45.58 105.17 42.07 105.17 42.07 110.43 38.56 110.43 35.06 110.43 31.55 110.43 31.55 115.69 28.05 115.69 24.54 115.69 24.54 120.95 21.03 120.95 21.03 126.21 17.53 126.21 17.53 131.47 14.02 131.47 14.02 136.73 10.52 136.73 10.52 141.98 10.52 147.24 7.01 147.24 7.01 152.5 7.01 157.76 7.01 163.02 7.01 168.28 7.01 173.54 10.52 173.54 10.52 168.28 14.02 168.28 14.02 163.02 17.53 163.02 17.53 157.76 21.03 157.76 24.54 157.76 28.05 157.76 28.05 152.5 31.55 152.5 35.06 152.5 38.56 152.5 42.07 152.5 45.58 152.5 45.58 147.24 49.08 147.24 52.59 147.24 56.09 147.24 59.6 147.24 63.1 147.24 66.61 147.24 66.61 141.98 70.12 141.98 73.62 141.98 77.13 141.98 80.63 141.98 84.14 141.98 87.64 141.98 87.64 136.73 84.14 136.73 84.14 131.47 84.14 126.21 80.63 126.21 80.63 120.95 80.63 115.69 80.63 110.43 80.63 105.17 80.63 99.91 80.63 94.66 84.14 94.66 84.14 89.4 84.14 84.14 87.64 84.14 87.64 78.88 91.15 78.88 91.15 73.62 94.66 73.62 98.16 73.62 98.16 68.36 101.67 68.36 105.17 68.36 105.17 63.1 108.68 63.1 112.19 63.1 112.19 57.85 115.69 57.85 119.2 57.85 119.2 52.59 122.7 52.59 126.21 52.59 126.21 47.33 129.71 47.33 133.22 47.33 133.22 42.07 129.71 42.07"/>
        </g>
      </g>
      <g>
        <g>
          <path class="cls-2" d="M385.99,141.18c-7.26-2.03-13.06-4.38-17.42-7.04-4.35-2.66-7.45-5.05-9.29-7.18l18.58-22.06c2.81,2.52,6.84,4.96,12.12,7.33,5.27,2.37,10.96,3.56,17.05,3.56,3.87,0,6.77-.55,8.71-1.67,1.93-1.11,2.9-2.49,2.9-4.14,0-1.94-1.36-3.56-4.06-4.86-2.71-1.31-7.11-2.88-13.21-4.72-7.74-2.42-14.15-4.74-19.23-6.97-5.08-2.22-9.51-5.44-13.28-9.65-3.77-4.21-5.66-9.51-5.66-15.89,0-5.9,1.86-11.27,5.59-16.11,3.72-4.84,9.12-8.68,16.18-11.54,7.06-2.85,15.38-4.28,24.96-4.28,8.03,0,15.36.87,21.99,2.61,6.63,1.74,12.07,3.7,16.33,5.88,4.26,2.18,7.35,4.14,9.29,5.88l-18.58,21.62c-.87-.77-2.59-1.79-5.15-3.05-2.56-1.26-5.54-2.34-8.93-3.27-3.39-.92-6.82-1.38-10.31-1.38s-5.98.44-7.77,1.31c-1.79.87-2.69,2.03-2.69,3.48,0,1.74,1.28,3.17,3.85,4.28,2.56,1.11,6.7,2.49,12.41,4.14,7.74,2.23,14.25,4.48,19.52,6.75,5.27,2.27,9.89,5.59,13.86,9.94,3.97,4.35,5.95,9.87,5.95,16.54s-1.89,12.24-5.66,17.27c-3.77,5.03-9.34,9-16.69,11.9-7.35,2.9-16.11,4.35-26.27,4.35-9.48,0-17.85-1.02-25.11-3.05Z"/>
          <path class="cls-2" d="M514.58,140.89h-38.17V39.29h34.54l34.11,35.99h.44l34.11-35.99h33.96v101.6h-38.03v-55.15h-.58l-29.9,31.49-29.9-31.49h-.58v55.15Z"/>
          <path class="cls-2" d="M665.96,140.89h-39.33l43.98-101.6h44.99l43.83,101.6h-40.2l-6.68-18h-39.77l-6.82,18ZM692.52,68.17l-10.74,30.48h21.92l-10.6-30.48h-.58Z"/>
          <path class="cls-2" d="M810.67,140.89h-38.17V39.29h38.17v101.6Z"/>
          <path class="cls-2" d="M925.76,140.89h-90.42V39.29h38.17v70.39h52.25v31.21Z"/>
        </g>
        <g>
          <path class="cls-1" d="M363.94,209.4c-1.99-1-3.54-2.17-4.65-3.51l2.48-2.39c.99,1.11,2.23,2.06,3.72,2.84,1.5.78,3.21,1.17,5.16,1.17,2.48,0,4.4-.57,5.75-1.72,1.35-1.15,2.03-2.61,2.03-4.39,0-1.18-.35-2.16-1.05-2.94-.7-.78-1.58-1.39-2.63-1.84-1.05-.45-2.47-.94-4.25-1.48-2.23-.7-4.02-1.36-5.37-1.98-1.35-.62-2.51-1.54-3.46-2.77-.96-1.22-1.43-2.84-1.43-4.84,0-1.62.45-3.13,1.34-4.51.89-1.38,2.16-2.48,3.82-3.29,1.65-.81,3.56-1.22,5.73-1.22s4.06.41,5.8,1.24c1.73.83,3.11,1.78,4.13,2.86l-2.43,2.39c-.83-.83-1.88-1.55-3.15-2.17-1.27-.62-2.72-.93-4.34-.93-2.29,0-4.08.54-5.37,1.62-1.29,1.08-1.93,2.42-1.93,4.01,0,1.18.35,2.16,1.05,2.94.7.78,1.58,1.39,2.63,1.84,1.05.45,2.47.94,4.25,1.48,2.2.67,3.99,1.32,5.37,1.96s2.55,1.57,3.51,2.79c.96,1.23,1.43,2.84,1.43,4.85,0,1.75-.46,3.35-1.38,4.8-.92,1.45-2.25,2.59-3.99,3.44-1.73.84-3.75,1.27-6.04,1.27-2.48,0-4.72-.5-6.71-1.5Z"/>
          <path class="cls-1" d="M401.37,188.18c1.35.76,2.41,1.82,3.17,3.17.76,1.35,1.15,2.91,1.15,4.66v14.42h-3.1v-3.68h-.05c-.6,1.05-1.62,2-3.06,2.86s-3.07,1.29-4.92,1.29c-1.5,0-2.83-.3-3.99-.91-1.16-.6-2.07-1.41-2.72-2.41-.65-1-.98-2.08-.98-3.22,0-1.85.64-3.4,1.91-4.66,1.27-1.26,3.07-2.08,5.39-2.46l8.31-1.38v-.05c0-1.72-.53-3.1-1.6-4.15-1.07-1.05-2.46-1.58-4.18-1.58-1.34,0-2.51.29-3.51.88-1,.59-1.97,1.36-2.89,2.32l-2.15-2.05c.96-1.18,2.16-2.17,3.63-2.98,1.46-.81,3.1-1.22,4.92-1.22s3.3.38,4.65,1.15ZM398.74,206.94c1.16-.67,2.08-1.58,2.75-2.75.67-1.16,1-2.46,1-3.89v-1.62l-7.54,1.24c-1.62.29-2.83.8-3.63,1.53-.8.73-1.19,1.64-1.19,2.72s.44,1.94,1.31,2.67c.88.73,2.03,1.1,3.46,1.1s2.68-.33,3.84-1Z"/>
          <path class="cls-1" d="M417.24,209.67c-1.4-.83-2.5-1.99-3.29-3.49-.8-1.5-1.19-3.21-1.19-5.16v-13.51h3.25v13.51c0,2,.6,3.63,1.79,4.87s2.71,1.86,4.56,1.86c1.34,0,2.55-.33,3.63-.98,1.08-.65,1.94-1.55,2.58-2.7.64-1.15.96-2.43.96-3.87v-12.7h3.25v22.92h-3.25v-3.68h-.05c-.57,1.05-1.54,2-2.89,2.86-1.35.86-2.89,1.29-4.61,1.29s-3.33-.41-4.73-1.24Z"/>
          <path class="cls-1" d="M444.14,209.35c-1.64-1.03-2.95-2.46-3.94-4.27-.99-1.81-1.48-3.85-1.48-6.11s.49-4.3,1.48-6.11c.99-1.81,2.3-3.24,3.94-4.27,1.64-1.03,3.41-1.55,5.32-1.55s3.66.45,5.16,1.36c1.5.91,2.56,1.93,3.2,3.08h.1v-14.46h3.2v33.42h-3.2v-3.96h-.1c-.64,1.15-1.7,2.17-3.2,3.08-1.5.91-3.21,1.36-5.16,1.36s-3.68-.52-5.32-1.55ZM453.88,206.61c1.22-.76,2.2-1.81,2.94-3.15.73-1.34,1.1-2.83,1.1-4.49s-.37-3.2-1.1-4.54c-.73-1.34-1.71-2.38-2.94-3.13-1.23-.75-2.57-1.12-4.03-1.12s-2.71.38-3.91,1.12c-1.21.75-2.17,1.79-2.89,3.13-.72,1.34-1.07,2.85-1.07,4.54s.36,3.15,1.07,4.49c.72,1.34,1.68,2.39,2.89,3.15,1.21.76,2.51,1.15,3.91,1.15s2.81-.38,4.03-1.15Z"/>
          <path class="cls-1" d="M469.25,181.88c-.43-.41-.64-.92-.64-1.53s.21-1.11.64-1.53c.43-.41.93-.62,1.5-.62.6,0,1.12.21,1.55.62.43.41.64.92.64,1.53s-.21,1.11-.64,1.53c-.43.41-.95.62-1.55.62-.57,0-1.07-.21-1.5-.62ZM472.38,210.43h-3.25v-22.92h3.25v22.92Z"/>
          <path class="cls-1" d="M495.96,210.43h-3.58v-33.42h3.15l13.84,18.28h.1l13.84-18.28h3.06v33.42h-3.58v-27.02h-.1l-13.32,17.52-13.27-17.52h-.14v27.02Z"/>
          <path class="cls-1" d="M539.41,209.31c-1.75-1.07-3.15-2.51-4.2-4.32s-1.58-3.82-1.58-6.02.51-4.25,1.53-6.06c1.02-1.81,2.39-3.25,4.11-4.3,1.72-1.05,3.6-1.58,5.63-1.58s3.83.49,5.47,1.48c1.64.99,2.94,2.37,3.89,4.15.95,1.78,1.43,3.79,1.43,6.01,0,.51-.03,1.02-.1,1.53h-18.62c.16,1.4.62,2.67,1.38,3.82.76,1.15,1.74,2.05,2.94,2.72,1.19.67,2.51,1,3.94,1,2.64,0,4.98-1.15,7.02-3.44l2.24,2.05c-1.02,1.27-2.31,2.35-3.87,3.22-1.56.87-3.39,1.31-5.49,1.31s-3.98-.53-5.73-1.6ZM552.39,197.4c-.29-2.23-1.1-4-2.44-5.32-1.34-1.32-3.02-1.98-5.06-1.98-1.34,0-2.59.33-3.75.98-1.16.65-2.12,1.54-2.86,2.65-.75,1.11-1.2,2.34-1.36,3.68h15.47Z"/>
          <path class="cls-1" d="M565.26,209.35c-1.64-1.03-2.95-2.46-3.94-4.27-.99-1.81-1.48-3.85-1.48-6.11s.49-4.3,1.48-6.11c.99-1.81,2.3-3.24,3.94-4.27,1.64-1.03,3.41-1.55,5.32-1.55s3.66.45,5.16,1.36c1.5.91,2.56,1.93,3.2,3.08h.1v-14.46h3.2v33.42h-3.2v-3.96h-.1c-.64,1.15-1.7,2.17-3.2,3.08-1.5.91-3.21,1.36-5.16,1.36s-3.68-.52-5.32-1.55ZM575,206.61c1.22-.76,2.2-1.81,2.94-3.15.73-1.34,1.1-2.83,1.1-4.49s-.37-3.2-1.1-4.54c-.73-1.34-1.71-2.38-2.94-3.13-1.23-.75-2.57-1.12-4.03-1.12s-2.71.38-3.91,1.12c-1.21.75-2.17,1.79-2.89,3.13-.72,1.34-1.07,2.85-1.07,4.54s.36,3.15,1.07,4.49c.72,1.34,1.68,2.39,2.89,3.15,1.21.76,2.51,1.15,3.91,1.15s2.81-.38,4.03-1.15Z"/>
          <path class="cls-1" d="M590.37,181.88c-.43-.41-.64-.92-.64-1.53s.21-1.11.64-1.53c.43-.41.93-.62,1.5-.62.6,0,1.12.21,1.55.62.43.41.64.92.64,1.53s-.21,1.11-.64,1.53c-.43.41-.95.62-1.55.62-.57,0-1.07-.21-1.5-.62ZM593.49,210.43h-3.25v-22.92h3.25v22.92Z"/>
          <path class="cls-1" d="M605.41,209.31c-1.77-1.07-3.17-2.51-4.2-4.32-1.03-1.81-1.55-3.82-1.55-6.02s.52-4.2,1.55-6.01c1.03-1.81,2.43-3.25,4.2-4.32,1.77-1.07,3.68-1.6,5.75-1.6s3.95.47,5.56,1.41c1.61.94,2.87,2.03,3.8,3.27l-2.39,1.96c-1.88-2.32-4.2-3.49-6.97-3.49-1.5,0-2.87.38-4.13,1.15-1.26.76-2.26,1.82-3.01,3.17-.75,1.35-1.12,2.84-1.12,4.46s.37,3.11,1.12,4.46c.75,1.35,1.75,2.41,3.01,3.17,1.26.76,2.63,1.15,4.13,1.15s2.93-.35,4.11-1.05c1.18-.7,2.16-1.54,2.96-2.53l2.39,1.96c-.92,1.27-2.2,2.39-3.84,3.34-1.64.96-3.51,1.43-5.61,1.43s-3.99-.53-5.75-1.6Z"/>
          <path class="cls-1" d="M638.92,188.18c1.35.76,2.41,1.82,3.17,3.17.76,1.35,1.15,2.91,1.15,4.66v14.42h-3.1v-3.68h-.05c-.6,1.05-1.62,2-3.06,2.86s-3.07,1.29-4.92,1.29c-1.5,0-2.83-.3-3.99-.91-1.16-.6-2.07-1.41-2.72-2.41-.65-1-.98-2.08-.98-3.22,0-1.85.64-3.4,1.91-4.66,1.27-1.26,3.07-2.08,5.39-2.46l8.31-1.38v-.05c0-1.72-.53-3.1-1.6-4.15-1.07-1.05-2.46-1.58-4.18-1.58-1.34,0-2.51.29-3.51.88-1,.59-1.97,1.36-2.89,2.32l-2.15-2.05c.96-1.18,2.16-2.17,3.63-2.98,1.46-.81,3.1-1.22,4.92-1.22s3.3.38,4.65,1.15ZM636.29,206.94c1.16-.67,2.08-1.58,2.75-2.75.67-1.16,1-2.46,1-3.89v-1.62l-7.54,1.24c-1.62.29-2.83.8-3.63,1.53-.8.73-1.19,1.64-1.19,2.72s.44,1.94,1.31,2.67c.88.73,2.03,1.1,3.46,1.1s2.68-.33,3.84-1Z"/>
          <path class="cls-1" d="M654.03,210.43h-3.25v-33.42h3.25v33.42Z"/>
          <path class="cls-1" d="M672.22,210.43h-3.68l13.56-33.42h3.96l13.56,33.42h-3.87l-3.77-9.31h-15.95l-3.82,9.31ZM683.96,181.31l-6.64,16.47h13.32l-6.59-16.47h-.1Z"/>
          <path class="cls-1" d="M704.39,210.43v-22.92h3.25v3.58h.05c.6-1.05,1.58-1.99,2.94-2.82,1.35-.83,2.89-1.24,4.61-1.24h1.05v3.34c-.45-.06-.89-.1-1.34-.1-1.34,0-2.56.33-3.68,1-1.11.67-2,1.59-2.65,2.77-.65,1.18-.98,2.5-.98,3.96v12.41h-3.25Z"/>
          <path class="cls-1" d="M724.66,208.93c-1.1-1.16-1.65-2.86-1.65-5.08v-13.18h-4.44v-3.15h2.91c.57,0,1.03-.18,1.36-.55.33-.37.5-.92.5-1.65v-5.44h2.91v7.64h5.63v3.15h-5.63v12.99c0,1.24.31,2.2.93,2.86.62.67,1.47,1,2.55,1,.92,0,1.89-.24,2.91-.72v3.15c-.38.19-.88.36-1.48.5-.6.14-1.23.21-1.86.21-2,0-3.56-.58-4.65-1.74Z"/>
          <path class="cls-1" d="M738.41,181.88c-.43-.41-.64-.92-.64-1.53s.21-1.11.64-1.53c.43-.41.93-.62,1.5-.62.6,0,1.12.21,1.55.62.43.41.64.92.64,1.53s-.21,1.11-.64,1.53c-.43.41-.95.62-1.55.62-.57,0-1.07-.21-1.5-.62ZM741.54,210.43h-3.25v-22.92h3.25v22.92Z"/>
          <path class="cls-1" d="M751.51,210.43v-19.76h-4.44v-3.15h4.44v-4.2c0-2.2.55-3.87,1.65-5.04,1.1-1.16,2.65-1.74,4.65-1.74.64,0,1.26.07,1.86.21.6.14,1.1.31,1.48.5v3.15c-1.05-.48-2.02-.72-2.91-.72-1.08,0-1.93.33-2.55,1-.62.67-.93,1.62-.93,2.86v3.96h13.46v22.92h-3.25v-19.76h-10.22v19.76h-3.25ZM765.1,181.88c-.43-.41-.64-.92-.64-1.53s.21-1.11.64-1.53c.43-.41.95-.62,1.55-.62.57,0,1.07.21,1.5.62.43.41.64.92.64,1.53s-.21,1.11-.64,1.53c-.43.41-.93.62-1.5.62-.6,0-1.12-.21-1.55-.62Z"/>
          <path class="cls-1" d="M780.18,209.31c-1.77-1.07-3.17-2.51-4.2-4.32-1.03-1.81-1.55-3.82-1.55-6.02s.52-4.2,1.55-6.01c1.03-1.81,2.43-3.25,4.2-4.32,1.77-1.07,3.68-1.6,5.75-1.6s3.95.47,5.56,1.41c1.61.94,2.87,2.03,3.8,3.27l-2.39,1.96c-1.88-2.32-4.2-3.49-6.97-3.49-1.5,0-2.87.38-4.13,1.15-1.26.76-2.26,1.82-3.01,3.17-.75,1.35-1.12,2.84-1.12,4.46s.37,3.11,1.12,4.46c.75,1.35,1.75,2.41,3.01,3.17,1.26.76,2.63,1.15,4.13,1.15s2.93-.35,4.11-1.05c1.18-.7,2.16-1.54,2.96-2.53l2.39,1.96c-.92,1.27-2.2,2.39-3.84,3.34-1.64.96-3.51,1.43-5.61,1.43s-3.99-.53-5.75-1.6Z"/>
          <path class="cls-1" d="M801.14,181.88c-.43-.41-.64-.92-.64-1.53s.21-1.11.64-1.53c.43-.41.93-.62,1.5-.62.6,0,1.12.21,1.55.62.43.41.64.92.64,1.53s-.21,1.11-.64,1.53c-.43.41-.95.62-1.55.62-.57,0-1.07-.21-1.5-.62ZM804.27,210.43h-3.25v-22.92h3.25v22.92Z"/>
          <path class="cls-1" d="M824.91,188.18c1.35.76,2.41,1.82,3.17,3.17.76,1.35,1.15,2.91,1.15,4.66v14.42h-3.1v-3.68h-.05c-.6,1.05-1.62,2-3.06,2.86s-3.07,1.29-4.92,1.29c-1.5,0-2.83-.3-3.99-.91-1.16-.6-2.07-1.41-2.72-2.41-.65-1-.98-2.08-.98-3.22,0-1.85.64-3.4,1.91-4.66,1.27-1.26,3.07-2.08,5.39-2.46l8.31-1.38v-.05c0-1.72-.53-3.1-1.6-4.15-1.07-1.05-2.46-1.58-4.18-1.58-1.34,0-2.51.29-3.51.88-1,.59-1.97,1.36-2.89,2.32l-2.15-2.05c.96-1.18,2.16-2.17,3.63-2.98,1.46-.81,3.1-1.22,4.92-1.22s3.3.38,4.65,1.15ZM822.29,206.94c1.16-.67,2.08-1.58,2.75-2.75.67-1.16,1-2.46,1-3.89v-1.62l-7.54,1.24c-1.62.29-2.83.8-3.63,1.53-.8.73-1.19,1.64-1.19,2.72s.44,1.94,1.31,2.67c.88.73,2.03,1.1,3.46,1.1s2.68-.33,3.84-1Z"/>
          <path class="cls-1" d="M840.02,210.43h-3.25v-33.42h3.25v33.42Z"/>
          <path class="cls-1" d="M365.49,267.72h-3.58v-33.42h3.58v33.42Z"/>
          <path class="cls-1" d="M374.32,267.72v-22.92h3.25v3.68h.05c.6-1.08,1.58-2.04,2.94-2.89,1.35-.84,2.87-1.27,4.56-1.27s3.33.41,4.73,1.24c1.4.83,2.5,1.99,3.29,3.49.79,1.5,1.19,3.21,1.19,5.16v13.51h-3.25v-13.51c0-2-.6-3.63-1.79-4.87-1.19-1.24-2.71-1.86-4.56-1.86-1.34,0-2.55.33-3.63.98s-1.94,1.55-2.58,2.7c-.64,1.15-.96,2.43-.96,3.87v12.7h-3.25Z"/>
          <path class="cls-1" d="M404.8,266.21c-1.1-1.16-1.65-2.86-1.65-5.08v-13.18h-4.44v-3.15h2.91c.57,0,1.03-.18,1.36-.55.33-.37.5-.92.5-1.65v-5.44h2.91v7.64h5.63v3.15h-5.63v12.99c0,1.24.31,2.2.93,2.86.62.67,1.47,1,2.55,1,.92,0,1.89-.24,2.91-.72v3.15c-.38.19-.88.36-1.48.5-.6.14-1.23.21-1.86.21-2,0-3.56-.58-4.65-1.74Z"/>
          <path class="cls-1" d="M421.92,266.6c-1.75-1.07-3.15-2.51-4.2-4.32s-1.58-3.82-1.58-6.02.51-4.25,1.53-6.06c1.02-1.81,2.39-3.25,4.11-4.3,1.72-1.05,3.6-1.58,5.63-1.58s3.83.49,5.47,1.48c1.64.99,2.94,2.37,3.89,4.15.95,1.78,1.43,3.79,1.43,6.01,0,.51-.03,1.02-.1,1.53h-18.62c.16,1.4.62,2.67,1.38,3.82.76,1.15,1.74,2.05,2.94,2.72,1.19.67,2.51,1,3.94,1,2.64,0,4.98-1.15,7.02-3.44l2.24,2.05c-1.02,1.27-2.31,2.35-3.87,3.22-1.56.87-3.39,1.31-5.49,1.31s-3.98-.53-5.73-1.6ZM434.9,254.68c-.29-2.23-1.1-4-2.44-5.32-1.34-1.32-3.02-1.98-5.06-1.98-1.34,0-2.59.33-3.75.98-1.16.65-2.12,1.54-2.86,2.65-.75,1.11-1.2,2.34-1.36,3.68h15.47Z"/>
          <path class="cls-1" d="M447.41,267.72h-3.25v-33.42h3.25v33.42Z"/>
          <path class="cls-1" d="M458.63,267.72h-3.25v-33.42h3.25v33.42Z"/>
          <path class="cls-1" d="M466.72,239.17c-.43-.41-.64-.92-.64-1.53s.21-1.11.64-1.53c.43-.41.93-.62,1.5-.62.6,0,1.12.21,1.55.62.43.41.64.92.64,1.53s-.21,1.11-.64,1.53c-.43.41-.95.62-1.55.62-.57,0-1.07-.21-1.5-.62ZM469.85,267.72h-3.25v-22.92h3.25v22.92Z"/>
          <path class="cls-1" d="M480.92,276.24c-1.81-1-3.12-2.09-3.91-3.27l2.34-2.15c.6.92,1.6,1.78,2.98,2.58,1.38.8,2.86,1.19,4.42,1.19,2.29,0,4.15-.8,5.59-2.39s2.15-3.63,2.15-6.11v-3.2h-.05c-.8,1.34-1.93,2.39-3.39,3.17-1.46.78-3.01,1.17-4.63,1.17-1.88,0-3.61-.49-5.2-1.48-1.59-.99-2.86-2.36-3.8-4.11-.94-1.75-1.41-3.71-1.41-5.87s.47-4.12,1.41-5.87c.94-1.75,2.2-3.12,3.8-4.11,1.59-.99,3.33-1.48,5.2-1.48s3.44.45,4.87,1.34c1.43.89,2.48,1.88,3.15,2.96h.05v-3.82h3.25v21.29c0,2.2-.48,4.18-1.43,5.94-.95,1.77-2.27,3.16-3.94,4.18-1.67,1.02-3.54,1.53-5.61,1.53s-4.01-.5-5.82-1.5ZM490.69,263.02c1.16-.72,2.08-1.7,2.77-2.96.68-1.26,1.03-2.68,1.03-4.27s-.34-3.02-1.03-4.3c-.69-1.27-1.61-2.26-2.77-2.96-1.16-.7-2.46-1.05-3.89-1.05s-2.63.35-3.8,1.05c-1.16.7-2.08,1.69-2.75,2.96-.67,1.27-1,2.71-1,4.3s.33,3.02,1,4.27c.67,1.26,1.58,2.24,2.75,2.96,1.16.72,2.43,1.07,3.8,1.07s2.73-.36,3.89-1.07Z"/>
          <path class="cls-1" d="M509.47,266.6c-1.75-1.07-3.15-2.51-4.2-4.32s-1.58-3.82-1.58-6.02.51-4.25,1.53-6.06c1.02-1.81,2.39-3.25,4.11-4.3,1.72-1.05,3.6-1.58,5.63-1.58s3.83.49,5.47,1.48c1.64.99,2.94,2.37,3.89,4.15.95,1.78,1.43,3.79,1.43,6.01,0,.51-.03,1.02-.1,1.53h-18.62c.16,1.4.62,2.67,1.38,3.82.76,1.15,1.74,2.05,2.94,2.72,1.19.67,2.51,1,3.94,1,2.64,0,4.98-1.15,7.02-3.44l2.24,2.05c-1.02,1.27-2.31,2.35-3.87,3.22-1.56.87-3.39,1.31-5.49,1.31s-3.98-.53-5.73-1.6ZM522.46,254.68c-.29-2.23-1.1-4-2.44-5.32-1.34-1.32-3.02-1.98-5.06-1.98-1.34,0-2.59.33-3.75.98-1.16.65-2.12,1.54-2.86,2.65-.75,1.11-1.2,2.34-1.36,3.68h15.47Z"/>
          <path class="cls-1" d="M531.48,267.72v-22.92h3.25v3.68h.05c.6-1.08,1.58-2.04,2.94-2.89,1.35-.84,2.87-1.27,4.56-1.27s3.33.41,4.73,1.24c1.4.83,2.5,1.99,3.29,3.49.79,1.5,1.19,3.21,1.19,5.16v13.51h-3.25v-13.51c0-2-.6-3.63-1.79-4.87-1.19-1.24-2.71-1.86-4.56-1.86-1.34,0-2.55.33-3.63.98s-1.94,1.55-2.58,2.7c-.64,1.15-.96,2.43-.96,3.87v12.7h-3.25Z"/>
          <path class="cls-1" d="M562.97,266.6c-1.77-1.07-3.17-2.51-4.2-4.32-1.03-1.81-1.55-3.82-1.55-6.02s.52-4.2,1.55-6.01c1.03-1.81,2.43-3.25,4.2-4.32,1.77-1.07,3.68-1.6,5.75-1.6s3.95.47,5.56,1.41c1.61.94,2.87,2.03,3.8,3.27l-2.39,1.96c-1.88-2.32-4.2-3.49-6.97-3.49-1.5,0-2.87.38-4.13,1.15-1.26.76-2.26,1.82-3.01,3.17-.75,1.35-1.12,2.84-1.12,4.46s.37,3.11,1.12,4.46c.75,1.35,1.75,2.41,3.01,3.17,1.26.76,2.63,1.15,4.13,1.15s2.93-.35,4.11-1.05c1.18-.7,2.16-1.54,2.96-2.53l2.39,1.96c-.92,1.27-2.2,2.39-3.84,3.34-1.64.96-3.51,1.43-5.61,1.43s-3.99-.53-5.75-1.6Z"/>
          <path class="cls-1" d="M587.29,266.6c-1.75-1.07-3.15-2.51-4.2-4.32s-1.58-3.82-1.58-6.02.51-4.25,1.53-6.06c1.02-1.81,2.39-3.25,4.11-4.3,1.72-1.05,3.6-1.58,5.63-1.58s3.83.49,5.47,1.48c1.64.99,2.94,2.37,3.89,4.15.95,1.78,1.43,3.79,1.43,6.01,0,.51-.03,1.02-.1,1.53h-18.62c.16,1.4.62,2.67,1.38,3.82.76,1.15,1.74,2.05,2.94,2.72,1.19.67,2.51,1,3.94,1,2.64,0,4.98-1.15,7.02-3.44l2.24,2.05c-1.02,1.27-2.31,2.35-3.87,3.22-1.56.87-3.39,1.31-5.49,1.31s-3.98-.53-5.73-1.6ZM600.27,254.68c-.29-2.23-1.1-4-2.44-5.32-1.34-1.32-3.02-1.98-5.06-1.98-1.34,0-2.59.33-3.75.98-1.16.65-2.12,1.54-2.86,2.65-.75,1.11-1.2,2.34-1.36,3.68h15.47Z"/>
          <path class="cls-1" d="M642.33,267.72h-20.77v-33.42h3.58v30.03h17.19v3.39Z"/>
          <path class="cls-1" d="M659.97,245.47c1.35.76,2.41,1.82,3.17,3.17.76,1.35,1.15,2.91,1.15,4.66v14.42h-3.1v-3.68h-.05c-.6,1.05-1.62,2-3.06,2.86s-3.07,1.29-4.92,1.29c-1.5,0-2.83-.3-3.99-.91-1.16-.6-2.07-1.41-2.72-2.41-.65-1-.98-2.08-.98-3.22,0-1.85.64-3.4,1.91-4.66,1.27-1.26,3.07-2.08,5.39-2.46l8.31-1.38v-.05c0-1.72-.53-3.1-1.6-4.15-1.07-1.05-2.46-1.58-4.18-1.58-1.34,0-2.51.29-3.51.88-1,.59-1.97,1.36-2.89,2.32l-2.15-2.05c.96-1.18,2.16-2.17,3.63-2.98,1.46-.81,3.1-1.22,4.92-1.22s3.3.38,4.65,1.15ZM657.35,264.23c1.16-.67,2.08-1.58,2.75-2.75.67-1.16,1-2.46,1-3.89v-1.62l-7.54,1.24c-1.62.29-2.83.8-3.63,1.53-.8.73-1.19,1.64-1.19,2.72s.44,1.94,1.31,2.67c.88.73,2.03,1.1,3.46,1.1s2.68-.33,3.84-1Z"/>
          <path class="cls-1" d="M678.35,266.81c-1.51-.92-2.59-1.94-3.22-3.06h-.05v3.96h-3.25v-33.42h3.25v14.46h.05c.64-1.11,1.71-2.13,3.22-3.05,1.51-.92,3.22-1.38,5.13-1.38s3.68.52,5.32,1.55,2.95,2.46,3.94,4.27c.99,1.81,1.48,3.85,1.48,6.11s-.49,4.3-1.48,6.11c-.99,1.81-2.3,3.24-3.94,4.27-1.64,1.04-3.41,1.55-5.32,1.55s-3.62-.46-5.13-1.38ZM687.02,263.9c1.21-.76,2.17-1.81,2.89-3.15.72-1.34,1.07-2.83,1.07-4.49s-.36-3.2-1.07-4.54c-.72-1.34-1.68-2.38-2.89-3.13-1.21-.75-2.51-1.12-3.91-1.12s-2.81.38-4.03,1.12c-1.23.75-2.2,1.79-2.91,3.13-.72,1.34-1.07,2.85-1.07,4.54s.36,3.15,1.07,4.49c.72,1.34,1.69,2.39,2.91,3.15,1.23.76,2.57,1.15,4.03,1.15s2.7-.38,3.91-1.15Z"/>
        </g>
      </g>
    </g>
  </g>
</svg>